<?xml version="1.0" encoding="utf-8"?>
<svg viewBox="136.26126098632812 111.48648071289062 147.52252197265625 66.44146728515625" xmlns="http://www.w3.org/2000/svg">
  <path d="M 153.679 127.202 L 153.679 127.202 L 153.679 127.202 C 154.888 125.463 157.036 124.274 160.111 123.633 L 160.111 123.633 L 160.111 123.633 C 161.445 123.385 162.811 123.263 164.209 123.263 L 164.209 123.263 L 164.209 123.263 C 165.606 123.263 167.048 123.404 168.537 123.687 L 168.537 123.687 L 168.537 123.687 C 169.348 122.658 170.174 122.143 171.01 122.143 L 171.01 122.143 L 171.01 122.143 C 171.225 122.143 171.373 122.205 171.452 122.328 L 171.452 122.328 L 171.452 122.328 C 171.532 122.453 171.523 122.585 171.43 122.73 L 171.43 122.73 L 171.43 122.73 C 171.333 122.87 171.125 123.003 170.801 123.13 L 170.801 123.13 L 170.801 123.13 C 170.476 123.254 170.094 123.53 169.659 123.956 L 169.659 123.956 L 169.659 123.956 C 170.715 124.309 171.446 124.599 171.847 124.83 L 171.847 124.83 L 171.847 124.83 C 172.253 125.062 172.555 125.356 172.757 125.712 L 172.757 125.712 L 172.757 125.712 C 172.96 126.066 173.06 126.316 173.06 126.458 L 173.06 126.458 L 173.06 126.458 C 173.06 126.778 172.634 126.778 171.779 126.458 L 171.779 126.458 L 171.779 126.458 C 170.922 126.139 169.923 125.891 168.774 125.712 L 168.774 125.712 L 168.774 125.712 C 168.213 127.239 167.628 129.335 167.008 131.998 L 167.008 131.998 L 167.008 131.998 C 166.384 134.663 166.01 136.261 165.886 136.793 L 165.886 136.793 L 165.886 136.793 C 167.565 136.332 168.69 136.103 169.263 136.103 L 169.263 136.103 L 169.263 136.103 C 169.836 136.103 170.186 136.147 170.314 136.235 L 170.314 136.235 L 170.314 136.235 C 170.433 136.324 170.505 136.439 170.525 136.582 L 170.525 136.582 L 170.525 136.582 C 170.537 136.723 170.514 136.837 170.452 136.93 L 170.452 136.93 L 170.452 136.93 C 170.387 137.016 170.287 137.026 170.146 136.953 L 170.146 136.953 L 170.146 136.953 C 170.007 136.883 169.751 136.846 169.383 136.846 L 169.383 136.846 L 169.383 136.846 C 169.009 136.846 168.31 136.998 167.283 137.3 L 167.283 137.3 L 167.283 137.3 C 166.258 137.603 165.651 138.056 165.469 138.659 L 165.469 138.659 L 165.469 138.659 C 162.608 147.648 158.973 153.899 154.564 157.415 L 154.564 157.415 L 154.564 157.415 C 152.609 159.012 150.824 159.81 149.21 159.81 L 149.21 159.81 L 149.21 159.81 C 148.619 159.81 148.058 159.704 147.528 159.492 L 147.528 159.492 L 147.528 159.492 C 145.949 158.89 145.156 157.549 145.156 155.47 L 145.156 155.47 L 145.156 155.47 C 145.156 153.39 146.103 151.108 147.998 148.621 L 147.998 148.621 L 147.998 148.621 C 151.819 143.613 156.973 139.936 163.462 137.594 L 163.462 137.594 L 163.462 137.594 C 163.556 137.275 163.848 136.228 164.347 134.451 L 164.347 134.451 L 164.347 134.451 C 165.432 130.4 166.447 127.45 167.375 125.604 L 167.375 125.604 L 167.375 125.604 C 167.002 125.604 166.444 125.604 165.698 125.604 L 165.698 125.604 L 165.698 125.604 C 164.954 125.604 163.899 125.694 162.531 125.872 L 162.531 125.872 L 162.531 125.872 C 159.024 126.335 156.525 127.347 155.03 128.909 L 155.03 128.909 L 155.03 128.909 C 154.255 129.762 153.866 130.739 153.866 131.841 L 153.866 131.841 L 153.866 131.841 C 153.866 132.373 153.998 132.851 154.265 133.278 L 154.265 133.278 L 154.265 133.278 C 154.527 133.705 154.78 134.006 155.03 134.183 L 155.03 134.183 L 155.03 134.183 C 155.436 134.501 155.979 134.857 156.66 135.249 L 156.66 135.249 L 156.66 135.249 C 157.036 135.567 157.111 135.764 156.895 135.834 L 156.895 135.834 L 156.895 135.834 C 156.802 135.834 156.694 135.817 156.571 135.781 L 156.571 135.781 L 156.571 135.781 C 155.821 135.605 155.03 135.09 154.193 134.236 L 154.193 134.236 L 154.193 134.236 C 153.355 133.385 152.92 132.409 152.888 131.309 L 152.888 131.309 L 152.888 131.309 C 152.793 130.917 152.745 130.595 152.745 130.346 L 152.745 130.346 L 152.745 130.346 C 152.745 129.174 153.057 128.127 153.679 127.202 Z M 147.575 155.069 L 147.575 155.069 L 147.575 155.069 C 147.575 155.461 147.607 155.851 147.669 156.243 L 147.669 156.243 L 147.669 156.243 C 147.981 157.591 148.754 158.266 150 158.266 L 150 158.266 L 150 158.266 C 151.829 158.266 153.756 156.862 155.779 154.058 L 155.779 154.058 L 155.779 154.058 C 158.757 149.902 161.226 144.751 163.183 138.606 L 163.183 138.606 L 163.183 138.606 C 157.749 140.629 153.447 143.914 150.281 148.462 L 150.281 148.462 L 150.281 148.462 C 148.477 150.984 147.575 153.186 147.575 155.069 Z M 172.08 150.646 L 172.08 150.646 L 175.203 150.968 L 175.203 150.968 C 175.884 150.968 176.409 150.889 176.765 150.728 L 176.765 150.728 L 176.765 150.728 C 177.118 150.568 177.386 150.523 177.555 150.592 L 177.555 150.592 L 177.555 150.592 C 177.725 150.664 177.687 150.797 177.442 150.992 L 177.442 150.992 L 177.442 150.992 C 177.192 151.187 176.779 151.339 176.203 151.446 L 176.203 151.446 L 176.203 151.446 C 175.628 151.555 175.281 151.641 175.157 151.711 L 175.157 151.711 L 175.157 151.711 C 175.652 151.925 176.197 152.229 176.785 152.619 L 176.785 152.619 L 179.255 154.376 L 179.255 154.376 C 179.998 152.387 180.528 150.825 180.838 149.688 L 180.838 149.688 L 180.838 149.688 C 180.652 149.795 180.402 149.874 180.093 149.927 L 180.093 149.927 L 180.093 149.927 C 179.782 149.981 179.628 149.884 179.628 149.633 L 179.628 149.633 L 179.628 149.633 C 179.628 149.387 179.814 149.191 180.186 149.047 L 180.186 149.047 L 181.214 148.729 L 181.214 148.729 C 181.709 147.096 182.26 145.117 182.867 142.79 L 182.867 142.79 L 182.867 142.79 C 183.47 140.463 183.775 139.282 183.775 139.247 L 183.775 139.247 L 183.775 139.247 C 185.638 132.425 187.25 128.127 188.619 126.352 L 188.619 126.352 L 188.619 126.352 C 189.986 124.576 191.243 123.422 192.395 122.891 L 192.395 122.891 L 192.395 122.891 C 193.544 122.356 194.413 122.089 195.002 122.089 L 195.002 122.089 L 195.002 122.089 C 196.649 122.089 197.952 122.835 198.918 124.328 L 198.918 124.328 L 198.918 124.328 C 199.568 125.357 199.895 126.655 199.895 128.218 L 199.895 128.218 L 199.895 128.218 C 199.895 131.164 199.018 134.095 197.262 137.008 L 197.262 137.008 L 197.262 137.008 C 195.507 139.919 193.386 142.382 190.904 144.388 L 190.904 144.388 L 190.904 144.388 C 188.419 146.392 185.838 147.928 183.165 148.997 L 183.165 148.997 L 183.165 148.997 C 182.238 151.518 181.352 153.594 180.512 155.231 L 180.512 155.231 L 180.512 155.231 C 185.265 158.711 188.635 160.824 190.621 161.569 L 190.621 161.569 L 190.621 161.569 C 192.922 162.456 195.109 162.9 197.191 162.9 L 197.191 162.9 L 197.191 162.9 C 199.46 162.9 201.335 162.19 202.825 160.769 L 202.825 160.769 L 202.825 160.769 C 203.607 160.058 203.996 159.313 203.996 158.534 L 203.996 158.534 L 203.996 158.534 C 203.996 157.752 203.859 157.06 203.599 156.457 L 203.599 156.457 L 203.599 156.457 C 203.332 155.851 203.355 155.522 203.667 155.47 L 203.667 155.47 L 203.667 155.47 C 203.975 155.417 204.224 155.603 204.411 156.027 L 204.411 156.027 L 204.411 156.027 C 204.874 157.2 205.11 158.41 205.11 159.654 L 205.11 159.654 L 205.11 159.654 C 205.11 159.865 205.11 160.078 205.11 160.289 L 205.11 160.289 L 205.11 160.289 C 205.078 161.642 204.533 162.833 203.482 163.863 L 203.482 163.863 L 203.482 163.863 C 202.241 165.068 200.33 165.672 197.748 165.672 L 197.748 165.672 L 197.748 165.672 C 196.013 165.672 194.482 165.406 193.159 164.875 L 193.159 164.875 L 193.159 164.875 C 191.841 164.341 190.8 163.906 190.039 163.569 L 190.039 163.569 L 190.039 163.569 C 189.278 163.23 188.329 162.644 187.198 161.81 L 187.198 161.81 L 187.198 161.81 C 186.062 160.975 185.265 160.381 184.799 160.025 L 184.799 160.025 L 184.799 160.025 C 183.867 159.315 182.283 158 180.045 156.082 L 180.045 156.082 L 180.045 156.082 C 178.433 159.278 177.001 160.877 175.76 160.877 L 175.76 160.877 L 175.76 160.877 C 175.45 160.877 175.265 160.815 175.203 160.691 L 175.203 160.691 L 175.203 160.691 C 175.139 160.566 175.149 160.45 175.227 160.343 L 175.227 160.343 L 175.227 160.343 C 175.302 160.237 175.389 160.187 175.481 160.187 L 175.481 160.187 L 175.481 160.187 C 176.508 160.078 177.657 158.427 178.931 155.231 L 178.931 155.231 L 178.931 155.231 C 177.192 153.915 175.731 153.026 174.55 152.566 L 174.55 152.566 L 174.55 152.566 C 173.494 153.062 172.764 153.31 172.36 153.31 L 172.36 153.31 L 172.36 153.31 C 171.957 153.31 171.694 153.291 171.569 153.257 L 171.569 153.257 L 171.569 153.257 C 171.041 153.045 170.777 152.672 170.777 152.141 L 170.777 152.141 L 170.777 152.141 C 170.777 151.395 171.18 150.897 171.986 150.646 L 171.986 150.646 L 171.986 150.646 C 171.986 150.646 172.018 150.646 172.08 150.646 Z M 197.984 127.202 L 197.984 127.202 L 197.984 127.202 C 197.984 124.504 197.098 123.154 195.326 123.154 L 195.326 123.154 L 195.326 123.154 C 193.741 123.154 192.393 124.078 191.275 125.926 L 191.275 125.926 L 191.275 125.926 C 190.032 127.914 189.131 129.769 188.573 131.494 L 188.573 131.494 L 188.573 131.494 C 188.016 133.215 187.609 134.484 187.36 135.302 L 187.36 135.302 L 187.36 135.302 C 186.739 137.293 186.26 139.104 185.918 140.736 L 185.918 140.736 L 185.918 140.736 C 184.891 144.005 184.145 146.26 183.679 147.502 L 183.679 147.502 L 183.679 147.502 C 187.25 145.655 190.336 143.15 192.927 139.99 L 192.927 139.99 L 192.927 139.99 C 195.522 136.829 197.145 133.257 197.795 129.279 L 197.795 129.279 L 197.795 129.279 C 197.922 128.537 197.984 127.844 197.984 127.202 Z M 200.593 138.767 L 200.593 138.767 L 200.593 138.767 C 201.365 138.767 201.834 139.051 201.988 139.618 L 201.988 139.618 L 201.988 139.618 C 202.051 139.936 202.011 140.249 201.871 140.551 L 201.871 140.551 L 201.871 140.551 C 201.735 140.851 201.63 141.09 201.57 141.27 L 201.57 141.27 L 201.57 141.27 C 201.508 141.446 201.462 141.588 201.431 141.695 L 201.431 141.695 L 201.431 141.695 C 201.273 142.05 201.119 142.388 200.965 142.707 L 200.965 142.707 L 200.965 142.707 C 199.196 146.758 198.261 149.334 198.172 150.435 L 198.172 150.435 L 198.172 150.435 C 198.138 150.753 198.124 151.163 198.124 151.658 L 198.124 151.658 L 198.124 151.658 C 198.124 152.156 198.246 152.566 198.496 152.884 L 198.496 152.884 L 198.496 152.884 C 198.927 153.454 199.55 153.49 200.358 152.992 L 200.358 152.992 L 200.358 152.992 C 201.165 152.493 202.29 151.499 203.735 150.01 L 203.735 150.01 L 203.735 150.01 C 205.181 148.517 206.352 147.061 207.252 145.64 L 207.252 145.64 L 207.252 145.64 C 207.376 145.462 207.517 145.416 207.671 145.508 L 207.671 145.508 L 207.671 145.508 C 207.827 145.596 207.909 145.684 207.909 145.772 L 207.909 145.772 L 207.909 145.772 C 207.909 145.861 207.875 145.958 207.813 146.065 L 207.813 146.065 L 207.813 146.065 C 207.345 147.024 206.507 148.249 205.298 149.741 L 205.298 149.741 L 205.298 149.741 C 203.308 152.192 201.648 153.703 200.314 154.271 L 200.314 154.271 L 200.314 154.271 C 199.535 154.591 198.88 154.75 198.353 154.75 L 198.353 154.75 L 198.353 154.75 C 197.112 154.75 196.29 154.074 195.887 152.722 L 195.887 152.722 L 195.887 152.722 C 195.826 152.476 195.797 152.174 195.797 151.818 L 195.797 151.818 L 195.797 151.818 C 195.797 150.576 196.29 148.696 197.28 146.172 L 197.28 146.172 L 197.28 146.172 C 197.129 146.564 196.522 147.452 195.466 148.837 L 195.466 148.837 L 195.466 148.837 C 195.184 149.193 194.97 149.193 194.816 148.837 L 194.816 148.837 L 194.816 148.837 C 194.784 148.765 194.768 148.666 194.768 148.543 L 194.768 148.543 L 194.768 148.543 C 194.768 148.42 194.83 148.268 194.956 148.088 L 194.956 148.088 L 194.956 148.088 C 196.479 145.922 197.673 144.092 198.542 142.6 L 198.542 142.6 L 198.542 142.6 C 198.477 142.424 198.514 142.194 198.637 141.91 L 198.637 141.91 L 198.637 141.91 C 199.257 139.919 199.802 138.872 200.266 138.767 L 200.266 138.767 L 200.266 138.767 C 200.358 138.767 200.466 138.767 200.593 138.767 Z M 204.27 131.68 L 204.27 131.68 L 203.898 133.385 L 203.898 133.385 C 203.898 133.705 203.698 134.221 203.294 134.929 L 203.294 134.929 L 203.294 134.929 C 202.89 135.64 202.581 135.997 202.365 135.997 L 202.365 135.997 L 202.365 135.997 C 201.027 135.997 200.358 135.623 200.358 134.876 L 200.358 134.876 L 200.358 134.876 C 200.358 134.733 201.027 134.075 202.365 132.906 L 202.365 132.906 L 203.155 132.211 L 203.155 132.211 C 203.651 131.713 203.96 131.465 204.085 131.465 L 204.085 131.465 L 204.085 131.465 C 204.209 131.465 204.27 131.535 204.27 131.68 Z M 219.599 138.391 L 219.599 138.391 L 219.599 138.391 C 220.313 138.391 220.669 138.827 220.669 139.696 L 220.669 139.696 L 220.669 139.696 C 220.669 140.568 220.313 141.767 219.599 143.294 L 219.599 143.294 L 219.599 143.294 C 218.882 144.822 218.353 146.065 218.013 147.024 L 218.013 147.024 L 218.013 147.024 C 217.427 148.659 217.128 149.964 217.128 150.94 L 217.128 150.94 L 217.128 150.94 C 217.128 151.917 217.255 152.566 217.504 152.884 L 217.504 152.884 L 217.504 152.884 C 217.967 153.454 218.605 153.482 219.413 152.966 L 219.413 152.966 L 219.413 152.966 C 220.221 152.45 221.345 151.454 222.787 149.98 L 222.787 149.98 L 222.787 149.98 C 224.237 148.508 225.392 147.061 226.261 145.64 L 226.261 145.64 L 226.261 145.64 C 226.385 145.462 226.531 145.416 226.704 145.508 L 226.704 145.508 L 226.704 145.508 C 226.873 145.596 226.955 145.684 226.955 145.772 L 226.955 145.772 L 226.955 145.772 C 226.955 145.861 226.927 145.958 226.865 146.065 L 226.865 146.065 L 226.865 146.065 C 226.4 147.024 225.561 148.249 224.351 149.741 L 224.351 149.741 L 224.351 149.741 C 223.141 151.233 221.976 152.432 220.856 153.338 L 220.856 153.338 L 220.856 153.338 C 219.739 154.243 218.635 154.696 217.55 154.696 L 217.55 154.696 L 217.55 154.696 C 216.49 154.662 215.746 154.387 215.312 153.872 L 215.312 153.872 L 215.312 153.872 C 214.877 153.356 214.661 152.709 214.661 151.925 L 214.661 151.925 L 214.661 151.925 C 214.661 151.144 214.723 150.39 214.845 149.662 L 214.845 149.662 L 214.845 149.662 C 214.969 148.932 215.204 148.088 215.546 147.13 L 215.546 147.13 L 215.546 147.13 C 216.104 145.602 216.593 144.413 217.012 143.563 L 217.012 143.563 L 217.012 143.563 C 217.43 142.708 217.641 142.15 217.641 141.881 L 217.641 141.881 L 217.641 141.881 C 217.641 141.616 217.518 141.484 217.268 141.484 L 217.268 141.484 L 217.268 141.484 C 216.772 141.484 215.826 142.177 214.427 143.563 L 214.427 143.563 L 214.427 143.563 C 213.462 144.593 212.043 146.535 210.167 149.394 L 210.167 149.394 L 210.167 149.394 C 208.286 152.255 207.224 153.774 206.972 153.949 L 206.972 153.949 L 206.972 153.949 C 205.856 154.589 205.156 154.908 204.874 154.908 L 204.874 154.908 L 204.874 154.908 C 204.597 154.908 204.461 154.855 204.461 154.75 L 204.461 154.75 L 204.461 154.75 C 204.461 154.643 204.489 154.491 204.55 154.298 L 204.55 154.298 L 204.55 154.298 C 204.612 154.101 204.914 153.134 205.461 151.393 L 205.461 151.393 L 205.461 151.393 C 206.001 149.654 206.594 147.743 207.23 145.664 L 207.23 145.664 L 207.23 145.664 C 207.864 143.588 208.257 142.336 208.394 141.91 L 208.394 141.91 L 208.394 141.91 C 208.536 141.484 208.626 141.119 208.673 140.815 L 208.673 140.815 L 208.673 140.815 C 208.719 140.516 208.774 140.259 208.834 140.043 L 208.834 140.043 L 208.834 140.043 C 208.896 139.833 209.015 139.592 209.185 139.324 L 209.185 139.324 L 209.185 139.324 C 209.356 139.059 209.581 138.915 209.862 138.899 L 209.862 138.899 L 209.862 138.899 C 210.139 138.88 210.5 138.915 210.934 139.007 L 210.934 139.007 L 210.934 139.007 C 211.366 139.095 211.584 139.317 211.584 139.673 L 211.584 139.673 L 211.584 139.673 C 211.584 139.919 211.412 140.461 211.07 141.295 L 211.07 141.295 L 211.07 141.295 C 210.733 142.132 209.754 145.001 208.137 149.902 L 208.137 149.902 L 208.137 149.902 C 209.256 148.338 210.669 146.533 212.379 144.492 L 212.379 144.492 L 212.379 144.492 C 214.089 142.452 215.528 140.898 216.707 139.833 L 216.707 139.833 L 216.707 139.833 C 217.89 138.872 218.854 138.391 219.599 138.391 Z M 247.595 146.065 L 247.595 146.065 C 247.133 147.024 246.291 148.249 245.08 149.741 L 245.08 149.741 L 245.08 149.741 C 243.871 151.233 242.782 152.389 241.82 153.206 L 241.82 153.206 L 241.82 153.206 C 240.577 154.235 239.227 154.75 237.768 154.75 L 237.768 154.75 L 237.768 154.75 C 237.488 154.75 237.122 154.599 236.671 154.298 L 236.671 154.298 L 236.671 154.298 C 236.222 153.995 235.917 153.559 235.765 152.992 L 235.765 152.992 L 235.765 152.992 C 235.607 152.424 235.528 151.874 235.528 151.339 L 235.528 151.339 L 235.528 151.339 C 235.528 149.491 235.841 147.662 236.463 145.851 L 236.463 145.851 L 236.463 145.851 C 236.368 145.922 235.943 146.678 235.18 148.117 L 235.18 148.117 L 235.18 148.117 C 234.421 149.554 233.487 150.913 232.386 152.19 L 232.386 152.19 L 232.386 152.19 C 231.283 153.469 230.175 154.111 229.055 154.111 L 229.055 154.111 L 229.055 154.111 C 228.531 154.111 227.923 153.951 227.239 153.632 L 227.239 153.632 L 227.239 153.632 C 225.995 152.993 225.376 151.821 225.376 150.113 L 225.376 150.113 L 225.376 150.113 C 225.376 148.018 226.003 145.861 227.26 143.641 L 227.26 143.641 L 227.26 143.641 C 228.522 141.422 229.322 140.24 229.664 140.097 L 229.664 140.097 L 229.664 140.097 C 230.128 139.956 230.57 139.886 230.987 139.886 L 230.987 139.886 L 230.987 139.886 C 231.409 139.886 231.833 139.985 232.27 140.181 L 232.27 140.181 L 232.27 140.181 C 232.702 140.373 232.641 140.7 232.082 141.162 L 232.082 141.162 L 232.082 141.162 C 229.94 143.4 228.417 145.888 227.516 148.621 L 227.516 148.621 L 227.516 148.621 C 227.174 149.688 227.005 150.585 227.005 151.315 L 227.005 151.315 L 227.005 151.315 C 227.005 152.041 227.168 152.511 227.492 152.722 L 227.492 152.722 L 227.492 152.722 C 227.821 152.937 228.139 153.045 228.449 153.045 L 228.449 153.045 L 228.449 153.045 C 229.196 153.045 230.212 152.45 231.499 151.261 L 231.499 151.261 L 231.499 151.261 C 232.788 150.071 234.568 147.594 236.834 143.826 L 236.834 143.826 L 236.834 143.826 C 237.146 143.295 237.688 142.257 238.465 140.712 L 238.465 140.712 L 238.465 140.712 C 239.243 139.164 239.708 138.248 239.865 137.966 L 239.865 137.966 L 239.865 137.966 C 240.361 137.966 240.943 138.098 241.609 138.367 L 241.609 138.367 L 241.609 138.367 C 242.278 138.634 242.501 138.979 242.285 139.403 L 242.285 139.403 L 242.285 139.403 C 240.793 142.244 239.747 144.342 239.143 145.693 L 239.143 145.693 L 239.143 145.693 C 238.534 147.043 238.123 148.623 237.907 150.435 L 237.907 150.435 L 237.907 150.435 C 237.876 150.753 237.857 151.163 237.857 151.658 L 237.857 151.658 L 237.857 151.658 C 237.857 152.156 237.984 152.566 238.231 152.884 L 238.231 152.884 L 238.231 152.884 C 238.7 153.454 239.345 153.482 240.163 152.966 L 240.163 152.966 L 240.163 152.966 C 240.988 152.45 242.116 151.454 243.546 149.98 L 243.546 149.98 L 243.546 149.98 C 244.975 148.508 246.118 147.061 246.991 145.64 L 246.991 145.64 L 246.991 145.64 C 247.114 145.462 247.263 145.416 247.434 145.508 L 247.434 145.508 L 247.434 145.508 C 247.603 145.596 247.69 145.684 247.69 145.772 L 247.69 145.772 L 247.69 145.772 C 247.69 145.861 247.657 145.958 247.595 146.065 L 247.595 146.065 Z M 264.458 139.456 L 264.458 139.456 L 264.458 139.456 C 264.458 139.883 264.103 140.097 263.391 140.097 L 263.391 140.097 L 263.391 140.097 C 261.775 140.807 260.3 141.82 258.964 143.131 L 258.964 143.131 L 255.609 146.119 L 255.609 146.119 C 255.609 147.148 256.183 148.852 257.335 151.232 L 257.335 151.232 L 257.335 151.232 C 257.859 152.405 258.536 152.992 259.36 152.992 L 259.36 152.992 L 259.36 152.992 C 260.183 152.992 261.153 152.335 262.269 151.021 L 262.269 151.021 L 262.269 151.021 C 262.798 150.383 264.073 148.588 266.092 145.64 L 266.092 145.64 L 266.092 145.64 C 266.246 145.425 266.391 145.372 266.533 145.479 L 266.533 145.479 L 266.533 145.479 C 266.671 145.587 266.743 145.692 266.743 145.796 L 266.743 145.796 L 266.743 145.796 C 266.743 145.904 266.712 146.03 266.651 146.172 L 266.651 146.172 L 266.651 146.172 C 265.219 148.659 263.792 150.684 262.363 152.244 L 262.363 152.244 L 262.363 152.244 C 260.906 153.772 259.552 154.537 258.309 154.537 L 258.309 154.537 L 258.309 154.537 C 258.06 154.537 257.815 154.501 257.563 154.428 L 257.563 154.428 L 257.563 154.428 C 256.013 154.038 254.693 151.98 253.605 148.249 L 253.605 148.249 L 253.605 148.249 C 247.271 155.602 244.04 160.788 243.916 163.809 L 243.916 163.809 L 243.916 163.809 C 243.916 164.236 243.808 164.449 243.589 164.449 L 243.589 164.449 L 243.358 164.342 L 243.358 164.342 C 243.232 164.198 243.17 164.02 243.17 163.809 L 243.17 163.809 L 243.17 163.809 C 243.17 161.89 243.996 159.571 245.643 156.854 L 245.643 156.854 L 245.643 156.854 C 247.287 154.135 248.932 151.783 250.577 149.795 L 250.577 149.795 L 250.577 149.795 C 252.223 147.807 253.047 146.759 253.047 146.651 L 253.047 146.651 L 253.047 146.651 C 253.047 145.798 252.831 144.937 252.393 144.066 L 252.393 144.066 L 252.393 144.066 C 251.959 143.196 251.604 142.699 251.325 142.576 L 251.325 142.576 L 251.325 142.576 C 251.042 142.452 250.747 142.495 250.437 142.707 L 250.437 142.707 L 250.437 142.707 C 249.942 143.062 249.437 143.623 248.923 144.388 L 248.923 144.388 L 248.923 144.388 C 248.411 145.151 248.114 145.587 248.039 145.693 L 248.039 145.693 L 248.039 145.693 C 247.961 145.798 247.861 145.94 247.733 146.119 L 247.733 146.119 L 247.733 146.119 C 247.613 146.295 247.472 146.481 247.315 146.678 L 247.315 146.678 L 247.315 146.678 C 247.163 146.872 247.001 146.961 246.831 146.944 L 246.831 146.944 L 246.831 146.944 C 246.658 146.924 246.572 146.828 246.572 146.651 L 246.572 146.651 L 246.572 146.651 C 246.572 146.472 246.632 146.285 246.756 146.09 L 246.756 146.09 L 246.756 146.09 C 246.883 145.895 247.245 145.335 247.851 144.413 L 247.851 144.413 L 247.851 144.413 C 248.457 143.491 248.971 142.718 249.389 142.097 L 249.389 142.097 L 249.389 142.097 C 249.808 141.473 250.303 140.879 250.881 140.312 L 250.881 140.312 L 250.881 140.312 C 251.454 139.742 251.959 139.456 252.393 139.456 L 252.393 139.456 L 252.393 139.456 C 252.831 139.456 253.234 139.634 253.605 139.99 L 253.605 139.99 L 253.605 139.99 C 253.978 140.345 254.225 140.7 254.351 141.054 L 254.351 141.054 L 254.351 141.054 C 254.477 141.411 254.655 142.042 254.884 142.947 L 254.884 142.947 L 254.884 142.947 C 255.121 143.852 255.283 144.465 255.377 144.785 L 255.377 144.785 L 255.377 144.785 C 257.706 142.157 260.034 140.009 262.363 138.337 L 262.363 138.337 L 262.363 138.337 C 262.612 138.233 262.845 138.18 263.061 138.18 L 263.061 138.18 L 263.764 138.337 L 263.764 138.337 C 264.226 138.589 264.458 138.962 264.458 139.456 Z" style="white-space: pre; fill: rgb(97, 12, 57);"/>
</svg>