<?xml version="1.0" encoding="utf-8"?>
<svg viewBox="0 0 500 500" xmlns="http://www.w3.org/2000/svg">
  <path d="M 71.892 112.631 L 71.892 112.631 L 71.892 112.631 C 72.362 111.251 73.197 110.308 74.392 109.8 L 74.392 109.8 L 74.392 109.8 C 74.911 109.604 75.442 109.506 75.985 109.506 L 75.985 109.506 L 75.985 109.506 C 76.528 109.506 77.089 109.618 77.668 109.843 L 77.668 109.843 L 77.668 109.843 C 77.983 109.026 78.304 108.618 78.629 108.618 L 78.629 108.618 L 78.629 108.618 C 78.712 108.618 78.77 108.667 78.801 108.765 L 78.801 108.765 L 78.801 108.765 C 78.832 108.864 78.828 108.969 78.792 109.083 L 78.792 109.083 L 78.792 109.083 C 78.754 109.194 78.674 109.3 78.548 109.401 L 78.548 109.401 L 78.548 109.401 C 78.421 109.499 78.273 109.718 78.104 110.056 L 78.104 110.056 L 78.104 110.056 C 78.514 110.336 78.798 110.567 78.954 110.75 L 78.954 110.75 L 78.954 110.75 C 79.112 110.934 79.23 111.167 79.308 111.449 L 79.308 111.449 L 79.308 111.449 C 79.387 111.73 79.426 111.928 79.426 112.041 L 79.426 112.041 L 79.426 112.041 C 79.426 112.295 79.26 112.295 78.928 112.041 L 78.928 112.041 L 78.928 112.041 C 78.595 111.788 78.206 111.591 77.76 111.449 L 77.76 111.449 L 77.76 111.449 C 77.542 112.661 77.314 114.323 77.073 116.436 L 77.073 116.436 L 77.073 116.436 C 76.831 118.55 76.685 119.818 76.637 120.24 L 76.637 120.24 L 76.637 120.24 C 77.29 119.874 77.727 119.692 77.95 119.692 L 77.95 119.692 L 77.95 119.692 C 78.173 119.692 78.309 119.727 78.358 119.797 L 78.358 119.797 L 78.358 119.797 C 78.405 119.867 78.433 119.959 78.44 120.072 L 78.44 120.072 L 78.44 120.072 C 78.445 120.184 78.436 120.275 78.412 120.348 L 78.412 120.348 L 78.412 120.348 C 78.387 120.417 78.348 120.424 78.293 120.367 L 78.293 120.367 L 78.293 120.367 C 78.239 120.311 78.14 120.282 77.996 120.282 L 77.996 120.282 L 77.996 120.282 C 77.851 120.282 77.579 120.402 77.18 120.642 L 77.18 120.642 L 77.18 120.642 C 76.782 120.882 76.546 121.242 76.475 121.72 L 76.475 121.72 L 76.475 121.72 C 75.363 128.851 73.95 133.81 72.236 136.599 L 72.236 136.599 L 72.236 136.599 C 71.476 137.866 70.782 138.499 70.155 138.499 L 70.155 138.499 L 70.155 138.499 C 69.925 138.499 69.707 138.415 69.501 138.247 L 69.501 138.247 L 69.501 138.247 C 68.887 137.769 68.579 136.705 68.579 135.056 L 68.579 135.056 L 68.579 135.056 C 68.579 133.406 68.947 131.596 69.684 129.623 L 69.684 129.623 L 69.684 129.623 C 71.169 125.65 73.172 122.733 75.695 120.875 L 75.695 120.875 L 75.695 120.875 C 75.731 120.622 75.845 119.791 76.039 118.382 L 76.039 118.382 L 76.039 118.382 C 76.461 115.168 76.855 112.828 77.216 111.364 L 77.216 111.364 L 77.216 111.364 C 77.071 111.364 76.854 111.364 76.564 111.364 L 76.564 111.364 L 76.564 111.364 C 76.275 111.364 75.865 111.435 75.333 111.576 L 75.333 111.576 L 75.333 111.576 C 73.97 111.943 72.998 112.746 72.417 113.985 L 72.417 113.985 L 72.417 113.985 C 72.116 114.662 71.965 115.437 71.965 116.311 L 71.965 116.311 L 71.965 116.311 C 71.965 116.733 72.016 117.113 72.12 117.451 L 72.12 117.451 L 72.12 117.451 C 72.222 117.79 72.32 118.029 72.417 118.169 L 72.417 118.169 L 72.417 118.169 C 72.575 118.422 72.786 118.704 73.051 119.015 L 73.051 119.015 L 73.051 119.015 C 73.197 119.267 73.226 119.423 73.142 119.479 L 73.142 119.479 L 73.142 119.479 C 73.106 119.479 73.064 119.465 73.016 119.437 L 73.016 119.437 L 73.016 119.437 C 72.725 119.297 72.417 118.888 72.092 118.211 L 72.092 118.211 L 72.092 118.211 C 71.766 117.536 71.597 116.762 71.585 115.889 L 71.585 115.889 L 71.585 115.889 C 71.548 115.578 71.529 115.323 71.529 115.125 L 71.529 115.125 L 71.529 115.125 C 71.529 114.196 71.65 113.365 71.892 112.631 Z M 69.519 134.738 L 69.519 134.738 L 69.519 134.738 C 69.519 135.049 69.532 135.358 69.556 135.669 L 69.556 135.669 L 69.556 135.669 C 69.677 136.739 69.978 137.274 70.462 137.274 L 70.462 137.274 L 70.462 137.274 C 71.173 137.274 71.922 136.161 72.708 133.936 L 72.708 133.936 L 72.708 133.936 C 73.866 130.639 74.826 126.553 75.586 121.678 L 75.586 121.678 L 75.586 121.678 C 73.474 123.283 71.802 125.889 70.571 129.496 L 70.571 129.496 L 70.571 129.496 C 69.87 131.497 69.519 133.244 69.519 134.738 Z M 79.045 131.229 L 79.045 131.229 L 80.259 131.485 L 80.259 131.485 C 80.524 131.485 80.727 131.422 80.866 131.294 L 80.866 131.294 L 80.866 131.294 C 81.003 131.167 81.107 131.132 81.173 131.186 L 81.173 131.186 L 81.173 131.186 C 81.239 131.243 81.224 131.349 81.129 131.504 L 81.129 131.504 L 81.129 131.504 C 81.032 131.659 80.871 131.779 80.648 131.864 L 80.648 131.864 L 80.648 131.864 C 80.424 131.95 80.289 132.019 80.241 132.074 L 80.241 132.074 L 80.241 132.074 C 80.433 132.244 80.645 132.485 80.874 132.795 L 80.874 132.795 L 81.834 134.188 L 81.834 134.188 C 82.123 132.61 82.329 131.371 82.449 130.469 L 82.449 130.469 L 82.449 130.469 C 82.377 130.554 82.28 130.617 82.16 130.659 L 82.16 130.659 L 82.16 130.659 C 82.039 130.702 81.979 130.625 81.979 130.426 L 81.979 130.426 L 81.979 130.426 C 81.979 130.23 82.051 130.075 82.196 129.96 L 82.196 129.96 L 82.595 129.708 L 82.595 129.708 C 82.788 128.413 83.002 126.843 83.238 124.997 L 83.238 124.997 L 83.238 124.997 C 83.473 123.151 83.591 122.214 83.591 122.186 L 83.591 122.186 L 83.591 122.186 C 84.315 116.775 84.942 113.365 85.474 111.957 L 85.474 111.957 L 85.474 111.957 C 86.005 110.548 86.494 109.633 86.942 109.211 L 86.942 109.211 L 86.942 109.211 C 87.388 108.787 87.726 108.575 87.955 108.575 L 87.955 108.575 L 87.955 108.575 C 88.595 108.575 89.102 109.167 89.477 110.351 L 89.477 110.351 L 89.477 110.351 C 89.73 111.168 89.857 112.197 89.857 113.437 L 89.857 113.437 L 89.857 113.437 C 89.857 115.774 89.516 118.099 88.834 120.41 L 88.834 120.41 L 88.834 120.41 C 88.151 122.72 87.327 124.673 86.362 126.265 L 86.362 126.265 L 86.362 126.265 C 85.396 127.855 84.393 129.073 83.354 129.921 L 83.354 129.921 L 83.354 129.921 C 82.993 131.921 82.649 133.568 82.322 134.866 L 82.322 134.866 L 82.322 134.866 C 84.17 137.627 85.48 139.303 86.252 139.895 L 86.252 139.895 L 86.252 139.895 C 87.146 140.598 87.997 140.95 88.806 140.95 L 88.806 140.95 L 88.806 140.95 C 89.688 140.95 90.417 140.387 90.996 139.26 L 90.996 139.26 L 90.996 139.26 C 91.3 138.696 91.451 138.105 91.451 137.487 L 91.451 137.487 L 91.451 137.487 C 91.451 136.867 91.398 136.317 91.297 135.839 L 91.297 135.839 L 91.297 135.839 C 91.193 135.358 91.202 135.097 91.323 135.056 L 91.323 135.056 L 91.323 135.056 C 91.443 135.014 91.54 135.162 91.613 135.498 L 91.613 135.498 L 91.613 135.498 C 91.793 136.429 91.884 137.388 91.884 138.375 L 91.884 138.375 L 91.884 138.375 C 91.884 138.543 91.884 138.712 91.884 138.879 L 91.884 138.879 L 91.884 138.879 C 91.872 139.952 91.66 140.897 91.251 141.714 L 91.251 141.714 L 91.251 141.714 C 90.769 142.67 90.026 143.149 89.023 143.149 L 89.023 143.149 L 89.023 143.149 C 88.348 143.149 87.753 142.938 87.239 142.517 L 87.239 142.517 L 87.239 142.517 C 86.726 142.093 86.322 141.748 86.026 141.481 L 86.026 141.481 L 86.026 141.481 C 85.73 141.212 85.361 140.747 84.921 140.086 L 84.921 140.086 L 84.921 140.086 C 84.48 139.423 84.17 138.952 83.989 138.67 L 83.989 138.67 L 83.989 138.67 C 83.627 138.106 83.011 137.063 82.141 135.541 L 82.141 135.541 L 82.141 135.541 C 81.514 138.077 80.958 139.345 80.475 139.345 L 80.475 139.345 L 80.475 139.345 C 80.355 139.345 80.283 139.296 80.259 139.198 L 80.259 139.198 L 80.259 139.198 C 80.234 139.099 80.238 139.007 80.268 138.922 L 80.268 138.922 L 80.268 138.922 C 80.297 138.838 80.331 138.798 80.367 138.798 L 80.367 138.798 L 80.367 138.798 C 80.766 138.712 81.213 137.402 81.708 134.866 L 81.708 134.866 L 81.708 134.866 C 81.032 133.822 80.464 133.117 80.005 132.752 L 80.005 132.752 L 80.005 132.752 C 79.594 133.146 79.311 133.342 79.154 133.342 L 79.154 133.342 L 79.154 133.342 C 78.997 133.342 78.895 133.328 78.846 133.3 L 78.846 133.3 L 78.846 133.3 C 78.641 133.132 78.538 132.837 78.538 132.415 L 78.538 132.415 L 78.538 132.415 C 78.538 131.823 78.695 131.428 79.008 131.229 L 79.008 131.229 L 79.008 131.229 C 79.008 131.229 79.021 131.229 79.045 131.229 Z M 89.114 112.631 L 89.114 112.631 L 89.114 112.631 C 89.114 110.491 88.77 109.42 88.081 109.42 L 88.081 109.42 L 88.081 109.42 C 87.465 109.42 86.941 110.153 86.506 111.619 L 86.506 111.619 L 86.506 111.619 C 86.023 113.196 85.673 114.668 85.456 116.036 L 85.456 116.036 L 85.456 116.036 C 85.239 117.401 85.081 118.408 84.984 119.057 L 84.984 119.057 L 84.984 119.057 C 84.743 120.636 84.557 122.073 84.424 123.368 L 84.424 123.368 L 84.424 123.368 C 84.025 125.961 83.735 127.75 83.554 128.735 L 83.554 128.735 L 83.554 128.735 C 84.942 127.27 86.141 125.283 87.148 122.776 L 87.148 122.776 L 87.148 122.776 C 88.157 120.268 88.788 117.435 89.041 114.279 L 89.041 114.279 L 89.041 114.279 C 89.09 113.69 89.114 113.14 89.114 112.631 Z M 90.128 121.806 L 90.128 121.806 L 90.128 121.806 C 90.429 121.806 90.611 122.031 90.671 122.48 L 90.671 122.48 L 90.671 122.48 C 90.695 122.733 90.68 122.981 90.625 123.221 L 90.625 123.221 L 90.625 123.221 C 90.572 123.459 90.532 123.649 90.508 123.791 L 90.508 123.791 L 90.508 123.791 C 90.484 123.931 90.466 124.044 90.454 124.128 L 90.454 124.128 L 90.454 124.128 C 90.393 124.41 90.333 124.678 90.273 124.931 L 90.273 124.931 L 90.273 124.931 C 89.585 128.145 89.222 130.188 89.187 131.062 L 89.187 131.062 L 89.187 131.062 C 89.174 131.314 89.169 131.639 89.169 132.032 L 89.169 132.032 L 89.169 132.032 C 89.169 132.427 89.216 132.752 89.313 133.005 L 89.313 133.005 L 89.313 133.005 C 89.481 133.457 89.723 133.485 90.037 133.09 L 90.037 133.09 L 90.037 133.09 C 90.351 132.694 90.788 131.906 91.35 130.725 L 91.35 130.725 L 91.35 130.725 C 91.912 129.54 92.367 128.385 92.717 127.258 L 92.717 127.258 L 92.717 127.258 C 92.765 127.116 92.82 127.08 92.88 127.153 L 92.88 127.153 L 92.88 127.153 C 92.94 127.223 92.972 127.293 92.972 127.363 L 92.972 127.363 L 92.972 127.363 C 92.972 127.433 92.959 127.51 92.935 127.595 L 92.935 127.595 L 92.935 127.595 C 92.753 128.356 92.427 129.328 91.957 130.511 L 91.957 130.511 L 91.957 130.511 C 91.184 132.456 90.538 133.654 90.02 134.105 L 90.02 134.105 L 90.02 134.105 C 89.717 134.359 89.463 134.485 89.258 134.485 L 89.258 134.485 L 89.258 134.485 C 88.775 134.485 88.456 133.949 88.299 132.876 L 88.299 132.876 L 88.299 132.876 C 88.275 132.681 88.264 132.441 88.264 132.159 L 88.264 132.159 L 88.264 132.159 C 88.264 131.174 88.456 129.682 88.841 127.68 L 88.841 127.68 L 88.841 127.68 C 88.782 127.991 88.546 128.695 88.135 129.794 L 88.135 129.794 L 88.135 129.794 C 88.026 130.076 87.943 130.076 87.883 129.794 L 87.883 129.794 L 87.883 129.794 C 87.87 129.737 87.864 129.659 87.864 129.561 L 87.864 129.561 L 87.864 129.561 C 87.864 129.463 87.888 129.343 87.937 129.2 L 87.937 129.2 L 87.937 129.2 C 88.529 127.482 88.993 126.03 89.331 124.846 L 89.331 124.846 L 89.331 124.846 C 89.306 124.707 89.32 124.524 89.368 124.299 L 89.368 124.299 L 89.368 124.299 C 89.609 122.72 89.821 121.889 90.001 121.806 L 90.001 121.806 L 90.001 121.806 C 90.037 121.806 90.079 121.806 90.128 121.806 Z M 91.558 116.183 L 91.558 116.183 L 91.413 117.536 L 91.413 117.536 C 91.413 117.79 91.335 118.199 91.178 118.761 L 91.178 118.761 L 91.178 118.761 C 91.021 119.325 90.901 119.608 90.817 119.608 L 90.817 119.608 L 90.817 119.608 C 90.297 119.608 90.037 119.311 90.037 118.719 L 90.037 118.719 L 90.037 118.719 C 90.037 118.606 90.297 118.084 90.817 117.156 L 90.817 117.156 L 91.124 116.605 L 91.124 116.605 C 91.317 116.21 91.437 116.013 91.486 116.013 L 91.486 116.013 L 91.486 116.013 C 91.534 116.013 91.558 116.069 91.558 116.183 Z M 97.516 121.508 L 97.516 121.508 L 97.516 121.508 C 97.794 121.508 97.932 121.853 97.932 122.543 L 97.932 122.543 L 97.932 122.543 C 97.932 123.234 97.794 124.185 97.516 125.397 L 97.516 125.397 L 97.516 125.397 C 97.238 126.609 97.032 127.595 96.9 128.356 L 96.9 128.356 L 96.9 128.356 C 96.672 129.653 96.556 130.688 96.556 131.462 L 96.556 131.462 L 96.556 131.462 C 96.556 132.237 96.605 132.752 96.702 133.005 L 96.702 133.005 L 96.702 133.005 C 96.882 133.457 97.13 133.479 97.444 133.07 L 97.444 133.07 L 97.444 133.07 C 97.758 132.66 98.195 131.87 98.756 130.701 L 98.756 130.701 L 98.756 130.701 C 99.319 129.533 99.768 128.385 100.106 127.258 L 100.106 127.258 L 100.106 127.258 C 100.154 127.116 100.211 127.08 100.278 127.153 L 100.278 127.153 L 100.278 127.153 C 100.344 127.223 100.376 127.293 100.376 127.363 L 100.376 127.363 L 100.376 127.363 C 100.376 127.433 100.365 127.51 100.341 127.595 L 100.341 127.595 L 100.341 127.595 C 100.16 128.356 99.834 129.328 99.363 130.511 L 99.363 130.511 L 99.363 130.511 C 98.893 131.695 98.44 132.646 98.005 133.365 L 98.005 133.365 L 98.005 133.365 C 97.571 134.083 97.142 134.442 96.72 134.442 L 96.72 134.442 L 96.72 134.442 C 96.308 134.415 96.019 134.197 95.85 133.788 L 95.85 133.788 L 95.85 133.788 C 95.681 133.379 95.597 132.865 95.597 132.244 L 95.597 132.244 L 95.597 132.244 C 95.597 131.624 95.621 131.026 95.668 130.449 L 95.668 130.449 L 95.668 130.449 C 95.717 129.87 95.808 129.2 95.941 128.44 L 95.941 128.44 L 95.941 128.44 C 96.158 127.228 96.348 126.285 96.511 125.61 L 96.511 125.61 L 96.511 125.61 C 96.673 124.932 96.755 124.489 96.755 124.276 L 96.755 124.276 L 96.755 124.276 C 96.755 124.066 96.707 123.961 96.61 123.961 L 96.61 123.961 L 96.61 123.961 C 96.417 123.961 96.05 124.511 95.506 125.61 L 95.506 125.61 L 95.506 125.61 C 95.131 126.427 94.579 127.968 93.85 130.236 L 93.85 130.236 L 93.85 130.236 C 93.119 132.506 92.706 133.71 92.608 133.85 L 92.608 133.85 L 92.608 133.85 C 92.174 134.357 91.902 134.61 91.793 134.61 L 91.793 134.61 L 91.793 134.61 C 91.685 134.61 91.632 134.568 91.632 134.485 L 91.632 134.485 L 91.632 134.485 C 91.632 134.4 91.643 134.28 91.667 134.126 L 91.667 134.126 L 91.667 134.126 C 91.691 133.97 91.808 133.203 92.021 131.822 L 92.021 131.822 L 92.021 131.822 C 92.231 130.442 92.461 128.926 92.708 127.277 L 92.708 127.277 L 92.708 127.277 C 92.955 125.63 93.107 124.637 93.161 124.299 L 93.161 124.299 L 93.161 124.299 C 93.216 123.961 93.251 123.671 93.269 123.431 L 93.269 123.431 L 93.269 123.431 C 93.287 123.193 93.308 122.989 93.332 122.818 L 93.332 122.818 L 93.332 122.818 C 93.356 122.651 93.402 122.46 93.468 122.248 L 93.468 122.248 L 93.468 122.248 C 93.535 122.037 93.622 121.923 93.731 121.91 L 93.731 121.91 L 93.731 121.91 C 93.839 121.895 93.979 121.923 94.148 121.996 L 94.148 121.996 L 94.148 121.996 C 94.316 122.066 94.401 122.242 94.401 122.524 L 94.401 122.524 L 94.401 122.524 C 94.401 122.72 94.334 123.149 94.201 123.811 L 94.201 123.811 L 94.201 123.811 C 94.07 124.475 93.689 126.751 93.061 130.639 L 93.061 130.639 L 93.061 130.639 C 93.496 129.398 94.045 127.967 94.71 126.347 L 94.71 126.347 L 94.71 126.347 C 95.374 124.729 95.934 123.496 96.392 122.651 L 96.392 122.651 L 96.392 122.651 C 96.852 121.889 97.227 121.508 97.516 121.508 Z M 108.399 127.595 L 108.399 127.595 C 108.219 128.356 107.892 129.328 107.421 130.511 L 107.421 130.511 L 107.421 130.511 C 106.951 131.695 106.528 132.612 106.154 133.26 L 106.154 133.26 L 106.154 133.26 C 105.671 134.077 105.146 134.485 104.579 134.485 L 104.579 134.485 L 104.579 134.485 C 104.47 134.485 104.328 134.365 104.153 134.126 L 104.153 134.126 L 104.153 134.126 C 103.978 133.886 103.86 133.54 103.8 133.09 L 103.8 133.09 L 103.8 133.09 C 103.739 132.64 103.708 132.203 103.708 131.779 L 103.708 131.779 L 103.708 131.779 C 103.708 130.313 103.83 128.862 104.072 127.425 L 104.072 127.425 L 104.072 127.425 C 104.035 127.482 103.87 128.081 103.573 129.223 L 103.573 129.223 L 103.573 129.223 C 103.278 130.363 102.915 131.441 102.487 132.454 L 102.487 132.454 L 102.487 132.454 C 102.058 133.469 101.627 133.978 101.192 133.978 L 101.192 133.978 L 101.192 133.978 C 100.988 133.978 100.752 133.851 100.486 133.598 L 100.486 133.598 L 100.486 133.598 C 100.003 133.091 99.762 132.161 99.762 130.806 L 99.762 130.806 L 99.762 130.806 C 99.762 129.144 100.006 127.433 100.494 125.672 L 100.494 125.672 L 100.494 125.672 C 100.985 123.912 101.296 122.974 101.429 122.861 L 101.429 122.861 L 101.429 122.861 C 101.609 122.749 101.781 122.693 101.943 122.693 L 101.943 122.693 L 101.943 122.693 C 102.107 122.693 102.272 122.772 102.442 122.927 L 102.442 122.927 L 102.442 122.927 C 102.61 123.08 102.586 123.339 102.369 123.706 L 102.369 123.706 L 102.369 123.706 C 101.536 125.481 100.944 127.455 100.594 129.623 L 100.594 129.623 L 100.594 129.623 C 100.461 130.469 100.395 131.181 100.395 131.76 L 100.395 131.76 L 100.395 131.76 C 100.395 132.336 100.459 132.709 100.585 132.876 L 100.585 132.876 L 100.585 132.876 C 100.712 133.047 100.836 133.132 100.956 133.132 L 100.956 133.132 L 100.956 133.132 C 101.247 133.132 101.642 132.661 102.142 131.717 L 102.142 131.717 L 102.142 131.717 C 102.643 130.773 103.335 128.808 104.216 125.819 L 104.216 125.819 L 104.216 125.819 C 104.337 125.398 104.548 124.574 104.85 123.349 L 104.85 123.349 L 104.85 123.349 C 105.152 122.121 105.333 121.394 105.394 121.17 L 105.394 121.17 L 105.394 121.17 C 105.587 121.17 105.813 121.275 106.072 121.488 L 106.072 121.488 L 106.072 121.488 C 106.332 121.7 106.419 121.974 106.335 122.31 L 106.335 122.31 L 106.335 122.31 C 105.755 124.564 105.348 126.228 105.113 127.3 L 105.113 127.3 L 105.113 127.3 C 104.877 128.371 104.717 129.624 104.633 131.062 L 104.633 131.062 L 104.633 131.062 C 104.621 131.314 104.614 131.639 104.614 132.032 L 104.614 132.032 L 104.614 132.032 C 104.614 132.427 104.663 132.752 104.759 133.005 L 104.759 133.005 L 104.759 133.005 C 104.941 133.457 105.192 133.479 105.51 133.07 L 105.51 133.07 L 105.51 133.07 C 105.831 132.66 106.269 131.87 106.825 130.701 L 106.825 130.701 L 106.825 130.701 C 107.38 129.533 107.825 128.385 108.164 127.258 L 108.164 127.258 L 108.164 127.258 C 108.212 127.116 108.27 127.08 108.336 127.153 L 108.336 127.153 L 108.336 127.153 C 108.402 127.223 108.436 127.293 108.436 127.363 L 108.436 127.363 L 108.436 127.363 C 108.436 127.433 108.423 127.51 108.399 127.595 L 108.399 127.595 Z M 114.954 122.352 L 114.954 122.352 L 114.954 122.352 C 114.954 122.691 114.816 122.861 114.539 122.861 L 114.539 122.861 L 114.539 122.861 C 113.911 123.424 113.337 124.227 112.818 125.268 L 112.818 125.268 L 111.514 127.638 L 111.514 127.638 C 111.514 128.454 111.737 129.806 112.185 131.694 L 112.185 131.694 L 112.185 131.694 C 112.389 132.625 112.652 133.09 112.972 133.09 L 112.972 133.09 L 112.972 133.09 C 113.292 133.09 113.669 132.569 114.103 131.527 L 114.103 131.527 L 114.103 131.527 C 114.309 131.02 114.804 129.597 115.589 127.258 L 115.589 127.258 L 115.589 127.258 C 115.649 127.087 115.705 127.045 115.76 127.13 L 115.76 127.13 L 115.76 127.13 C 115.814 127.216 115.842 127.299 115.842 127.382 L 115.842 127.382 L 115.842 127.382 C 115.842 127.467 115.83 127.567 115.806 127.68 L 115.806 127.68 L 115.806 127.68 C 115.25 129.653 114.695 131.259 114.14 132.497 L 114.14 132.497 L 114.14 132.497 C 113.573 133.709 113.047 134.316 112.564 134.316 L 112.564 134.316 L 112.564 134.316 C 112.467 134.316 112.371 134.287 112.274 134.23 L 112.274 134.23 L 112.274 134.23 C 111.671 133.92 111.158 132.287 110.735 129.328 L 110.735 129.328 L 110.735 129.328 C 108.273 135.161 107.017 139.275 106.969 141.671 L 106.969 141.671 L 106.969 141.671 C 106.969 142.01 106.927 142.179 106.842 142.179 L 106.842 142.179 L 106.752 142.094 L 106.752 142.094 C 106.703 141.98 106.679 141.839 106.679 141.671 L 106.679 141.671 L 106.679 141.671 C 106.679 140.149 107 138.309 107.64 136.154 L 107.64 136.154 L 107.64 136.154 C 108.279 133.997 108.918 132.131 109.558 130.554 L 109.558 130.554 L 109.558 130.554 C 110.198 128.977 110.518 128.146 110.518 128.06 L 110.518 128.06 L 110.518 128.06 C 110.518 127.383 110.434 126.7 110.264 126.009 L 110.264 126.009 L 110.264 126.009 C 110.095 125.319 109.957 124.925 109.849 124.827 L 109.849 124.827 L 109.849 124.827 C 109.739 124.729 109.624 124.763 109.504 124.931 L 109.504 124.931 L 109.504 124.931 C 109.311 125.213 109.115 125.658 108.915 126.265 L 108.915 126.265 L 108.915 126.265 C 108.716 126.87 108.601 127.216 108.571 127.3 L 108.571 127.3 L 108.571 127.3 C 108.541 127.383 108.502 127.496 108.453 127.638 L 108.453 127.638 L 108.453 127.638 C 108.406 127.778 108.351 127.925 108.29 128.081 L 108.29 128.081 L 108.29 128.081 C 108.231 128.235 108.168 128.306 108.102 128.293 L 108.102 128.293 L 108.102 128.293 C 108.035 128.277 108.001 128.201 108.001 128.06 L 108.001 128.06 L 108.001 128.06 C 108.001 127.918 108.025 127.77 108.073 127.615 L 108.073 127.615 L 108.073 127.615 C 108.122 127.46 108.263 127.016 108.498 126.285 L 108.498 126.285 L 108.498 126.285 C 108.734 125.553 108.934 124.94 109.096 124.447 L 109.096 124.447 L 109.096 124.447 C 109.259 123.952 109.452 123.481 109.676 123.031 L 109.676 123.031 L 109.676 123.031 C 109.899 122.579 110.095 122.352 110.264 122.352 L 110.264 122.352 L 110.264 122.352 C 110.434 122.352 110.591 122.493 110.735 122.776 L 110.735 122.776 L 110.735 122.776 C 110.88 123.057 110.976 123.339 111.025 123.62 L 111.025 123.62 L 111.025 123.62 C 111.074 123.903 111.143 124.403 111.232 125.122 L 111.232 125.122 L 111.232 125.122 C 111.324 125.84 111.387 126.326 111.424 126.58 L 111.424 126.58 L 111.424 126.58 C 112.329 124.495 113.234 122.791 114.14 121.465 L 114.14 121.465 L 114.14 121.465 C 114.236 121.382 114.327 121.34 114.411 121.34 L 114.411 121.34 L 114.684 121.465 L 114.684 121.465 C 114.864 121.664 114.954 121.96 114.954 122.352 Z" style="white-space: pre; fill: rgb(97, 12, 57);"/>
</svg>