<?xml version="1.0" encoding="utf-8"?>
<svg viewBox="0 0 500 500" xmlns="http://www.w3.org/2000/svg">
  <path d="M 81.286 123.332 L 81.286 123.332 L 81.286 123.332 C 83.088 118.312 86.291 114.88 90.874 113.032 L 90.874 113.032 L 90.874 113.032 C 92.865 112.318 94.901 111.962 96.984 111.962 L 96.984 111.962 L 96.984 111.962 C 99.067 111.962 101.218 112.369 103.439 113.188 L 103.439 113.188 L 103.439 113.188 C 104.647 110.216 105.878 108.731 107.124 108.731 L 107.124 108.731 L 107.124 108.731 C 107.443 108.731 107.665 108.91 107.785 109.266 L 107.785 109.266 L 107.785 109.266 C 107.903 109.626 107.888 110.008 107.75 110.423 L 107.75 110.423 L 107.75 110.423 C 107.604 110.828 107.297 111.212 106.814 111.58 L 106.814 111.58 L 106.814 111.58 C 106.327 111.937 105.759 112.734 105.111 113.963 L 105.111 113.963 L 105.111 113.963 C 106.684 114.982 107.773 115.822 108.371 116.488 L 108.371 116.488 L 108.371 116.488 C 108.977 117.157 109.429 118.005 109.729 119.032 L 109.729 119.032 L 109.729 119.032 C 110.032 120.054 110.181 120.774 110.181 121.185 L 110.181 121.185 L 110.181 121.185 C 110.181 122.109 109.545 122.109 108.271 121.185 L 108.271 121.185 L 108.271 121.185 C 106.994 120.265 105.502 119.548 103.792 119.032 L 103.792 119.032 L 103.792 119.032 C 102.955 123.441 102.081 129.488 101.157 137.176 L 101.157 137.176 L 101.157 137.176 C 100.229 144.867 99.669 149.48 99.485 151.015 L 99.485 151.015 L 99.485 151.015 C 101.989 149.684 103.665 149.022 104.52 149.022 L 104.52 149.022 L 104.52 149.022 C 105.376 149.022 105.897 149.149 106.086 149.404 L 106.086 149.404 L 106.086 149.404 C 106.265 149.659 106.373 149.993 106.4 150.405 L 106.4 150.405 L 106.4 150.405 C 106.419 150.812 106.385 151.143 106.292 151.409 L 106.292 151.409 L 106.292 151.409 C 106.196 151.66 106.047 151.686 105.836 151.477 L 105.836 151.477 L 105.836 151.477 C 105.629 151.274 105.249 151.168 104.697 151.168 L 104.697 151.168 L 104.697 151.168 C 104.141 151.168 103.098 151.605 101.567 152.479 L 101.567 152.479 L 101.567 152.479 C 100.04 153.351 99.136 154.661 98.863 156.401 L 98.863 156.401 L 98.863 156.401 C 94.598 182.345 89.179 200.387 82.605 210.534 L 82.605 210.534 L 82.605 210.534 C 79.69 215.144 77.028 217.447 74.624 217.447 L 74.624 217.447 L 74.624 217.447 C 73.742 217.447 72.906 217.142 72.115 216.53 L 72.115 216.53 L 72.115 216.53 C 69.761 214.791 68.579 210.92 68.579 204.92 L 68.579 204.92 L 68.579 204.92 C 68.579 198.917 69.991 192.332 72.817 185.154 L 72.817 185.154 L 72.817 185.154 C 78.513 170.699 86.195 160.086 95.872 153.326 L 95.872 153.326 L 95.872 153.326 C 96.01 152.405 96.447 149.382 97.191 144.256 L 97.191 144.256 L 97.191 144.256 C 98.809 132.562 100.321 124.048 101.705 118.722 L 101.705 118.722 L 101.705 118.722 C 101.149 118.722 100.317 118.722 99.205 118.722 L 99.205 118.722 L 99.205 118.722 C 98.096 118.722 96.524 118.981 94.483 119.493 L 94.483 119.493 L 94.483 119.493 C 89.255 120.829 85.528 123.75 83.299 128.258 L 83.299 128.258 L 83.299 128.258 C 82.145 130.722 81.565 133.54 81.565 136.721 L 81.565 136.721 L 81.565 136.721 C 81.565 138.257 81.761 139.639 82.16 140.868 L 82.16 140.868 L 82.16 140.868 C 82.551 142.102 82.927 142.972 83.299 143.481 L 83.299 143.481 L 83.299 143.481 C 83.905 144.401 84.714 145.427 85.731 146.559 L 85.731 146.559 L 85.731 146.559 C 86.291 147.476 86.402 148.043 86.08 148.247 L 86.08 148.247 L 86.08 148.247 C 85.942 148.247 85.781 148.196 85.597 148.094 L 85.597 148.094 L 85.597 148.094 C 84.48 147.585 83.299 146.097 82.053 143.633 L 82.053 143.633 L 82.053 143.633 C 80.802 141.178 80.154 138.362 80.108 135.186 L 80.108 135.186 L 80.108 135.186 C 79.966 134.054 79.893 133.126 79.893 132.406 L 79.893 132.406 L 79.893 132.406 C 79.893 129.026 80.358 126.003 81.286 123.332 Z M 72.184 203.763 L 72.184 203.763 L 72.184 203.763 C 72.184 204.895 72.234 206.02 72.326 207.151 L 72.326 207.151 L 72.326 207.151 C 72.79 211.044 73.944 212.99 75.801 212.99 L 75.801 212.99 L 75.801 212.99 C 78.528 212.99 81.401 208.94 84.415 200.846 L 84.415 200.846 L 84.415 200.846 C 88.857 188.85 92.539 173.984 95.454 156.248 L 95.454 156.248 L 95.454 156.248 C 87.353 162.087 80.94 171.568 76.219 184.692 L 76.219 184.692 L 76.219 184.692 C 73.531 191.972 72.184 198.328 72.184 203.763 Z M 108.72 190.997 L 108.72 190.997 L 113.376 191.928 L 113.376 191.928 C 114.393 191.928 115.172 191.699 115.705 191.233 L 115.705 191.233 L 115.705 191.233 C 116.23 190.771 116.629 190.644 116.882 190.841 L 116.882 190.841 L 116.882 190.841 C 117.135 191.048 117.078 191.433 116.713 191.997 L 116.713 191.997 L 116.713 191.997 C 116.341 192.561 115.724 192.998 114.868 193.307 L 114.868 193.307 L 114.868 193.307 C 114.009 193.62 113.491 193.871 113.307 194.071 L 113.307 194.071 L 113.307 194.071 C 114.043 194.69 114.857 195.567 115.735 196.694 L 115.735 196.694 L 119.417 201.763 L 119.417 201.763 C 120.525 196.021 121.316 191.513 121.776 188.232 L 121.776 188.232 L 121.776 188.232 C 121.5 188.541 121.127 188.77 120.667 188.923 L 120.667 188.923 L 120.667 188.923 C 120.203 189.08 119.973 188.799 119.973 188.075 L 119.973 188.075 L 119.973 188.075 C 119.973 187.362 120.25 186.798 120.805 186.38 L 120.805 186.38 L 122.336 185.463 L 122.336 185.463 C 123.076 180.752 123.897 175.039 124.802 168.323 L 124.802 168.323 L 124.802 168.323 C 125.703 161.607 126.156 158.198 126.156 158.096 L 126.156 158.096 L 126.156 158.096 C 128.933 138.409 131.338 126.003 133.378 120.88 L 133.378 120.88 L 133.378 120.88 C 135.415 115.754 137.29 112.424 139.008 110.889 L 139.008 110.889 L 139.008 110.889 C 140.719 109.346 142.015 108.575 142.893 108.575 L 142.893 108.575 L 142.893 108.575 C 145.348 108.575 147.292 110.728 148.731 115.036 L 148.731 115.036 L 148.731 115.036 C 149.701 118.009 150.189 121.753 150.189 126.265 L 150.189 126.265 L 150.189 126.265 C 150.189 134.767 148.881 143.226 146.265 151.635 L 146.265 151.635 L 146.265 151.635 C 143.646 160.038 140.485 167.144 136.784 172.936 L 136.784 172.936 L 136.784 172.936 C 133.079 178.721 129.232 183.152 125.247 186.238 L 125.247 186.238 L 125.247 186.238 C 123.863 193.514 122.543 199.506 121.289 204.229 L 121.289 204.229 L 121.289 204.229 C 128.376 214.275 133.401 220.372 136.362 222.526 L 136.362 222.526 L 136.362 222.526 C 139.791 225.084 143.054 226.364 146.157 226.364 L 146.157 226.364 L 146.157 226.364 C 149.54 226.364 152.336 224.316 154.557 220.216 L 154.557 220.216 L 154.557 220.216 C 155.723 218.164 156.302 216.013 156.302 213.766 L 156.302 213.766 L 156.302 213.766 C 156.302 211.509 156.099 209.509 155.711 207.77 L 155.711 207.77 L 155.711 207.77 C 155.312 206.02 155.347 205.069 155.811 204.92 L 155.811 204.92 L 155.811 204.92 C 156.272 204.768 156.644 205.306 156.923 206.529 L 156.923 206.529 L 156.923 206.529 C 157.613 209.916 157.963 213.405 157.963 216.996 L 157.963 216.996 L 157.963 216.996 C 157.963 217.607 157.963 218.222 157.963 218.83 L 157.963 218.83 L 157.963 218.83 C 157.916 222.734 157.104 226.172 155.535 229.144 L 155.535 229.144 L 155.535 229.144 C 153.686 232.622 150.836 234.365 146.989 234.365 L 146.989 234.365 L 146.989 234.365 C 144.401 234.365 142.119 233.598 140.147 232.066 L 140.147 232.066 L 140.147 232.066 C 138.18 230.523 136.63 229.268 135.495 228.297 L 135.495 228.297 L 135.495 228.297 C 134.36 227.318 132.945 225.626 131.257 223.221 L 131.257 223.221 L 131.257 223.221 C 129.566 220.809 128.376 219.095 127.682 218.069 L 127.682 218.069 L 127.682 218.069 C 126.294 216.017 123.932 212.223 120.594 206.685 L 120.594 206.685 L 120.594 206.685 C 118.19 215.912 116.057 220.525 114.205 220.525 L 114.205 220.525 L 114.205 220.525 C 113.744 220.525 113.469 220.347 113.376 219.99 L 113.376 219.99 L 113.376 219.99 C 113.28 219.63 113.296 219.295 113.411 218.986 L 113.411 218.986 L 113.411 218.986 C 113.522 218.681 113.652 218.535 113.791 218.535 L 113.791 218.535 L 113.791 218.535 C 115.321 218.222 117.035 213.456 118.934 204.229 L 118.934 204.229 L 118.934 204.229 C 116.341 200.431 114.163 197.866 112.402 196.538 L 112.402 196.538 L 112.402 196.538 C 110.826 197.971 109.74 198.685 109.138 198.685 L 109.138 198.685 L 109.138 198.685 C 108.536 198.685 108.145 198.634 107.957 198.532 L 107.957 198.532 L 107.957 198.532 C 107.171 197.92 106.776 196.847 106.776 195.311 L 106.776 195.311 L 106.776 195.311 C 106.776 193.158 107.378 191.721 108.578 190.997 L 108.578 190.997 L 108.578 190.997 C 108.578 190.997 108.628 190.997 108.72 190.997 Z M 147.339 123.332 L 147.339 123.332 L 147.339 123.332 C 147.339 115.546 146.019 111.649 143.377 111.649 L 143.377 111.649 L 143.377 111.649 C 141.014 111.649 139.004 114.316 137.336 119.65 L 137.336 119.65 L 137.336 119.65 C 135.484 125.387 134.141 130.743 133.309 135.72 L 133.309 135.72 L 133.309 135.72 C 132.477 140.687 131.871 144.35 131.499 146.711 L 131.499 146.711 L 131.499 146.711 C 130.574 152.456 129.861 157.684 129.351 162.396 L 129.351 162.396 L 129.351 162.396 C 127.82 171.83 126.708 178.339 126.014 181.923 L 126.014 181.923 L 126.014 181.923 C 131.338 176.593 135.936 169.363 139.799 160.242 L 139.799 160.242 L 139.799 160.242 C 143.668 151.117 146.088 140.81 147.059 129.328 L 147.059 129.328 L 147.059 129.328 C 147.247 127.185 147.339 125.184 147.339 123.332 Z M 151.228 156.713 L 151.228 156.713 L 151.228 156.713 C 152.382 156.713 153.08 157.531 153.31 159.166 L 153.31 159.166 L 153.31 159.166 C 153.403 160.086 153.345 160.988 153.134 161.862 L 153.134 161.862 L 153.134 161.862 C 152.931 162.727 152.777 163.418 152.685 163.935 L 152.685 163.935 L 152.685 163.935 C 152.593 164.444 152.524 164.855 152.478 165.162 L 152.478 165.162 L 152.478 165.162 C 152.244 166.187 152.014 167.162 151.784 168.083 L 151.784 168.083 L 151.784 168.083 C 149.145 179.776 147.753 187.209 147.619 190.389 L 147.619 190.389 L 147.619 190.389 C 147.569 191.306 147.55 192.489 147.55 193.919 L 147.55 193.919 L 147.55 193.919 C 147.55 195.356 147.73 196.538 148.102 197.458 L 148.102 197.458 L 148.102 197.458 C 148.746 199.103 149.674 199.205 150.879 197.768 L 150.879 197.768 L 150.879 197.768 C 152.083 196.327 153.759 193.46 155.914 189.163 L 155.914 189.163 L 155.914 189.163 C 158.07 184.851 159.815 180.65 161.157 176.549 L 161.157 176.549 L 161.157 176.549 C 161.342 176.033 161.553 175.901 161.783 176.167 L 161.783 176.167 L 161.783 176.167 C 162.013 176.421 162.136 176.677 162.136 176.931 L 162.136 176.931 L 162.136 176.931 C 162.136 177.186 162.086 177.466 161.993 177.775 L 161.993 177.775 L 161.993 177.775 C 161.296 180.544 160.046 184.08 158.243 188.385 L 158.243 188.385 L 158.243 188.385 C 155.278 195.461 152.801 199.819 150.814 201.46 L 150.814 201.46 L 150.814 201.46 C 149.652 202.385 148.677 202.843 147.891 202.843 L 147.891 202.843 L 147.891 202.843 C 146.039 202.843 144.815 200.893 144.213 196.989 L 144.213 196.989 L 144.213 196.989 C 144.121 196.279 144.079 195.407 144.079 194.38 L 144.079 194.38 L 144.079 194.38 C 144.079 190.796 144.815 185.369 146.291 178.084 L 146.291 178.084 L 146.291 178.084 C 146.065 179.216 145.16 181.777 143.584 185.776 L 143.584 185.776 L 143.584 185.776 C 143.166 186.802 142.847 186.802 142.617 185.776 L 142.617 185.776 L 142.617 185.776 C 142.568 185.568 142.544 185.284 142.544 184.928 L 142.544 184.928 L 142.544 184.928 C 142.544 184.572 142.637 184.135 142.824 183.615 L 142.824 183.615 L 142.824 183.615 C 145.095 177.364 146.875 172.081 148.171 167.773 L 148.171 167.773 L 148.171 167.773 C 148.075 167.268 148.129 166.602 148.313 165.784 L 148.313 165.784 L 148.313 165.784 C 149.237 160.038 150.05 157.015 150.741 156.713 L 150.741 156.713 L 150.741 156.713 C 150.879 156.713 151.04 156.713 151.228 156.713 Z M 156.712 136.255 L 156.712 136.255 L 156.156 141.178 L 156.156 141.178 C 156.156 142.102 155.857 143.59 155.255 145.635 L 155.255 145.635 L 155.255 145.635 C 154.653 147.687 154.193 148.717 153.871 148.717 L 153.871 148.717 L 153.871 148.717 C 151.876 148.717 150.879 147.636 150.879 145.481 L 150.879 145.481 L 150.879 145.481 C 150.879 145.07 151.876 143.171 153.871 139.796 L 153.871 139.796 L 155.048 137.79 L 155.048 137.79 C 155.788 136.353 156.248 135.637 156.436 135.637 L 156.436 135.637 L 156.436 135.637 C 156.62 135.637 156.712 135.84 156.712 136.255 Z M 179.564 155.629 L 179.564 155.629 L 179.564 155.629 C 180.63 155.629 181.159 156.885 181.159 159.394 L 181.159 159.394 L 181.159 159.394 C 181.159 161.909 180.63 165.369 179.564 169.779 L 179.564 169.779 L 179.564 169.779 C 178.498 174.187 177.707 177.775 177.201 180.544 L 177.201 180.544 L 177.201 180.544 C 176.326 185.263 175.882 189.029 175.882 191.845 L 175.882 191.845 L 175.882 191.845 C 175.882 194.665 176.07 196.538 176.442 197.458 L 176.442 197.458 L 176.442 197.458 C 177.132 199.103 178.083 199.183 179.288 197.694 L 179.288 197.694 L 179.288 197.694 C 180.492 196.204 182.168 193.329 184.319 189.076 L 184.319 189.076 L 184.319 189.076 C 186.479 184.826 188.201 180.65 189.497 176.549 L 189.497 176.549 L 189.497 176.549 C 189.682 176.033 189.9 175.901 190.157 176.167 L 190.157 176.167 L 190.157 176.167 C 190.41 176.421 190.533 176.677 190.533 176.931 L 190.533 176.931 L 190.533 176.931 C 190.533 177.186 190.491 177.466 190.398 177.775 L 190.398 177.775 L 190.398 177.775 C 189.704 180.544 188.454 184.08 186.648 188.385 L 186.648 188.385 L 186.648 188.385 C 184.845 192.692 183.108 196.152 181.439 198.768 L 181.439 198.768 L 181.439 198.768 C 179.774 201.38 178.129 202.686 176.511 202.686 L 176.511 202.686 L 176.511 202.686 C 174.93 202.588 173.822 201.795 173.174 200.307 L 173.174 200.307 L 173.174 200.307 C 172.526 198.819 172.204 196.95 172.204 194.69 L 172.204 194.69 L 172.204 194.69 C 172.204 192.434 172.296 190.259 172.476 188.159 L 172.476 188.159 L 172.476 188.159 C 172.664 186.052 173.013 183.615 173.523 180.85 L 173.523 180.85 L 173.523 180.85 C 174.355 176.44 175.084 173.009 175.709 170.553 L 175.709 170.553 L 175.709 170.553 C 176.33 168.086 176.645 166.475 176.645 165.699 L 176.645 165.699 L 176.645 165.699 C 176.645 164.936 176.461 164.554 176.089 164.554 L 176.089 164.554 L 176.089 164.554 C 175.349 164.554 173.941 166.554 171.854 170.553 L 171.854 170.553 L 171.854 170.553 C 170.416 173.526 168.299 179.132 165.503 187.384 L 165.503 187.384 L 165.503 187.384 C 162.699 195.643 161.116 200.024 160.74 200.533 L 160.74 200.533 L 160.74 200.533 C 159.075 202.377 158.032 203.298 157.613 203.298 L 157.613 203.298 L 157.613 203.298 C 157.2 203.298 156.996 203.145 156.996 202.843 L 156.996 202.843 L 156.996 202.843 C 156.996 202.534 157.039 202.097 157.13 201.537 L 157.13 201.537 L 157.13 201.537 C 157.222 200.97 157.671 198.178 158.488 193.154 L 158.488 193.154 L 158.488 193.154 C 159.293 188.134 160.176 182.618 161.123 176.619 L 161.123 176.619 L 161.123 176.619 C 162.07 170.626 162.654 167.013 162.86 165.784 L 162.86 165.784 L 162.86 165.784 C 163.071 164.554 163.206 163.499 163.275 162.625 L 163.275 162.625 L 163.275 162.625 C 163.344 161.76 163.425 161.018 163.516 160.395 L 163.516 160.395 L 163.516 160.395 C 163.608 159.788 163.785 159.093 164.038 158.321 L 164.038 158.321 L 164.038 158.321 C 164.295 157.554 164.629 157.139 165.047 157.092 L 165.047 157.092 L 165.047 157.092 C 165.461 157.037 165.998 157.139 166.646 157.405 L 166.646 157.405 L 166.646 157.405 C 167.29 157.659 167.616 158.3 167.616 159.326 L 167.616 159.326 L 167.616 159.326 C 167.616 160.038 167.36 161.6 166.849 164.008 L 166.849 164.008 L 166.849 164.008 C 166.347 166.424 164.886 174.705 162.477 188.85 L 162.477 188.85 L 162.477 188.85 C 164.145 184.335 166.251 179.128 168.802 173.234 L 168.802 173.234 L 168.802 173.234 C 171.348 167.348 173.496 162.862 175.253 159.788 L 175.253 159.788 L 175.253 159.788 C 177.017 157.015 178.455 155.629 179.564 155.629 Z M 221.304 177.775 L 221.304 177.775 C 220.614 180.544 219.36 184.08 217.553 188.385 L 217.553 188.385 L 217.553 188.385 C 215.751 192.692 214.128 196.029 212.694 198.386 L 212.694 198.386 L 212.694 198.386 C 210.841 201.358 208.828 202.843 206.653 202.843 L 206.653 202.843 L 206.653 202.843 C 206.235 202.843 205.69 202.407 205.019 201.537 L 205.019 201.537 L 205.019 201.537 C 204.348 200.663 203.895 199.405 203.665 197.768 L 203.665 197.768 L 203.665 197.768 C 203.431 196.13 203.312 194.541 203.312 192.998 L 203.312 192.998 L 203.312 192.998 C 203.312 187.664 203.78 182.385 204.708 177.157 L 204.708 177.157 L 204.708 177.157 C 204.566 177.364 203.934 179.544 202.794 183.698 L 202.794 183.698 L 202.794 183.698 C 201.663 187.846 200.271 191.768 198.629 195.454 L 198.629 195.454 L 198.629 195.454 C 196.984 199.146 195.331 200.998 193.663 200.998 L 193.663 200.998 L 193.663 200.998 C 192.88 200.998 191.975 200.536 190.955 199.616 L 190.955 199.616 L 190.955 199.616 C 189.102 197.771 188.178 194.388 188.178 189.458 L 188.178 189.458 L 188.178 189.458 C 188.178 183.411 189.114 177.186 190.986 170.779 L 190.986 170.779 L 190.986 170.779 C 192.868 164.375 194.062 160.963 194.571 160.551 L 194.571 160.551 L 194.571 160.551 C 195.262 160.144 195.922 159.94 196.543 159.94 L 196.543 159.94 L 196.543 159.94 C 197.172 159.94 197.805 160.228 198.457 160.792 L 198.457 160.792 L 198.457 160.792 C 199.101 161.348 199.009 162.291 198.177 163.626 L 198.177 163.626 L 198.177 163.626 C 194.982 170.084 192.711 177.265 191.369 185.154 L 191.369 185.154 L 191.369 185.154 C 190.859 188.232 190.606 190.822 190.606 192.928 L 190.606 192.928 L 190.606 192.928 C 190.606 195.025 190.851 196.381 191.334 196.989 L 191.334 196.989 L 191.334 196.989 C 191.822 197.611 192.297 197.92 192.758 197.92 L 192.758 197.92 L 192.758 197.92 C 193.873 197.92 195.388 196.206 197.306 192.772 L 197.306 192.772 L 197.306 192.772 C 199.228 189.338 201.882 182.189 205.261 171.314 L 205.261 171.314 L 205.261 171.314 C 205.725 169.782 206.534 166.784 207.692 162.327 L 207.692 162.327 L 207.692 162.327 C 208.851 157.859 209.545 155.214 209.779 154.399 L 209.779 154.399 L 209.779 154.399 C 210.519 154.399 211.386 154.781 212.379 155.557 L 212.379 155.557 L 212.379 155.557 C 213.377 156.327 213.71 157.324 213.388 158.547 L 213.388 158.547 L 213.388 158.547 C 211.163 166.748 209.603 172.802 208.701 176.702 L 208.701 176.702 L 208.701 176.702 C 207.796 180.599 207.182 185.158 206.86 190.389 L 206.86 190.389 L 206.86 190.389 C 206.814 191.306 206.787 192.489 206.787 193.919 L 206.787 193.919 L 206.787 193.919 C 206.787 195.356 206.975 196.538 207.343 197.458 L 207.343 197.458 L 207.343 197.458 C 208.041 199.103 209.004 199.183 210.224 197.694 L 210.224 197.694 L 210.224 197.694 C 211.455 196.204 213.135 193.329 215.267 189.076 L 215.267 189.076 L 215.267 189.076 C 217.396 184.826 219.102 180.65 220.403 176.549 L 220.403 176.549 L 220.403 176.549 C 220.587 176.033 220.809 175.901 221.063 176.167 L 221.063 176.167 L 221.063 176.167 C 221.316 176.421 221.446 176.677 221.446 176.931 L 221.446 176.931 L 221.446 176.931 C 221.446 177.186 221.396 177.466 221.304 177.775 L 221.304 177.775 Z M 246.445 158.699 L 246.445 158.699 L 246.445 158.699 C 246.445 159.933 245.916 160.551 244.854 160.551 L 244.854 160.551 L 244.854 160.551 C 242.445 162.6 240.244 165.522 238.253 169.309 L 238.253 169.309 L 233.251 177.932 L 233.251 177.932 C 233.251 180.901 234.107 185.819 235.825 192.689 L 235.825 192.689 L 235.825 192.689 C 236.607 196.076 237.616 197.768 238.844 197.768 L 238.844 197.768 L 238.844 197.768 C 240.071 197.768 241.517 195.872 243.181 192.081 L 243.181 192.081 L 243.181 192.081 C 243.971 190.236 245.87 185.059 248.881 176.549 L 248.881 176.549 L 248.881 176.549 C 249.111 175.927 249.326 175.775 249.537 176.084 L 249.537 176.084 L 249.537 176.084 C 249.743 176.396 249.851 176.698 249.851 177 L 249.851 177 L 249.851 177 C 249.851 177.31 249.805 177.674 249.713 178.084 L 249.713 178.084 L 249.713 178.084 C 247.58 185.263 245.452 191.106 243.323 195.61 L 243.323 195.61 L 243.323 195.61 C 241.149 200.02 239.131 202.228 237.278 202.228 L 237.278 202.228 L 237.278 202.228 C 236.907 202.228 236.539 202.123 236.166 201.915 L 236.166 201.915 L 236.166 201.915 C 233.854 200.787 231.886 194.846 230.263 184.08 L 230.263 184.08 L 230.263 184.08 C 220.821 205.302 216.004 220.27 215.82 228.988 L 215.82 228.988 L 215.82 228.988 C 215.82 230.221 215.658 230.836 215.332 230.836 L 215.332 230.836 L 214.988 230.527 L 214.988 230.527 C 214.799 230.112 214.707 229.599 214.707 228.988 L 214.707 228.988 L 214.707 228.988 C 214.707 223.45 215.938 216.756 218.393 208.915 L 218.393 208.915 L 218.393 208.915 C 220.844 201.068 223.295 194.279 225.749 188.541 L 225.749 188.541 L 225.749 188.541 C 228.204 182.803 229.431 179.78 229.431 179.467 L 229.431 179.467 L 229.431 179.467 C 229.431 177.004 229.109 174.519 228.457 172.005 L 228.457 172.005 L 228.457 172.005 C 227.809 169.495 227.28 168.061 226.865 167.705 L 226.865 167.705 L 226.865 167.705 C 226.444 167.348 226.003 167.472 225.542 168.083 L 225.542 168.083 L 225.542 168.083 C 224.802 169.109 224.05 170.728 223.283 172.936 L 223.283 172.936 L 223.283 172.936 C 222.52 175.138 222.079 176.396 221.964 176.702 L 221.964 176.702 L 221.964 176.702 C 221.849 177.004 221.699 177.415 221.511 177.932 L 221.511 177.932 L 221.511 177.932 C 221.331 178.441 221.12 178.976 220.886 179.544 L 220.886 179.544 L 220.886 179.544 C 220.66 180.104 220.418 180.362 220.165 180.315 L 220.165 180.315 L 220.165 180.315 C 219.908 180.256 219.778 179.98 219.778 179.467 L 219.778 179.467 L 219.778 179.467 C 219.778 178.951 219.87 178.412 220.054 177.848 L 220.054 177.848 L 220.054 177.848 C 220.242 177.284 220.783 175.669 221.684 173.009 L 221.684 173.009 L 221.684 173.009 C 222.589 170.346 223.356 168.116 223.977 166.322 L 223.977 166.322 L 223.977 166.322 C 224.603 164.521 225.343 162.807 226.202 161.17 L 226.202 161.17 L 226.202 161.17 C 227.057 159.526 227.809 158.699 228.457 158.699 L 228.457 158.699 L 228.457 158.699 C 229.109 158.699 229.711 159.213 230.263 160.242 L 230.263 160.242 L 230.263 160.242 C 230.82 161.265 231.188 162.291 231.376 163.313 L 231.376 163.313 L 231.376 163.313 C 231.564 164.343 231.828 166.162 232.17 168.777 L 232.17 168.777 L 232.17 168.777 C 232.523 171.39 232.765 173.158 232.906 174.082 L 232.906 174.082 L 232.906 174.082 C 236.377 166.496 239.849 160.297 243.323 155.472 L 243.323 155.472 L 243.323 155.472 C 243.692 155.171 244.04 155.018 244.362 155.018 L 244.362 155.018 L 245.41 155.472 L 245.41 155.472 C 246.1 156.197 246.445 157.273 246.445 158.699 Z" style="white-space: pre; fill: rgb(97, 12, 57);"/>
</svg>