<?xml version="1.0" encoding="utf-8"?>
<svg viewBox="0 0 500 500" xmlns="http://www.w3.org/2000/svg">
  <path d="M 75.286 116.198 L 75.286 116.198 L 75.286 116.198 C 76.239 113.604 77.927 111.831 80.348 110.878 L 80.348 110.878 L 80.348 110.878 C 81.397 110.509 82.473 110.324 83.574 110.324 L 83.574 110.324 L 83.574 110.324 C 84.673 110.324 85.808 110.535 86.981 110.958 L 86.981 110.958 L 86.981 110.958 C 87.618 109.423 88.266 108.655 88.925 108.655 L 88.925 108.655 L 88.925 108.655 C 89.096 108.655 89.212 108.748 89.275 108.932 L 89.275 108.932 L 89.275 108.932 C 89.336 109.117 89.329 109.316 89.255 109.53 L 89.255 109.53 L 89.255 109.53 C 89.181 109.739 89.016 109.938 88.761 110.127 L 88.761 110.127 L 88.761 110.127 C 88.505 110.311 88.206 110.722 87.863 111.358 L 87.863 111.358 L 87.863 111.358 C 88.694 111.884 89.268 112.319 89.585 112.664 L 89.585 112.664 L 89.585 112.664 C 89.903 113.009 90.142 113.446 90.301 113.976 L 90.301 113.976 L 90.301 113.976 C 90.46 114.505 90.54 114.876 90.54 115.09 L 90.54 115.09 L 90.54 115.09 C 90.54 115.566 90.204 115.566 89.531 115.09 L 89.531 115.09 L 89.531 115.09 C 88.858 114.614 88.07 114.242 87.166 113.976 L 87.166 113.976 L 87.166 113.976 C 86.726 116.254 86.262 119.378 85.774 123.348 L 85.774 123.348 L 85.774 123.348 C 85.285 127.322 84.991 129.705 84.893 130.498 L 84.893 130.498 L 84.893 130.498 C 86.213 129.812 87.099 129.469 87.55 129.469 L 87.55 129.469 L 87.55 129.469 C 88.003 129.469 88.278 129.535 88.377 129.666 L 88.377 129.666 L 88.377 129.666 C 88.474 129.797 88.528 129.97 88.542 130.183 L 88.542 130.183 L 88.542 130.183 C 88.553 130.393 88.534 130.565 88.485 130.701 L 88.485 130.701 L 88.485 130.701 C 88.435 130.832 88.356 130.844 88.246 130.738 L 88.246 130.738 L 88.246 130.738 C 88.136 130.631 87.936 130.577 87.644 130.577 L 87.644 130.577 L 87.644 130.577 C 87.35 130.577 86.8 130.803 85.992 131.255 L 85.992 131.255 L 85.992 131.255 C 85.185 131.706 84.709 132.382 84.563 133.281 L 84.563 133.281 L 84.563 133.281 C 82.314 146.681 79.454 156.002 75.982 161.245 L 75.982 161.245 L 75.982 161.245 C 74.444 163.626 73.039 164.816 71.768 164.816 L 71.768 164.816 L 71.768 164.816 C 71.304 164.816 70.863 164.658 70.446 164.342 L 70.446 164.342 L 70.446 164.342 C 69.202 163.443 68.579 161.443 68.579 158.344 L 68.579 158.344 L 68.579 158.344 C 68.579 155.244 69.324 151.841 70.816 148.134 L 70.816 148.134 L 70.816 148.134 C 73.821 140.666 77.877 135.185 82.985 131.692 L 82.985 131.692 L 82.985 131.692 C 83.059 131.216 83.291 129.654 83.682 127.006 L 83.682 127.006 L 83.682 127.006 C 84.538 120.967 85.333 116.57 86.066 113.816 L 86.066 113.816 L 86.066 113.816 C 85.772 113.816 85.332 113.816 84.745 113.816 L 84.745 113.816 L 84.745 113.816 C 84.159 113.816 83.329 113.949 82.252 114.215 L 82.252 114.215 L 82.252 114.215 C 79.492 114.905 77.524 116.414 76.349 118.742 L 76.349 118.742 L 76.349 118.742 C 75.739 120.015 75.434 121.472 75.434 123.114 L 75.434 123.114 L 75.434 123.114 C 75.434 123.907 75.538 124.621 75.747 125.257 L 75.747 125.257 L 75.747 125.257 C 75.953 125.893 76.154 126.343 76.349 126.606 L 76.349 126.606 L 76.349 126.606 C 76.668 127.082 77.096 127.611 77.634 128.195 L 77.634 128.195 L 77.634 128.195 C 77.928 128.67 77.988 128.962 77.816 129.069 L 77.816 129.069 L 77.816 129.069 C 77.744 129.069 77.659 129.042 77.56 128.989 L 77.56 128.989 L 77.56 128.989 C 76.974 128.726 76.351 127.958 75.69 126.686 L 75.69 126.686 L 75.69 126.686 C 75.031 125.417 74.689 123.962 74.664 122.32 L 74.664 122.32 L 74.664 122.32 C 74.59 121.736 74.553 121.258 74.553 120.885 L 74.553 120.885 L 74.553 120.885 C 74.553 119.14 74.797 117.578 75.286 116.198 Z M 70.483 157.747 L 70.483 157.747 L 70.483 157.747 C 70.483 158.33 70.508 158.912 70.557 159.496 L 70.557 159.496 L 70.557 159.496 C 70.802 161.507 71.412 162.513 72.39 162.513 L 72.39 162.513 L 72.39 162.513 C 73.832 162.513 75.348 160.421 76.938 156.238 L 76.938 156.238 L 76.938 156.238 C 79.283 150.043 81.226 142.364 82.766 133.201 L 82.766 133.201 L 82.766 133.201 C 78.489 136.218 75.104 141.116 72.612 147.894 L 72.612 147.894 L 72.612 147.894 C 71.193 151.655 70.483 154.939 70.483 157.747 Z M 89.768 151.152 L 89.768 151.152 L 92.224 151.632 L 92.224 151.632 C 92.762 151.632 93.172 151.513 93.454 151.274 L 93.454 151.274 L 93.454 151.274 C 93.734 151.036 93.942 150.969 94.077 151.071 L 94.077 151.071 L 94.077 151.071 C 94.211 151.178 94.181 151.378 93.986 151.669 L 93.986 151.669 L 93.986 151.669 C 93.79 151.96 93.466 152.186 93.014 152.346 L 93.014 152.346 L 93.014 152.346 C 92.561 152.506 92.286 152.637 92.189 152.74 L 92.189 152.74 L 92.189 152.74 C 92.58 153.06 93.007 153.512 93.471 154.095 L 93.471 154.095 L 95.415 156.712 L 95.415 156.712 C 96.001 153.748 96.416 151.418 96.66 149.723 L 96.66 149.723 L 96.66 149.723 C 96.514 149.883 96.319 150.002 96.075 150.08 L 96.075 150.08 L 96.075 150.08 C 95.83 150.162 95.708 150.016 95.708 149.643 L 95.708 149.643 L 95.708 149.643 C 95.708 149.273 95.854 148.982 96.148 148.768 L 96.148 148.768 L 96.956 148.294 L 96.956 148.294 C 97.346 145.86 97.78 142.908 98.257 139.439 L 98.257 139.439 L 98.257 139.439 C 98.733 135.97 98.971 134.209 98.971 134.155 L 98.971 134.155 L 98.971 134.155 C 100.437 123.987 101.708 117.578 102.785 114.93 L 102.785 114.93 L 102.785 114.93 C 103.859 112.282 104.849 110.562 105.755 109.77 L 105.755 109.77 L 105.755 109.77 C 106.659 108.974 107.342 108.575 107.807 108.575 L 107.807 108.575 L 107.807 108.575 C 109.103 108.575 110.129 109.688 110.888 111.913 L 110.888 111.913 L 110.888 111.913 C 111.401 113.448 111.658 115.382 111.658 117.713 L 111.658 117.713 L 111.658 117.713 C 111.658 122.106 110.967 126.474 109.586 130.818 L 109.586 130.818 L 109.586 130.818 C 108.204 135.161 106.536 138.829 104.581 141.822 L 104.581 141.822 L 104.581 141.822 C 102.625 144.81 100.596 147.101 98.493 148.694 L 98.493 148.694 L 98.493 148.694 C 97.76 152.451 97.064 155.548 96.404 157.987 L 96.404 157.987 L 96.404 157.987 C 100.144 163.176 102.796 166.326 104.359 167.439 L 104.359 167.439 L 104.359 167.439 C 106.169 168.761 107.892 169.422 109.529 169.422 L 109.529 169.422 L 109.529 169.422 C 111.314 169.422 112.792 168.363 113.965 166.245 L 113.965 166.245 L 113.965 166.245 C 114.578 165.185 114.883 164.075 114.883 162.913 L 114.883 162.913 L 114.883 162.913 C 114.883 161.748 114.779 160.715 114.571 159.816 L 114.571 159.816 L 114.571 159.816 C 114.362 158.912 114.38 158.422 114.625 158.344 L 114.625 158.344 L 114.625 158.344 C 114.869 158.266 115.065 158.543 115.213 159.175 L 115.213 159.175 L 115.213 159.175 C 115.579 160.924 115.762 162.727 115.762 164.582 L 115.762 164.582 L 115.762 164.582 C 115.762 164.898 115.762 165.215 115.762 165.53 L 115.762 165.53 L 115.762 165.53 C 115.737 167.546 115.309 169.322 114.48 170.857 L 114.48 170.857 L 114.48 170.857 C 113.502 172.655 111.999 173.554 109.969 173.554 L 109.969 173.554 L 109.969 173.554 C 108.601 173.554 107.397 173.158 106.357 172.366 L 106.357 172.366 L 106.357 172.366 C 105.319 171.57 104.5 170.921 103.901 170.42 L 103.901 170.42 L 103.901 170.42 C 103.303 169.915 102.557 169.04 101.665 167.797 L 101.665 167.797 L 101.665 167.797 C 100.773 166.552 100.144 165.666 99.778 165.136 L 99.778 165.136 L 99.778 165.136 C 99.045 164.077 97.798 162.117 96.037 159.255 L 96.037 159.255 L 96.037 159.255 C 94.766 164.022 93.642 166.405 92.664 166.405 L 92.664 166.405 L 92.664 166.405 C 92.42 166.405 92.273 166.313 92.224 166.128 L 92.224 166.128 L 92.224 166.128 C 92.176 165.943 92.183 165.77 92.244 165.61 L 92.244 165.61 L 92.244 165.61 C 92.304 165.454 92.371 165.376 92.445 165.376 L 92.445 165.376 L 92.445 165.376 C 93.253 165.216 94.157 162.753 95.159 157.987 L 95.159 157.987 L 95.159 157.987 C 93.79 156.024 92.64 154.7 91.712 154.015 L 91.712 154.015 L 91.712 154.015 C 90.88 154.754 90.306 155.123 89.99 155.123 L 89.99 155.123 L 89.99 155.123 C 89.672 155.123 89.463 155.097 89.365 155.043 L 89.365 155.043 L 89.365 155.043 C 88.95 154.728 88.742 154.173 88.742 153.381 L 88.742 153.381 L 88.742 153.381 C 88.742 152.268 89.059 151.525 89.694 151.152 L 89.694 151.152 L 89.694 151.152 C 89.694 151.152 89.718 151.152 89.768 151.152 Z M 110.154 116.198 L 110.154 116.198 L 110.154 116.198 C 110.154 112.176 109.457 110.164 108.062 110.164 L 108.062 110.164 L 108.062 110.164 C 106.815 110.164 105.753 111.541 104.874 114.296 L 104.874 114.296 L 104.874 114.296 C 103.896 117.26 103.187 120.027 102.748 122.597 L 102.748 122.597 L 102.748 122.597 C 102.308 125.163 101.99 127.055 101.793 128.274 L 101.793 128.274 L 101.793 128.274 C 101.304 131.242 100.926 133.944 100.659 136.379 L 100.659 136.379 L 100.659 136.379 C 99.852 141.251 99.264 144.614 98.897 146.465 L 98.897 146.465 L 98.897 146.465 C 101.708 143.711 104.135 139.976 106.175 135.264 L 106.175 135.264 L 106.175 135.264 C 108.216 130.551 109.493 125.228 110.006 119.296 L 110.006 119.296 L 110.006 119.296 C 110.105 118.188 110.154 117.155 110.154 116.198 Z M 112.205 133.441 L 112.205 133.441 L 112.205 133.441 C 112.817 133.441 113.183 133.864 113.305 134.709 L 113.305 134.709 L 113.305 134.709 C 113.354 135.185 113.324 135.65 113.214 136.101 L 113.214 136.101 L 113.214 136.101 C 113.104 136.549 113.024 136.906 112.975 137.173 L 112.975 137.173 L 112.975 137.173 C 112.927 137.436 112.891 137.647 112.867 137.807 L 112.867 137.807 L 112.867 137.807 C 112.743 138.336 112.621 138.84 112.5 139.316 L 112.5 139.316 L 112.5 139.316 C 111.106 145.355 110.373 149.195 110.301 150.837 L 110.301 150.837 L 110.301 150.837 C 110.276 151.313 110.264 151.921 110.264 152.66 L 110.264 152.66 L 110.264 152.66 C 110.264 153.404 110.361 154.013 110.556 154.489 L 110.556 154.489 L 110.556 154.489 C 110.898 155.339 111.386 155.392 112.023 154.649 L 112.023 154.649 L 112.023 154.649 C 112.658 153.906 113.543 152.424 114.68 150.203 L 114.68 150.203 L 114.68 150.203 C 115.817 147.978 116.739 145.806 117.448 143.688 L 117.448 143.688 L 117.448 143.688 C 117.547 143.421 117.656 143.355 117.778 143.491 L 117.778 143.491 L 117.778 143.491 C 117.901 143.622 117.963 143.754 117.963 143.885 L 117.963 143.885 L 117.963 143.885 C 117.963 144.016 117.938 144.162 117.889 144.322 L 117.889 144.322 L 117.889 144.322 C 117.521 145.751 116.861 147.578 115.908 149.803 L 115.908 149.803 L 115.908 149.803 C 114.345 153.457 113.037 155.708 111.986 156.558 L 111.986 156.558 L 111.986 156.558 C 111.374 157.034 110.86 157.272 110.445 157.272 L 110.445 157.272 L 110.445 157.272 C 109.468 157.272 108.821 156.264 108.504 154.249 L 108.504 154.249 L 108.504 154.249 C 108.455 153.879 108.431 153.43 108.431 152.9 L 108.431 152.9 L 108.431 152.9 C 108.431 151.048 108.821 148.243 109.601 144.482 L 109.601 144.482 L 109.601 144.482 C 109.48 145.065 109.003 146.389 108.172 148.454 L 108.172 148.454 L 108.172 148.454 C 107.952 148.984 107.782 148.984 107.66 148.454 L 107.66 148.454 L 107.66 148.454 C 107.635 148.348 107.623 148.202 107.623 148.017 L 107.623 148.017 L 107.623 148.017 C 107.623 147.832 107.672 147.606 107.771 147.339 L 107.771 147.339 L 107.771 147.339 C 108.969 144.109 109.909 141.381 110.593 139.156 L 110.593 139.156 L 110.593 139.156 C 110.544 138.893 110.569 138.55 110.667 138.127 L 110.667 138.127 L 110.667 138.127 C 111.156 135.159 111.583 133.597 111.949 133.441 L 111.949 133.441 L 111.949 133.441 C 112.023 133.441 112.108 133.441 112.205 133.441 Z M 115.101 122.874 L 115.101 122.874 L 114.808 125.417 L 114.808 125.417 C 114.808 125.893 114.65 126.661 114.333 127.72 L 114.333 127.72 L 114.333 127.72 C 114.015 128.779 113.771 129.309 113.6 129.309 L 113.6 129.309 L 113.6 129.309 C 112.549 129.309 112.023 128.753 112.023 127.64 L 112.023 127.64 L 112.023 127.64 C 112.023 127.427 112.549 126.447 113.6 124.703 L 113.6 124.703 L 114.222 123.668 L 114.222 123.668 C 114.613 122.925 114.857 122.554 114.956 122.554 L 114.956 122.554 L 114.956 122.554 C 115.053 122.554 115.101 122.66 115.101 122.874 Z M 127.164 132.881 L 127.164 132.881 L 127.164 132.881 C 127.726 132.881 128.007 133.529 128.007 134.826 L 128.007 134.826 L 128.007 134.826 C 128.007 136.124 127.726 137.912 127.164 140.19 L 127.164 140.19 L 127.164 140.19 C 126.601 142.469 126.185 144.322 125.918 145.751 L 125.918 145.751 L 125.918 145.751 C 125.454 148.189 125.222 150.135 125.222 151.589 L 125.222 151.589 L 125.222 151.589 C 125.222 153.046 125.32 154.013 125.515 154.489 L 125.515 154.489 L 125.515 154.489 C 125.881 155.339 126.382 155.38 127.018 154.612 L 127.018 154.612 L 127.018 154.612 C 127.653 153.841 128.539 152.357 129.676 150.16 L 129.676 150.16 L 129.676 150.16 C 130.813 147.964 131.723 145.806 132.407 143.688 L 132.407 143.688 L 132.407 143.688 C 132.504 143.421 132.619 143.355 132.754 143.491 L 132.754 143.491 L 132.754 143.491 C 132.888 143.622 132.955 143.754 132.955 143.885 L 132.955 143.885 L 132.955 143.885 C 132.955 144.016 132.932 144.162 132.884 144.322 L 132.884 144.322 L 132.884 144.322 C 132.517 145.751 131.856 147.578 130.904 149.803 L 130.904 149.803 L 130.904 149.803 C 129.951 152.028 129.035 153.816 128.155 155.166 L 128.155 155.166 L 128.155 155.166 C 127.274 156.517 126.407 157.192 125.552 157.192 L 125.552 157.192 L 125.552 157.192 C 124.72 157.139 124.133 156.729 123.79 155.961 L 123.79 155.961 L 123.79 155.961 C 123.449 155.193 123.278 154.226 123.278 153.06 L 123.278 153.06 L 123.278 153.06 C 123.278 151.895 123.327 150.77 123.424 149.686 L 123.424 149.686 L 123.424 149.686 C 123.522 148.598 123.705 147.339 123.975 145.911 L 123.975 145.911 L 123.975 145.911 C 124.414 143.633 124.799 141.859 125.128 140.591 L 125.128 140.591 L 125.128 140.591 C 125.458 139.318 125.623 138.483 125.623 138.084 L 125.623 138.084 L 125.623 138.084 C 125.623 137.69 125.526 137.493 125.33 137.493 L 125.33 137.493 L 125.33 137.493 C 124.94 137.493 124.194 138.526 123.094 140.591 L 123.094 140.591 L 123.094 140.591 C 122.336 142.126 121.218 145.024 119.74 149.286 L 119.74 149.286 L 119.74 149.286 C 118.262 153.551 117.424 155.815 117.228 156.078 L 117.228 156.078 L 117.228 156.078 C 116.348 157.031 115.799 157.506 115.579 157.506 L 115.579 157.506 L 115.579 157.506 C 115.359 157.506 115.25 157.428 115.25 157.272 L 115.25 157.272 L 115.25 157.272 C 115.25 157.112 115.273 156.886 115.321 156.595 L 115.321 156.595 L 115.321 156.595 C 115.37 156.304 115.608 154.86 116.037 152.266 L 116.037 152.266 L 116.037 152.266 C 116.465 149.672 116.929 146.824 117.429 143.725 L 117.429 143.725 L 117.429 143.725 C 117.931 140.629 118.237 138.763 118.348 138.127 L 118.348 138.127 L 118.348 138.127 C 118.457 137.491 118.53 136.947 118.566 136.496 L 118.566 136.496 L 118.566 136.496 C 118.602 136.048 118.645 135.664 118.694 135.344 L 118.694 135.344 L 118.694 135.344 C 118.743 135.028 118.835 134.671 118.97 134.272 L 118.97 134.272 L 118.97 134.272 C 119.104 133.874 119.281 133.662 119.501 133.638 L 119.501 133.638 L 119.501 133.638 C 119.721 133.609 120.003 133.662 120.345 133.798 L 120.345 133.798 L 120.345 133.798 C 120.686 133.929 120.857 134.26 120.857 134.79 L 120.857 134.79 L 120.857 134.79 C 120.857 135.159 120.722 135.966 120.453 137.21 L 120.453 137.21 L 120.453 137.21 C 120.186 138.458 119.417 142.735 118.145 150.043 L 118.145 150.043 L 118.145 150.043 C 119.024 147.711 120.137 145.022 121.482 141.976 L 121.482 141.976 L 121.482 141.976 C 122.826 138.934 123.961 136.618 124.89 135.03 L 124.89 135.03 L 124.89 135.03 C 125.82 133.597 126.578 132.881 127.164 132.881 Z M 149.198 144.322 L 149.198 144.322 C 148.832 145.751 148.172 147.578 147.217 149.803 L 147.217 149.803 L 147.217 149.803 C 146.264 152.028 145.409 153.75 144.651 154.969 L 144.651 154.969 L 144.651 154.969 C 143.673 156.505 142.61 157.272 141.462 157.272 L 141.462 157.272 L 141.462 157.272 C 141.242 157.272 140.955 157.046 140.601 156.595 L 140.601 156.595 L 140.601 156.595 C 140.246 156.144 140.008 155.495 139.885 154.649 L 139.885 154.649 L 139.885 154.649 C 139.763 153.804 139.702 152.982 139.702 152.186 L 139.702 152.186 L 139.702 152.186 C 139.702 149.431 139.947 146.704 140.436 144.002 L 140.436 144.002 L 140.436 144.002 C 140.362 144.109 140.026 145.235 139.427 147.383 L 139.427 147.383 L 139.427 147.383 C 138.828 149.525 138.095 151.55 137.227 153.455 L 137.227 153.455 L 137.227 153.455 C 136.359 155.363 135.486 156.318 134.607 156.318 L 134.607 156.318 L 134.607 156.318 C 134.192 156.318 133.715 156.08 133.177 155.604 L 133.177 155.604 L 133.177 155.604 C 132.199 154.651 131.711 152.902 131.711 150.357 L 131.711 150.357 L 131.711 150.357 C 131.711 147.233 132.205 144.016 133.194 140.708 L 133.194 140.708 L 133.194 140.708 C 134.186 137.399 134.815 135.637 135.084 135.424 L 135.084 135.424 L 135.084 135.424 C 135.45 135.215 135.798 135.11 136.128 135.11 L 136.128 135.11 L 136.128 135.11 C 136.457 135.11 136.793 135.256 137.136 135.547 L 137.136 135.547 L 137.136 135.547 C 137.479 135.835 137.43 136.323 136.988 137.012 L 136.988 137.012 L 136.988 137.012 C 135.302 140.35 134.104 144.058 133.396 148.134 L 133.396 148.134 L 133.396 148.134 C 133.127 149.723 132.993 151.061 132.993 152.149 L 132.993 152.149 L 132.993 152.149 C 132.993 153.233 133.121 153.933 133.379 154.249 L 133.379 154.249 L 133.379 154.249 C 133.635 154.569 133.885 154.729 134.13 154.729 L 134.13 154.729 L 134.13 154.729 C 134.717 154.729 135.517 153.843 136.531 152.069 L 136.531 152.069 L 136.531 152.069 C 137.544 150.295 138.944 146.601 140.729 140.985 L 140.729 140.985 L 140.729 140.985 C 140.973 140.192 141.401 138.644 142.013 136.341 L 142.013 136.341 L 142.013 136.341 C 142.623 134.034 142.99 132.669 143.113 132.246 L 143.113 132.246 L 143.113 132.246 C 143.503 132.246 143.961 132.445 144.486 132.844 L 144.486 132.844 L 144.486 132.844 C 145.013 133.242 145.19 133.757 145.017 134.389 L 145.017 134.389 L 145.017 134.389 C 143.844 138.626 143.02 141.752 142.545 143.768 L 142.545 143.768 L 142.545 143.768 C 142.067 145.78 141.743 148.136 141.573 150.837 L 141.573 150.837 L 141.573 150.837 C 141.548 151.313 141.536 151.921 141.536 152.66 L 141.536 152.66 L 141.536 152.66 C 141.536 153.404 141.633 154.013 141.828 154.489 L 141.828 154.489 L 141.828 154.489 C 142.196 155.339 142.703 155.38 143.349 154.612 L 143.349 154.612 L 143.349 154.612 C 143.997 153.841 144.884 152.357 146.009 150.16 L 146.009 150.16 L 146.009 150.16 C 147.133 147.964 148.036 145.806 148.721 143.688 L 148.721 143.688 L 148.721 143.688 C 148.819 143.421 148.936 143.355 149.07 143.491 L 149.07 143.491 L 149.07 143.491 C 149.204 143.622 149.272 143.754 149.272 143.885 L 149.272 143.885 L 149.272 143.885 C 149.272 144.016 149.247 144.162 149.198 144.322 L 149.198 144.322 Z M 162.469 134.469 L 162.469 134.469 L 162.469 134.469 C 162.469 135.106 162.188 135.424 161.627 135.424 L 161.627 135.424 L 161.627 135.424 C 160.356 136.483 159.195 137.992 158.143 139.95 L 158.143 139.95 L 155.503 144.402 L 155.503 144.402 C 155.503 145.937 155.955 148.479 156.862 152.026 L 156.862 152.026 L 156.862 152.026 C 157.276 153.775 157.808 154.649 158.456 154.649 L 158.456 154.649 L 158.456 154.649 C 159.104 154.649 159.868 153.67 160.746 151.712 L 160.746 151.712 L 160.746 151.712 C 161.161 150.759 162.164 148.085 163.753 143.688 L 163.753 143.688 L 163.753 143.688 C 163.875 143.368 163.99 143.288 164.1 143.448 L 164.1 143.448 L 164.1 143.448 C 164.21 143.608 164.265 143.766 164.265 143.922 L 164.265 143.922 L 164.265 143.922 C 164.265 144.082 164.241 144.269 164.194 144.482 L 164.194 144.482 L 164.194 144.482 C 163.069 148.189 161.944 151.207 160.82 153.535 L 160.82 153.535 L 160.82 153.535 C 159.672 155.813 158.608 156.952 157.629 156.952 L 157.629 156.952 L 157.629 156.952 C 157.433 156.952 157.238 156.899 157.043 156.792 L 157.043 156.792 L 157.043 156.792 C 155.821 156.209 154.783 153.139 153.928 147.58 L 153.928 147.58 L 153.928 147.58 C 148.941 158.541 146.399 166.274 146.3 170.777 L 146.3 170.777 L 146.3 170.777 C 146.3 171.413 146.215 171.732 146.044 171.732 L 146.044 171.732 L 145.862 171.572 L 145.862 171.572 C 145.764 171.358 145.715 171.093 145.715 170.777 L 145.715 170.777 L 145.715 170.777 C 145.715 167.915 146.363 164.459 147.659 160.407 L 147.659 160.407 L 147.659 160.407 C 148.953 156.355 150.248 152.847 151.544 149.883 L 151.544 149.883 L 151.544 149.883 C 152.84 146.919 153.488 145.357 153.488 145.197 L 153.488 145.197 L 153.488 145.197 C 153.488 143.924 153.317 142.639 152.974 141.342 L 152.974 141.342 L 152.974 141.342 C 152.632 140.044 152.352 139.303 152.132 139.119 L 152.132 139.119 L 152.132 139.119 C 151.91 138.934 151.678 139 151.433 139.316 L 151.433 139.316 L 151.433 139.316 C 151.043 139.845 150.646 140.681 150.242 141.822 L 150.242 141.822 L 150.242 141.822 C 149.839 142.96 149.606 143.608 149.546 143.768 L 149.546 143.768 L 149.546 143.768 C 149.485 143.924 149.406 144.136 149.307 144.402 L 149.307 144.402 L 149.307 144.402 C 149.21 144.665 149.1 144.942 148.977 145.234 L 148.977 145.234 L 148.977 145.234 C 148.856 145.525 148.728 145.659 148.594 145.634 L 148.594 145.634 L 148.594 145.634 C 148.459 145.605 148.392 145.46 148.392 145.197 L 148.392 145.197 L 148.392 145.197 C 148.392 144.93 148.44 144.65 148.537 144.359 L 148.537 144.359 L 148.537 144.359 C 148.636 144.068 148.923 143.234 149.398 141.859 L 149.398 141.859 L 149.398 141.859 C 149.876 140.484 150.279 139.332 150.609 138.405 L 150.609 138.405 L 150.609 138.405 C 150.938 137.476 151.33 136.59 151.783 135.744 L 151.783 135.744 L 151.783 135.744 C 152.235 134.894 152.632 134.469 152.974 134.469 L 152.974 134.469 L 152.974 134.469 C 153.317 134.469 153.635 134.734 153.928 135.264 L 153.928 135.264 L 153.928 135.264 C 154.22 135.793 154.415 136.323 154.514 136.852 L 154.514 136.852 L 154.514 136.852 C 154.612 137.382 154.753 138.322 154.934 139.673 L 154.934 139.673 L 154.934 139.673 C 155.119 141.023 155.247 141.937 155.321 142.413 L 155.321 142.413 L 155.321 142.413 C 157.153 138.497 158.986 135.293 160.82 132.8 L 160.82 132.8 L 160.82 132.8 C 161.016 132.645 161.198 132.567 161.369 132.567 L 161.369 132.567 L 161.92 132.8 L 161.92 132.8 C 162.286 133.174 162.469 133.731 162.469 134.469 Z" style="white-space: pre; fill: rgb(97, 12, 57);"/>
</svg>