<?xml version="1.0" encoding="utf-8"?>
<svg viewBox="0 0 500 500" xmlns="http://www.w3.org/2000/svg">
  <path d="M 73.392 114.745 L 73.392 114.745 L 73.392 114.745 C 74.075 112.645 75.287 111.211 77.024 110.439 L 77.024 110.439 L 77.024 110.439 C 77.777 110.14 78.549 109.991 79.338 109.991 L 79.338 109.991 L 79.338 109.991 C 80.127 109.991 80.942 110.161 81.783 110.504 L 81.783 110.504 L 81.783 110.504 C 82.24 109.261 82.706 108.64 83.179 108.64 L 83.179 108.64 L 83.179 108.64 C 83.3 108.64 83.384 108.715 83.429 108.864 L 83.429 108.864 L 83.429 108.864 C 83.473 109.014 83.468 109.175 83.415 109.347 L 83.415 109.347 L 83.415 109.347 C 83.361 109.517 83.244 109.678 83.061 109.831 L 83.061 109.831 L 83.061 109.831 C 82.877 109.98 82.662 110.313 82.416 110.828 L 82.416 110.828 L 82.416 110.828 C 83.012 111.254 83.424 111.605 83.651 111.884 L 83.651 111.884 L 83.651 111.884 C 83.88 112.164 84.052 112.518 84.165 112.946 L 84.165 112.946 L 84.165 112.946 C 84.28 113.374 84.337 113.675 84.337 113.848 L 84.337 113.848 L 84.337 113.848 C 84.337 114.233 84.096 114.233 83.613 113.848 L 83.613 113.848 L 83.613 113.848 C 83.13 113.462 82.564 113.162 81.916 112.946 L 81.916 112.946 L 81.916 112.946 C 81.6 114.79 81.268 117.319 80.918 120.532 L 80.918 120.532 L 80.918 120.532 C 80.567 123.748 80.355 125.677 80.285 126.319 L 80.285 126.319 L 80.285 126.319 C 81.233 125.763 81.868 125.486 82.192 125.486 L 82.192 125.486 L 82.192 125.486 C 82.517 125.486 82.714 125.539 82.785 125.645 L 82.785 125.645 L 82.785 125.645 C 82.854 125.751 82.894 125.891 82.904 126.064 L 82.904 126.064 L 82.904 126.064 C 82.911 126.234 82.898 126.373 82.863 126.483 L 82.863 126.483 L 82.863 126.483 C 82.827 126.589 82.77 126.599 82.691 126.513 L 82.691 126.513 L 82.691 126.513 C 82.612 126.427 82.468 126.383 82.259 126.383 L 82.259 126.383 L 82.259 126.383 C 82.048 126.383 81.654 126.566 81.074 126.931 L 81.074 126.931 L 81.074 126.931 C 80.495 127.296 80.153 127.843 80.049 128.571 L 80.049 128.571 L 80.049 128.571 C 78.434 139.417 76.382 146.961 73.891 151.204 L 73.891 151.204 L 73.891 151.204 C 72.788 153.131 71.779 154.094 70.868 154.094 L 70.868 154.094 L 70.868 154.094 C 70.534 154.094 70.218 153.966 69.918 153.711 L 69.918 153.711 L 69.918 153.711 C 69.026 152.983 68.579 151.365 68.579 148.856 L 68.579 148.856 L 68.579 148.856 C 68.579 146.347 69.114 143.593 70.184 140.592 L 70.184 140.592 L 70.184 140.592 C 72.341 134.548 75.251 130.112 78.916 127.285 L 78.916 127.285 L 78.916 127.285 C 78.969 126.9 79.135 125.636 79.416 123.493 L 79.416 123.493 L 79.416 123.493 C 80.03 118.604 80.601 115.045 81.126 112.817 L 81.126 112.817 L 81.126 112.817 C 80.916 112.817 80.6 112.817 80.179 112.817 L 80.179 112.817 L 80.179 112.817 C 79.759 112.817 79.163 112.925 78.39 113.14 L 78.39 113.14 L 78.39 113.14 C 76.41 113.698 74.998 114.919 74.155 116.804 L 74.155 116.804 L 74.155 116.804 C 73.717 117.834 73.498 119.013 73.498 120.342 L 73.498 120.342 L 73.498 120.342 C 73.498 120.984 73.572 121.562 73.723 122.077 L 73.723 122.077 L 73.723 122.077 C 73.871 122.592 74.014 122.956 74.155 123.169 L 74.155 123.169 L 74.155 123.169 C 74.384 123.554 74.69 123.982 75.076 124.455 L 75.076 124.455 L 75.076 124.455 C 75.288 124.839 75.33 125.076 75.207 125.162 L 75.207 125.162 L 75.207 125.162 C 75.156 125.162 75.095 125.14 75.024 125.097 L 75.024 125.097 L 75.024 125.097 C 74.602 124.885 74.155 124.263 73.682 123.233 L 73.682 123.233 L 73.682 123.233 C 73.209 122.206 72.963 121.028 72.946 119.7 L 72.946 119.7 L 72.946 119.7 C 72.892 119.227 72.865 118.84 72.865 118.539 L 72.865 118.539 L 72.865 118.539 C 72.865 117.126 73.041 115.862 73.392 114.745 Z M 69.945 148.373 L 69.945 148.373 L 69.945 148.373 C 69.945 148.845 69.964 149.316 69.999 149.789 L 69.999 149.789 L 69.999 149.789 C 70.174 151.417 70.612 152.23 71.314 152.23 L 71.314 152.23 L 71.314 152.23 C 72.348 152.23 73.436 150.537 74.577 147.152 L 74.577 147.152 L 74.577 147.152 C 76.259 142.137 77.654 135.922 78.758 128.506 L 78.758 128.506 L 78.758 128.506 C 75.69 130.948 73.261 134.912 71.473 140.399 L 71.473 140.399 L 71.473 140.399 C 70.455 143.442 69.945 146.1 69.945 148.373 Z M 83.783 143.035 L 83.783 143.035 L 85.546 143.424 L 85.546 143.424 C 85.932 143.424 86.226 143.328 86.428 143.134 L 86.428 143.134 L 86.428 143.134 C 86.628 142.941 86.778 142.887 86.875 142.97 L 86.875 142.97 L 86.875 142.97 C 86.971 143.057 86.949 143.218 86.81 143.454 L 86.81 143.454 L 86.81 143.454 C 86.669 143.689 86.436 143.872 86.112 144.001 L 86.112 144.001 L 86.112 144.001 C 85.787 144.131 85.59 144.237 85.521 144.321 L 85.521 144.321 L 85.521 144.321 C 85.8 144.579 86.107 144.945 86.44 145.417 L 86.44 145.417 L 87.835 147.536 L 87.835 147.536 C 88.255 145.136 88.554 143.251 88.728 141.879 L 88.728 141.879 L 88.728 141.879 C 88.624 142.008 88.483 142.104 88.309 142.168 L 88.309 142.168 L 88.309 142.168 C 88.132 142.234 88.046 142.116 88.046 141.814 L 88.046 141.814 L 88.046 141.814 C 88.046 141.515 88.15 141.279 88.361 141.105 L 88.361 141.105 L 88.94 140.722 L 88.94 140.722 C 89.22 138.752 89.532 136.363 89.875 133.555 L 89.875 133.555 L 89.875 133.555 C 90.215 130.747 90.387 129.322 90.387 129.279 L 90.387 129.279 L 90.387 129.279 C 91.439 121.049 92.35 115.862 93.123 113.719 L 93.123 113.719 L 93.123 113.719 C 93.894 111.576 94.605 110.184 95.255 109.542 L 95.255 109.542 L 95.255 109.542 C 95.903 108.898 96.394 108.575 96.727 108.575 L 96.727 108.575 L 96.727 108.575 C 97.657 108.575 98.393 109.476 98.938 111.276 L 98.938 111.276 L 98.938 111.276 C 99.305 112.519 99.49 114.084 99.49 115.971 L 99.49 115.971 L 99.49 115.971 C 99.49 119.526 98.995 123.062 98.004 126.578 L 98.004 126.578 L 98.004 126.578 C 97.012 130.092 95.814 133.062 94.412 135.484 L 94.412 135.484 L 94.412 135.484 C 93.009 137.902 91.552 139.756 90.043 141.046 L 90.043 141.046 L 90.043 141.046 C 89.518 144.087 89.018 146.593 88.544 148.568 L 88.544 148.568 L 88.544 148.568 C 91.228 152.767 93.132 155.316 94.253 156.217 L 94.253 156.217 L 94.253 156.217 C 95.551 157.287 96.788 157.822 97.963 157.822 L 97.963 157.822 L 97.963 157.822 C 99.244 157.822 100.304 156.965 101.145 155.251 L 101.145 155.251 L 101.145 155.251 C 101.586 154.393 101.805 153.494 101.805 152.554 L 101.805 152.554 L 101.805 152.554 C 101.805 151.611 101.729 150.775 101.581 150.048 L 101.581 150.048 L 101.581 150.048 C 101.43 149.316 101.444 148.919 101.619 148.856 L 101.619 148.856 L 101.619 148.856 C 101.794 148.793 101.935 149.017 102.041 149.529 L 102.041 149.529 L 102.041 149.529 C 102.303 150.945 102.435 152.404 102.435 153.905 L 102.435 153.905 L 102.435 153.905 C 102.435 154.161 102.435 154.417 102.435 154.672 L 102.435 154.672 L 102.435 154.672 C 102.417 156.304 102.109 157.741 101.515 158.984 L 101.515 158.984 L 101.515 158.984 C 100.814 160.439 99.735 161.167 98.278 161.167 L 98.278 161.167 L 98.278 161.167 C 97.297 161.167 96.433 160.846 95.687 160.205 L 95.687 160.205 L 95.687 160.205 C 94.941 159.561 94.354 159.036 93.924 158.63 L 93.924 158.63 L 93.924 158.63 C 93.495 158.221 92.959 157.513 92.319 156.507 L 92.319 156.507 L 92.319 156.507 C 91.679 155.499 91.228 154.783 90.966 154.354 L 90.966 154.354 L 90.966 154.354 C 90.439 153.496 89.545 151.91 88.281 149.594 L 88.281 149.594 L 88.281 149.594 C 87.37 153.452 86.562 155.381 85.861 155.381 L 85.861 155.381 L 85.861 155.381 C 85.686 155.381 85.581 155.306 85.546 155.157 L 85.546 155.157 L 85.546 155.157 C 85.511 155.007 85.516 154.867 85.56 154.737 L 85.56 154.737 L 85.56 154.737 C 85.602 154.61 85.651 154.548 85.704 154.548 L 85.704 154.548 L 85.704 154.548 C 86.283 154.418 86.933 152.425 87.651 148.568 L 87.651 148.568 L 87.651 148.568 C 86.669 146.979 85.844 145.907 85.178 145.352 L 85.178 145.352 L 85.178 145.352 C 84.581 145.951 84.169 146.249 83.942 146.249 L 83.942 146.249 L 83.942 146.249 C 83.714 146.249 83.565 146.228 83.494 146.185 L 83.494 146.185 L 83.494 146.185 C 83.196 145.929 83.046 145.481 83.046 144.839 L 83.046 144.839 L 83.046 144.839 C 83.046 143.939 83.275 143.337 83.73 143.035 L 83.73 143.035 L 83.73 143.035 C 83.73 143.035 83.748 143.035 83.783 143.035 Z M 98.411 114.745 L 98.411 114.745 L 98.411 114.745 C 98.411 111.49 97.911 109.861 96.91 109.861 L 96.91 109.861 L 96.91 109.861 C 96.015 109.861 95.253 110.976 94.622 113.205 L 94.622 113.205 L 94.622 113.205 C 93.92 115.604 93.411 117.844 93.096 119.924 L 93.096 119.924 L 93.096 119.924 C 92.781 122.001 92.552 123.532 92.411 124.519 L 92.411 124.519 L 92.411 124.519 C 92.06 126.921 91.79 129.107 91.597 131.078 L 91.597 131.078 L 91.597 131.078 C 91.018 135.022 90.596 137.743 90.333 139.241 L 90.333 139.241 L 90.333 139.241 C 92.35 137.013 94.092 133.99 95.555 130.176 L 95.555 130.176 L 95.555 130.176 C 97.02 126.361 97.937 122.053 98.304 117.252 L 98.304 117.252 L 98.304 117.252 C 98.375 116.355 98.411 115.519 98.411 114.745 Z M 99.883 128.701 L 99.883 128.701 L 99.883 128.701 C 100.321 128.701 100.585 129.043 100.672 129.727 L 100.672 129.727 L 100.672 129.727 C 100.707 130.112 100.686 130.489 100.606 130.854 L 100.606 130.854 L 100.606 130.854 C 100.528 131.216 100.47 131.505 100.435 131.721 L 100.435 131.721 L 100.435 131.721 C 100.401 131.934 100.375 132.105 100.357 132.234 L 100.357 132.234 L 100.357 132.234 C 100.269 132.662 100.181 133.07 100.094 133.455 L 100.094 133.455 L 100.094 133.455 C 99.094 138.344 98.568 141.451 98.517 142.781 L 98.517 142.781 L 98.517 142.781 C 98.498 143.165 98.49 143.658 98.49 144.256 L 98.49 144.256 L 98.49 144.256 C 98.49 144.858 98.559 145.351 98.7 145.736 L 98.7 145.736 L 98.7 145.736 C 98.944 146.424 99.295 146.467 99.752 145.866 L 99.752 145.866 L 99.752 145.866 C 100.208 145.264 100.843 144.065 101.658 142.268 L 101.658 142.268 L 101.658 142.268 C 102.475 140.466 103.136 138.709 103.644 136.994 L 103.644 136.994 L 103.644 136.994 C 103.715 136.778 103.794 136.724 103.882 136.835 L 103.882 136.835 L 103.882 136.835 C 103.969 136.941 104.015 137.047 104.015 137.154 L 104.015 137.154 L 104.015 137.154 C 104.015 137.26 103.996 137.378 103.961 137.507 L 103.961 137.507 L 103.961 137.507 C 103.697 138.664 103.223 140.143 102.54 141.943 L 102.54 141.943 L 102.54 141.943 C 101.418 144.901 100.479 146.723 99.726 147.41 L 99.726 147.41 L 99.726 147.41 C 99.286 147.796 98.918 147.988 98.619 147.988 L 98.619 147.988 L 98.619 147.988 C 97.918 147.988 97.455 147.173 97.227 145.541 L 97.227 145.541 L 97.227 145.541 C 97.191 145.243 97.175 144.879 97.175 144.45 L 97.175 144.45 L 97.175 144.45 C 97.175 142.951 97.455 140.681 98.014 137.637 L 98.014 137.637 L 98.014 137.637 C 97.928 138.109 97.585 139.181 96.988 140.852 L 96.988 140.852 L 96.988 140.852 C 96.83 141.281 96.709 141.281 96.622 140.852 L 96.622 140.852 L 96.622 140.852 C 96.603 140.766 96.595 140.647 96.595 140.497 L 96.595 140.497 L 96.595 140.497 C 96.595 140.349 96.63 140.166 96.701 139.949 L 96.701 139.949 L 96.701 139.949 C 97.561 137.335 98.235 135.126 98.726 133.326 L 98.726 133.326 L 98.726 133.326 C 98.69 133.114 98.709 132.836 98.779 132.493 L 98.779 132.493 L 98.779 132.493 C 99.13 130.091 99.437 128.827 99.699 128.701 L 99.699 128.701 L 99.699 128.701 C 99.752 128.701 99.813 128.701 99.883 128.701 Z M 101.961 120.148 L 101.961 120.148 L 101.75 122.206 L 101.75 122.206 C 101.75 122.592 101.637 123.214 101.409 124.07 L 101.409 124.07 L 101.409 124.07 C 101.181 124.928 101.007 125.357 100.884 125.357 L 100.884 125.357 L 100.884 125.357 C 100.129 125.357 99.752 124.906 99.752 124.006 L 99.752 124.006 L 99.752 124.006 C 99.752 123.833 100.129 123.04 100.884 121.628 L 100.884 121.628 L 101.33 120.79 L 101.33 120.79 C 101.611 120.189 101.785 119.889 101.856 119.889 L 101.856 119.889 L 101.856 119.889 C 101.926 119.889 101.961 119.975 101.961 120.148 Z M 110.616 128.248 L 110.616 128.248 L 110.616 128.248 C 111.02 128.248 111.221 128.772 111.221 129.822 L 111.221 129.822 L 111.221 129.822 C 111.221 130.873 111.02 132.32 110.616 134.163 L 110.616 134.163 L 110.616 134.163 C 110.213 136.008 109.913 137.507 109.722 138.664 L 109.722 138.664 L 109.722 138.664 C 109.39 140.637 109.222 142.212 109.222 143.389 L 109.222 143.389 L 109.222 143.389 C 109.222 144.568 109.293 145.351 109.433 145.736 L 109.433 145.736 L 109.433 145.736 C 109.695 146.424 110.056 146.457 110.512 145.835 L 110.512 145.835 L 110.512 145.835 C 110.967 145.212 111.603 144.01 112.418 142.232 L 112.418 142.232 L 112.418 142.232 C 113.235 140.455 113.887 138.709 114.379 136.994 L 114.379 136.994 L 114.379 136.994 C 114.448 136.778 114.531 136.724 114.628 136.835 L 114.628 136.835 L 114.628 136.835 C 114.724 136.941 114.771 137.047 114.771 137.154 L 114.771 137.154 L 114.771 137.154 C 114.771 137.26 114.755 137.378 114.72 137.507 L 114.72 137.507 L 114.72 137.507 C 114.457 138.664 113.983 140.143 113.3 141.943 L 113.3 141.943 L 113.3 141.943 C 112.616 143.744 111.959 145.191 111.327 146.284 L 111.327 146.284 L 111.327 146.284 C 110.696 147.377 110.073 147.923 109.46 147.923 L 109.46 147.923 L 109.46 147.923 C 108.862 147.881 108.441 147.549 108.196 146.928 L 108.196 146.928 L 108.196 146.928 C 107.951 146.306 107.828 145.523 107.828 144.579 L 107.828 144.579 L 107.828 144.579 C 107.828 143.636 107.863 142.726 107.932 141.849 L 107.932 141.849 L 107.932 141.849 C 108.003 140.968 108.135 139.949 108.328 138.793 L 108.328 138.793 L 108.328 138.793 C 108.643 136.949 108.919 135.514 109.156 134.487 L 109.156 134.487 L 109.156 134.487 C 109.392 133.457 109.511 132.782 109.511 132.459 L 109.511 132.459 L 109.511 132.459 C 109.511 132.139 109.441 131.98 109.3 131.98 L 109.3 131.98 L 109.3 131.98 C 109.02 131.98 108.486 132.816 107.696 134.487 L 107.696 134.487 L 107.696 134.487 C 107.152 135.73 106.35 138.075 105.29 141.525 L 105.29 141.525 L 105.29 141.525 C 104.228 144.977 103.628 146.809 103.486 147.022 L 103.486 147.022 L 103.486 147.022 C 102.856 147.793 102.461 148.178 102.303 148.178 L 102.303 148.178 L 102.303 148.178 C 102.145 148.178 102.068 148.114 102.068 147.988 L 102.068 147.988 L 102.068 147.988 C 102.068 147.859 102.084 147.676 102.119 147.441 L 102.119 147.441 L 102.119 147.441 C 102.154 147.205 102.324 146.037 102.633 143.937 L 102.633 143.937 L 102.633 143.937 C 102.939 141.838 103.273 139.532 103.631 137.024 L 103.631 137.024 L 103.631 137.024 C 103.991 134.518 104.211 133.008 104.29 132.493 L 104.29 132.493 L 104.29 132.493 C 104.369 131.979 104.421 131.538 104.446 131.173 L 104.446 131.173 L 104.446 131.173 C 104.472 130.811 104.503 130.5 104.538 130.241 L 104.538 130.241 L 104.538 130.241 C 104.573 129.986 104.64 129.696 104.736 129.374 L 104.736 129.374 L 104.736 129.374 C 104.833 129.052 104.96 128.879 105.117 128.86 L 105.117 128.86 L 105.117 128.86 C 105.275 128.836 105.478 128.879 105.723 128.99 L 105.723 128.99 L 105.723 128.99 C 105.968 129.096 106.091 129.364 106.091 129.793 L 106.091 129.793 L 106.091 129.793 C 106.091 130.091 105.994 130.744 105.801 131.751 L 105.801 131.751 L 105.801 131.751 C 105.61 132.761 105.057 136.223 104.145 142.137 L 104.145 142.137 L 104.145 142.137 C 104.776 140.25 105.574 138.073 106.54 135.608 L 106.54 135.608 L 106.54 135.608 C 107.504 133.147 108.318 131.272 108.984 129.987 L 108.984 129.987 L 108.984 129.987 C 109.652 128.827 110.196 128.248 110.616 128.248 Z M 126.426 137.507 L 126.426 137.507 C 126.164 138.664 125.69 140.143 125.005 141.943 L 125.005 141.943 L 125.005 141.943 C 124.322 143.744 123.708 145.138 123.164 146.125 L 123.164 146.125 L 123.164 146.125 C 122.463 147.367 121.7 147.988 120.876 147.988 L 120.876 147.988 L 120.876 147.988 C 120.718 147.988 120.512 147.806 120.258 147.441 L 120.258 147.441 L 120.258 147.441 C 120.004 147.076 119.832 146.55 119.745 145.866 L 119.745 145.866 L 119.745 145.866 C 119.657 145.182 119.612 144.516 119.612 143.872 L 119.612 143.872 L 119.612 143.872 C 119.612 141.642 119.789 139.435 120.14 137.248 L 120.14 137.248 L 120.14 137.248 C 120.086 137.335 119.846 138.247 119.415 139.984 L 119.415 139.984 L 119.415 139.984 C 118.986 141.718 118.459 143.357 117.837 144.899 L 117.837 144.899 L 117.837 144.899 C 117.214 146.443 116.588 147.217 115.957 147.217 L 115.957 147.217 L 115.957 147.217 C 115.66 147.217 115.317 147.024 114.931 146.639 L 114.931 146.639 L 114.931 146.639 C 114.229 145.867 113.879 144.452 113.879 142.392 L 113.879 142.392 L 113.879 142.392 C 113.879 139.863 114.233 137.26 114.943 134.582 L 114.943 134.582 L 114.943 134.582 C 115.655 131.904 116.107 130.478 116.3 130.306 L 116.3 130.306 L 116.3 130.306 C 116.562 130.136 116.812 130.051 117.048 130.051 L 117.048 130.051 L 117.048 130.051 C 117.285 130.051 117.525 130.17 117.772 130.406 L 117.772 130.406 L 117.772 130.406 C 118.017 130.639 117.982 131.033 117.666 131.591 L 117.666 131.591 L 117.666 131.591 C 116.456 134.292 115.596 137.294 115.088 140.592 L 115.088 140.592 L 115.088 140.592 C 114.895 141.879 114.799 142.962 114.799 143.842 L 114.799 143.842 L 114.799 143.842 C 114.799 144.719 114.891 145.286 115.075 145.541 L 115.075 145.541 L 115.075 145.541 C 115.259 145.801 115.439 145.93 115.614 145.93 L 115.614 145.93 L 115.614 145.93 C 116.036 145.93 116.61 145.213 117.337 143.777 L 117.337 143.777 L 117.337 143.777 C 118.064 142.342 119.069 139.352 120.349 134.806 L 120.349 134.806 L 120.349 134.806 C 120.525 134.165 120.832 132.912 121.271 131.048 L 121.271 131.048 L 121.271 131.048 C 121.709 129.181 121.972 128.075 122.061 127.734 L 122.061 127.734 L 122.061 127.734 C 122.341 127.734 122.669 127.894 123.046 128.217 L 123.046 128.217 L 123.046 128.217 C 123.423 128.54 123.55 128.957 123.427 129.468 L 123.427 129.468 L 123.427 129.468 C 122.585 132.897 121.994 135.427 121.653 137.059 L 121.653 137.059 L 121.653 137.059 C 121.309 138.687 121.077 140.594 120.955 142.781 L 120.955 142.781 L 120.955 142.781 C 120.938 143.165 120.928 143.658 120.928 144.256 L 120.928 144.256 L 120.928 144.256 C 120.928 144.858 120.999 145.351 121.138 145.736 L 121.138 145.736 L 121.138 145.736 C 121.402 146.424 121.767 146.457 122.229 145.835 L 122.229 145.835 L 122.229 145.835 C 122.695 145.212 123.332 144.01 124.139 142.232 L 124.139 142.232 L 124.139 142.232 C 124.945 140.455 125.592 138.709 126.085 136.994 L 126.085 136.994 L 126.085 136.994 C 126.155 136.778 126.238 136.724 126.334 136.835 L 126.334 136.835 L 126.334 136.835 C 126.431 136.941 126.48 137.047 126.48 137.154 L 126.48 137.154 L 126.48 137.154 C 126.48 137.26 126.461 137.378 126.426 137.507 L 126.426 137.507 Z M 135.949 129.532 L 135.949 129.532 L 135.949 129.532 C 135.949 130.048 135.748 130.306 135.345 130.306 L 135.345 130.306 L 135.345 130.306 C 134.433 131.162 133.6 132.384 132.845 133.968 L 132.845 133.968 L 130.951 137.572 L 130.951 137.572 C 130.951 138.814 131.275 140.871 131.926 143.743 L 131.926 143.743 L 131.926 143.743 C 132.223 145.159 132.604 145.866 133.07 145.866 L 133.07 145.866 L 133.07 145.866 C 133.534 145.866 134.082 145.073 134.712 143.488 L 134.712 143.488 L 134.712 143.488 C 135.011 142.717 135.73 140.553 136.871 136.994 L 136.871 136.994 L 136.871 136.994 C 136.958 136.735 137.04 136.67 137.12 136.8 L 137.12 136.8 L 137.12 136.8 C 137.198 136.93 137.238 137.057 137.238 137.183 L 137.238 137.183 L 137.238 137.183 C 137.238 137.313 137.221 137.464 137.187 137.637 L 137.187 137.637 L 137.187 137.637 C 136.379 140.637 135.572 143.08 134.766 144.964 L 134.766 144.964 L 134.766 144.964 C 133.942 146.807 133.178 147.73 132.477 147.73 L 132.477 147.73 L 132.477 147.73 C 132.335 147.73 132.196 147.687 132.055 147.6 L 132.055 147.6 L 132.055 147.6 C 131.179 147.128 130.434 144.644 129.82 140.144 L 129.82 140.144 L 129.82 140.144 C 126.243 149.016 124.419 155.274 124.348 158.919 L 124.348 158.919 L 124.348 158.919 C 124.348 159.434 124.287 159.691 124.164 159.691 L 124.164 159.691 L 124.033 159.562 L 124.033 159.562 C 123.962 159.389 123.927 159.175 123.927 158.919 L 123.927 158.919 L 123.927 158.919 C 123.927 156.603 124.393 153.805 125.323 150.526 L 125.323 150.526 L 125.323 150.526 C 126.251 147.246 127.18 144.407 128.11 142.008 L 128.11 142.008 L 128.11 142.008 C 129.04 139.609 129.505 138.345 129.505 138.215 L 129.505 138.215 L 129.505 138.215 C 129.505 137.185 129.383 136.145 129.136 135.095 L 129.136 135.095 L 129.136 135.095 C 128.89 134.045 128.69 133.445 128.532 133.297 L 128.532 133.297 L 128.532 133.297 C 128.372 133.147 128.206 133.2 128.031 133.455 L 128.031 133.455 L 128.031 133.455 C 127.751 133.884 127.466 134.561 127.176 135.484 L 127.176 135.484 L 127.176 135.484 C 126.887 136.405 126.72 136.93 126.676 137.059 L 126.676 137.059 L 126.676 137.059 C 126.633 137.185 126.576 137.357 126.505 137.572 L 126.505 137.572 L 126.505 137.572 C 126.436 137.785 126.356 138.009 126.268 138.246 L 126.268 138.246 L 126.268 138.246 C 126.182 138.481 126.09 138.589 125.994 138.569 L 125.994 138.569 L 125.994 138.569 C 125.897 138.545 125.848 138.429 125.848 138.215 L 125.848 138.215 L 125.848 138.215 C 125.848 137.999 125.882 137.773 125.953 137.537 L 125.953 137.537 L 125.953 137.537 C 126.024 137.302 126.229 136.626 126.57 135.514 L 126.57 135.514 L 126.57 135.514 C 126.913 134.401 127.203 133.469 127.439 132.718 L 127.439 132.718 L 127.439 132.718 C 127.676 131.966 127.956 131.249 128.281 130.564 L 128.281 130.564 L 128.281 130.564 C 128.605 129.877 128.89 129.532 129.136 129.532 L 129.136 129.532 L 129.136 129.532 C 129.383 129.532 129.611 129.747 129.82 130.176 L 129.82 130.176 L 129.82 130.176 C 130.03 130.604 130.17 131.033 130.241 131.461 L 130.241 131.461 L 130.241 131.461 C 130.312 131.891 130.413 132.651 130.542 133.745 L 130.542 133.745 L 130.542 133.745 C 130.675 134.838 130.767 135.577 130.821 135.963 L 130.821 135.963 L 130.821 135.963 C 132.135 132.792 133.45 130.2 134.766 128.182 L 134.766 128.182 L 134.766 128.182 C 134.906 128.057 135.038 127.993 135.16 127.993 L 135.16 127.993 L 135.556 128.182 L 135.556 128.182 C 135.818 128.485 135.949 128.935 135.949 129.532 Z" style="white-space: pre; fill: rgb(97, 12, 57);"/>
</svg>