<?xml version="1.0" encoding="utf-8"?>
<svg viewBox="0 0 500 500" xmlns="http://www.w3.org/2000/svg">
  <path d="M 96.757 125.579 L 96.757 125.579 L 96.757 125.579 C 100.761 119.793 107.85 115.837 118.023 113.712 L 118.023 113.712 L 118.023 113.712 C 122.432 112.888 126.95 112.476 131.574 112.476 L 131.574 112.476 L 131.574 112.476 C 136.192 112.476 140.963 112.947 145.89 113.891 L 145.89 113.891 L 145.89 113.891 C 148.565 110.466 151.287 108.754 154.057 108.754 L 154.057 108.754 L 154.057 108.754 C 154.774 108.754 155.263 108.96 155.526 109.372 L 155.526 109.372 L 155.526 109.372 C 155.78 109.784 155.753 110.227 155.442 110.704 L 155.442 110.704 L 155.442 110.704 C 155.132 111.171 154.44 111.615 153.365 112.036 L 153.365 112.036 L 153.365 112.036 C 152.29 112.448 151.033 113.364 149.592 114.783 L 149.592 114.783 L 149.592 114.783 C 153.087 115.955 155.499 116.926 156.828 117.695 L 156.828 117.695 L 156.828 117.695 C 158.165 118.464 159.168 119.44 159.836 120.621 L 159.836 120.621 L 159.836 120.621 C 160.505 121.802 160.839 122.63 160.839 123.107 L 160.839 123.107 L 160.839 123.107 C 160.839 124.169 159.427 124.169 156.601 123.107 L 156.601 123.107 L 156.601 123.107 C 153.774 122.045 150.464 121.216 146.667 120.621 L 146.667 120.621 L 146.667 120.621 C 144.819 125.703 142.87 132.671 140.816 141.526 L 140.816 141.526 L 140.816 141.526 C 138.762 150.389 137.529 155.705 137.115 157.473 L 137.115 157.473 L 137.115 157.473 C 142.663 155.944 146.384 155.179 148.278 155.179 L 148.278 155.179 L 148.278 155.179 C 150.181 155.179 151.339 155.326 151.753 155.618 L 151.753 155.618 L 151.753 155.618 C 152.159 155.911 152.389 156.295 152.446 156.772 L 152.446 156.772 L 152.446 156.772 C 152.493 157.239 152.413 157.624 152.207 157.926 L 152.207 157.926 L 152.207 157.926 C 152 158.218 151.666 158.246 151.204 158.008 L 151.204 158.008 L 151.204 158.008 C 150.742 157.771 149.899 157.651 148.673 157.651 L 148.673 157.651 L 148.673 157.651 C 147.439 157.651 145.126 158.155 141.735 159.162 L 141.735 159.162 L 141.735 159.162 C 138.344 160.169 136.342 161.675 135.73 163.681 L 135.73 163.681 L 135.73 163.681 C 126.281 193.569 114.265 214.36 99.683 226.053 L 99.683 226.053 L 99.683 226.053 C 93.22 231.364 87.316 234.019 81.976 234.019 L 81.976 234.019 L 81.976 234.019 C 80.026 234.019 78.175 233.666 76.424 232.961 L 76.424 232.961 L 76.424 232.961 C 71.194 230.956 68.579 226.496 68.579 219.583 L 68.579 219.583 L 68.579 219.583 C 68.579 212.67 71.711 205.079 77.976 196.81 L 77.976 196.81 L 77.976 196.81 C 90.6 180.154 107.643 167.929 129.103 160.137 L 129.103 160.137 L 129.103 160.137 C 129.413 159.075 130.389 155.591 132.028 149.685 L 132.028 149.685 L 132.028 149.685 C 135.626 136.214 138.965 126.407 142.046 120.264 L 142.046 120.264 L 142.046 120.264 C 140.812 120.264 138.962 120.264 136.494 120.264 L 136.494 120.264 L 136.494 120.264 C 134.034 120.264 130.544 120.562 126.022 121.156 L 126.022 121.156 L 126.022 121.156 C 114.425 122.695 106.158 126.06 101.223 131.252 L 101.223 131.252 L 101.223 131.252 C 98.659 134.091 97.378 137.341 97.378 141.004 L 97.378 141.004 L 97.378 141.004 C 97.378 142.772 97.816 144.365 98.692 145.784 L 98.692 145.784 L 98.692 145.784 C 99.56 147.203 100.403 148.205 101.223 148.792 L 101.223 148.792 L 101.223 148.792 C 102.56 149.854 104.36 151.035 106.62 152.336 L 106.62 152.336 L 106.62 152.336 C 107.853 153.397 108.109 154.048 107.384 154.286 L 107.384 154.286 L 107.384 154.286 C 107.082 154.286 106.724 154.227 106.309 154.107 L 106.309 154.107 L 106.309 154.107 C 103.85 153.521 101.231 151.809 98.453 148.97 L 98.453 148.97 L 98.453 148.97 C 95.683 146.141 94.246 142.895 94.143 139.232 L 94.143 139.232 L 94.143 139.232 C 93.832 137.931 93.677 136.865 93.677 136.032 L 93.677 136.032 L 93.677 136.032 C 93.677 132.141 94.704 128.656 96.757 125.579 Z M 76.579 218.251 L 76.579 218.251 L 76.579 218.251 C 76.579 219.552 76.683 220.851 76.889 222.152 L 76.889 222.152 L 76.889 222.152 C 77.916 226.639 80.483 228.882 84.591 228.882 L 84.591 228.882 L 84.591 228.882 C 90.648 228.882 97.016 224.216 103.695 214.886 L 103.695 214.886 L 103.695 214.886 C 113.549 201.068 121.712 183.94 128.183 163.502 L 128.183 163.502 L 128.183 163.502 C 110.21 170.233 95.99 181.156 85.522 196.275 L 85.522 196.275 L 85.522 196.275 C 79.56 204.663 76.579 211.988 76.579 218.251 Z M 157.598 203.541 L 157.598 203.541 L 167.914 204.612 L 167.914 204.612 C 170.174 204.612 171.897 204.347 173.084 203.815 L 173.084 203.815 L 173.084 203.815 C 174.261 203.284 175.133 203.133 175.699 203.362 L 175.699 203.362 L 175.699 203.362 C 176.263 203.6 176.136 204.045 175.317 204.694 L 175.317 204.694 L 175.317 204.694 C 174.496 205.344 173.135 205.848 171.233 206.205 L 171.233 206.205 L 171.233 206.205 C 169.33 206.562 168.176 206.855 167.771 207.084 L 167.771 207.084 L 167.771 207.084 C 169.41 207.798 171.204 208.805 173.155 210.106 L 173.155 210.106 L 181.322 215.943 L 181.322 215.943 C 183.782 209.333 185.525 204.135 186.552 200.354 L 186.552 200.354 L 186.552 200.354 C 185.938 200.711 185.119 200.976 184.093 201.151 L 184.093 201.151 L 184.093 201.151 C 183.066 201.333 182.552 201.009 182.552 200.175 L 182.552 200.175 L 182.552 200.175 C 182.552 199.351 183.168 198.702 184.403 198.225 L 184.403 198.225 L 187.794 197.167 L 187.794 197.167 C 189.433 191.738 191.257 185.153 193.262 177.416 L 193.262 177.416 L 193.262 177.416 C 195.26 169.679 196.259 165.751 196.259 165.631 L 196.259 165.631 L 196.259 165.631 C 202.42 142.95 207.761 128.656 212.283 122.75 L 212.283 122.75 L 212.283 122.75 C 216.796 116.844 220.955 113.007 224.76 111.24 L 224.76 111.24 L 224.76 111.24 C 228.557 109.464 231.43 108.575 233.381 108.575 L 233.381 108.575 L 233.381 108.575 C 238.825 108.575 243.139 111.057 246.324 116.02 L 246.324 116.02 L 246.324 116.02 C 248.48 119.444 249.56 123.757 249.56 128.958 L 249.56 128.958 L 249.56 128.958 C 249.56 138.755 246.658 148.499 240.855 158.187 L 240.855 158.187 L 240.855 158.187 C 235.052 167.874 228.044 176.056 219.829 182.732 L 219.829 182.732 L 219.829 182.732 C 211.614 189.397 203.089 194.507 194.253 198.06 L 194.253 198.06 L 194.253 198.06 C 191.173 206.439 188.248 213.348 185.478 218.787 L 185.478 218.787 L 185.478 218.787 C 201.191 230.361 212.331 237.388 218.898 239.87 L 218.898 239.87 L 218.898 239.87 C 226.499 242.819 233.739 244.293 240.616 244.293 L 240.616 244.293 L 240.616 244.293 C 248.115 244.293 254.327 241.931 259.255 237.206 L 259.255 237.206 L 259.255 237.206 C 261.826 234.843 263.111 232.367 263.111 229.775 L 263.111 229.775 L 263.111 229.775 C 263.111 227.175 262.673 224.871 261.798 222.866 L 261.798 222.866 L 261.798 222.866 C 260.922 220.851 260.998 219.758 262.025 219.583 L 262.025 219.583 L 262.025 219.583 C 263.052 219.409 263.876 220.027 264.496 221.438 L 264.496 221.438 L 264.496 221.438 C 266.032 225.338 266.801 229.359 266.801 233.497 L 266.801 233.497 L 266.801 233.497 C 266.801 234.202 266.801 234.908 266.801 235.612 L 266.801 235.612 L 266.801 235.612 C 266.697 240.108 264.902 244.069 261.416 247.493 L 261.416 247.493 L 261.416 247.493 C 257.309 251.504 250.992 253.509 242.467 253.509 L 242.467 253.509 L 242.467 253.509 C 236.719 253.509 231.661 252.626 227.291 250.859 L 227.291 250.859 L 227.291 250.859 C 222.929 249.083 219.49 247.635 216.975 246.518 L 216.975 246.518 L 216.975 246.518 C 214.46 245.392 211.328 243.441 207.578 240.667 L 207.578 240.667 L 207.578 240.667 C 203.829 237.892 201.186 235.915 199.65 234.733 L 199.65 234.733 L 199.65 234.733 C 196.57 232.371 191.332 227.999 183.937 221.616 L 183.937 221.616 L 183.937 221.616 C 178.595 232.247 173.872 237.563 169.765 237.563 L 169.765 237.563 L 169.765 237.563 C 168.738 237.563 168.12 237.357 167.914 236.945 L 167.914 236.945 L 167.914 236.945 C 167.714 236.533 167.742 236.148 167.997 235.791 L 167.997 235.791 L 167.997 235.791 C 168.252 235.443 168.535 235.269 168.845 235.269 L 168.845 235.269 L 168.845 235.269 C 172.236 234.912 176.037 229.418 180.248 218.787 L 180.248 218.787 L 180.248 218.787 C 174.493 214.409 169.664 211.456 165.765 209.927 L 165.765 209.927 L 165.765 209.927 C 162.27 211.576 159.858 212.4 158.529 212.4 L 158.529 212.4 L 158.529 212.4 C 157.192 212.4 156.315 212.341 155.902 212.221 L 155.902 212.221 L 155.902 212.221 C 154.159 211.517 153.287 210.28 153.287 208.513 L 153.287 208.513 L 153.287 208.513 C 153.287 206.031 154.62 204.374 157.287 203.541 L 157.287 203.541 L 157.287 203.541 C 157.287 203.541 157.39 203.541 157.598 203.541 Z M 243.243 125.579 L 243.243 125.579 L 243.243 125.579 C 243.243 116.606 240.313 112.119 234.455 112.119 L 234.455 112.119 L 234.455 112.119 C 229.217 112.119 224.752 115.191 221.059 121.335 L 221.059 121.335 L 221.059 121.335 C 216.951 127.946 213.974 134.118 212.128 139.85 L 212.128 139.85 L 212.128 139.85 C 210.281 145.574 208.943 149.795 208.116 152.514 L 208.116 152.514 L 208.116 152.514 C 206.062 159.134 204.474 165.16 203.352 170.59 L 203.352 170.59 L 203.352 170.59 C 199.961 181.458 197.493 188.958 195.949 193.088 L 195.949 193.088 L 195.949 193.088 C 207.761 186.944 217.954 178.615 226.527 168.104 L 226.527 168.104 L 226.527 168.104 C 235.1 157.592 240.465 145.719 242.622 132.488 L 242.622 132.488 L 242.622 132.488 C 243.036 130.016 243.243 127.712 243.243 125.579 Z M 251.858 164.038 L 251.858 164.038 L 251.858 164.038 C 254.429 164.038 255.969 164.982 256.479 166.867 L 256.479 166.867 L 256.479 166.867 C 256.685 167.929 256.558 168.965 256.097 169.972 L 256.097 169.972 L 256.097 169.972 C 255.635 170.97 255.3 171.767 255.094 172.362 L 255.094 172.362 L 255.094 172.362 C 254.894 172.948 254.743 173.419 254.64 173.776 L 254.64 173.776 L 254.64 173.776 C 254.122 174.957 253.608 176.08 253.1 177.141 L 253.1 177.141 L 253.1 177.141 C 247.241 190.612 244.16 199.177 243.858 202.84 L 243.858 202.84 L 243.858 202.84 C 243.754 203.902 243.703 205.257 243.703 206.906 L 243.703 206.906 L 243.703 206.906 C 243.703 208.564 244.113 209.923 244.933 210.985 L 244.933 210.985 L 244.933 210.985 C 246.366 212.881 248.419 213 251.094 211.342 L 251.094 211.342 L 251.094 211.342 C 253.76 209.684 257.482 206.38 262.258 201.425 L 262.258 201.425 L 262.258 201.425 C 267.034 196.463 270.909 191.618 273.887 186.893 L 273.887 186.893 L 273.887 186.893 C 274.3 186.299 274.762 186.152 275.272 186.454 L 275.272 186.454 L 275.272 186.454 C 275.789 186.746 276.048 187.04 276.048 187.333 L 276.048 187.333 L 276.048 187.333 C 276.048 187.626 275.945 187.951 275.738 188.308 L 275.738 188.308 L 275.738 188.308 C 274.193 191.495 271.419 195.57 267.416 200.533 L 267.416 200.533 L 267.416 200.533 C 260.849 208.682 255.356 213.705 250.939 215.6 L 250.939 215.6 L 250.939 215.6 C 248.367 216.662 246.21 217.193 244.467 217.193 L 244.467 217.193 L 244.467 217.193 C 240.36 217.193 237.641 214.945 236.312 210.449 L 236.312 210.449 L 236.312 210.449 C 236.104 209.625 236.002 208.623 236.002 207.441 L 236.002 207.441 L 236.002 207.441 C 236.002 203.311 237.641 197.053 240.921 188.665 L 240.921 188.665 L 240.921 188.665 C 240.411 189.966 238.409 192.919 234.915 197.525 L 234.915 197.525 L 234.915 197.525 C 233.991 198.706 233.275 198.706 232.766 197.525 L 232.766 197.525 L 232.766 197.525 C 232.662 197.287 232.611 196.961 232.611 196.549 L 232.611 196.549 L 232.611 196.549 C 232.611 196.137 232.817 195.633 233.232 195.038 L 233.232 195.038 L 233.232 195.038 C 238.262 187.832 242.214 181.747 245.088 176.784 L 245.088 176.784 L 245.088 176.784 C 244.88 176.198 244.984 175.434 245.398 174.49 L 245.398 174.49 L 245.398 174.49 C 247.452 167.87 249.247 164.385 250.783 164.038 L 250.783 164.038 L 250.783 164.038 C 251.094 164.038 251.452 164.038 251.858 164.038 Z M 264.025 140.468 L 264.025 140.468 L 262.795 146.141 L 262.795 146.141 C 262.795 147.203 262.13 148.915 260.801 151.278 L 260.801 151.278 L 260.801 151.278 C 259.464 153.64 258.437 154.822 257.721 154.822 L 257.721 154.822 L 257.721 154.822 C 253.303 154.822 251.094 153.581 251.094 151.099 L 251.094 151.099 L 251.094 151.099 C 251.094 150.623 253.303 148.439 257.721 144.548 L 257.721 144.548 L 260.335 142.24 L 260.335 142.24 C 261.975 140.582 263.002 139.754 263.416 139.754 L 263.416 139.754 L 263.416 139.754 C 263.822 139.754 264.025 139.992 264.025 140.468 Z M 314.702 162.788 L 314.702 162.788 L 314.702 162.788 C 317.066 162.788 318.248 164.234 318.248 167.128 L 318.248 167.128 L 318.248 167.128 C 318.248 170.022 317.066 174.01 314.702 179.092 L 314.702 179.092 L 314.702 179.092 C 312.338 184.174 310.594 188.308 309.472 191.495 L 309.472 191.495 L 309.472 191.495 C 307.522 196.934 306.547 201.274 306.547 204.516 L 306.547 204.516 L 306.547 204.516 C 306.547 207.767 306.956 209.923 307.777 210.985 L 307.777 210.985 L 307.777 210.985 C 309.313 212.881 311.418 212.973 314.093 211.26 L 314.093 211.26 L 314.093 211.26 C 316.759 209.539 320.481 206.229 325.257 201.329 L 325.257 201.329 L 325.257 201.329 C 330.033 196.43 333.857 191.618 336.731 186.893 L 336.731 186.893 L 336.731 186.893 C 337.137 186.299 337.623 186.152 338.188 186.454 L 338.188 186.454 L 338.188 186.454 C 338.753 186.746 339.035 187.04 339.035 187.333 L 339.035 187.333 L 339.035 187.333 C 339.035 187.626 338.936 187.951 338.737 188.308 L 338.737 188.308 L 338.737 188.308 C 337.193 191.495 334.418 195.57 330.415 200.533 L 330.415 200.533 L 330.415 200.533 C 326.411 205.495 322.562 209.484 318.869 212.496 L 318.869 212.496 L 318.869 212.496 C 315.167 215.508 311.522 217.015 307.932 217.015 L 307.932 217.015 L 307.932 217.015 C 304.437 216.895 301.97 215.981 300.529 214.268 L 300.529 214.268 L 300.529 214.268 C 299.096 212.555 298.38 210.399 298.38 207.798 L 298.38 207.798 L 298.38 207.798 C 298.38 205.198 298.583 202.689 298.989 200.272 L 298.989 200.272 L 298.989 200.272 C 299.403 197.845 300.174 195.038 301.305 191.852 L 301.305 191.852 L 301.305 191.852 C 303.152 186.77 304.768 182.814 306.153 179.985 L 306.153 179.985 L 306.153 179.985 C 307.538 177.146 308.23 175.283 308.23 174.394 L 308.23 174.394 L 308.23 174.394 C 308.23 173.515 307.821 173.076 307 173.076 L 307 173.076 L 307 173.076 C 305.361 173.076 302.228 175.379 297.604 179.985 L 297.604 179.985 L 297.604 179.985 C 294.419 183.409 289.723 189.874 283.514 199.379 L 283.514 199.379 L 283.514 199.379 C 277.306 208.893 273.787 213.942 272.96 214.529 L 272.96 214.529 L 272.96 214.529 C 269.266 216.654 266.957 217.715 266.034 217.715 L 266.034 217.715 L 266.034 217.715 C 265.111 217.715 264.649 217.541 264.649 217.193 L 264.649 217.193 L 264.649 217.193 C 264.649 216.836 264.748 216.332 264.948 215.683 L 264.948 215.683 L 264.948 215.683 C 265.154 215.033 266.157 211.813 267.957 206.027 L 267.957 206.027 L 267.957 206.027 C 269.756 200.24 271.706 193.889 273.807 186.976 L 273.807 186.976 L 273.807 186.976 C 275.917 180.071 277.202 175.909 277.664 174.49 L 277.664 174.49 L 277.664 174.49 C 278.126 173.072 278.432 171.857 278.583 170.851 L 278.583 170.851 L 278.583 170.851 C 278.735 169.852 278.914 168.996 279.121 168.282 L 279.121 168.282 L 279.121 168.282 C 279.327 167.578 279.714 166.781 280.279 165.892 L 280.279 165.892 L 280.279 165.892 C 280.844 165.004 281.589 164.532 282.512 164.477 L 282.512 164.477 L 282.512 164.477 C 283.435 164.413 284.617 164.532 286.058 164.835 L 286.058 164.835 L 286.058 164.835 C 287.491 165.127 288.207 165.865 288.207 167.046 L 288.207 167.046 L 288.207 167.046 C 288.207 167.87 287.642 169.669 286.511 172.444 L 286.511 172.444 L 286.511 172.444 C 285.389 175.228 282.157 184.769 276.816 201.068 L 276.816 201.068 L 276.816 201.068 C 280.509 195.867 285.183 189.87 290.834 183.075 L 290.834 183.075 L 290.834 183.075 C 296.478 176.29 301.249 171.125 305.15 167.582 L 305.15 167.582 L 305.15 167.582 C 309.058 164.385 312.242 162.788 314.702 162.788 Z M 407.273 188.308 L 407.273 188.308 C 405.736 191.495 402.962 195.57 398.95 200.533 L 398.95 200.533 L 398.95 200.533 C 394.947 205.495 391.353 209.337 388.169 212.056 L 388.169 212.056 L 388.169 212.056 C 384.061 215.481 379.596 217.193 374.772 217.193 L 374.772 217.193 L 374.772 217.193 C 373.849 217.193 372.643 216.689 371.154 215.683 L 371.154 215.683 L 371.154 215.683 C 369.665 214.676 368.662 213.228 368.145 211.342 L 368.145 211.342 L 368.145 211.342 C 367.635 209.456 367.381 207.624 367.381 205.848 L 367.381 205.848 L 367.381 205.848 C 367.381 199.704 368.408 193.62 370.462 187.594 L 370.462 187.594 L 370.462 187.594 C 370.151 187.832 368.739 190.345 366.223 195.135 L 366.223 195.135 L 366.223 195.135 C 363.707 199.914 360.627 204.429 356.981 208.678 L 356.981 208.678 L 356.981 208.678 C 353.336 212.935 349.666 215.064 345.973 215.064 L 345.973 215.064 L 345.973 215.064 C 344.229 215.064 342.227 214.533 339.967 213.471 L 339.967 213.471 L 339.967 213.471 C 335.859 211.346 333.806 207.445 333.806 201.769 L 333.806 201.769 L 333.806 201.769 C 333.806 194.801 335.883 187.626 340.038 180.246 L 340.038 180.246 L 340.038 180.246 C 344.202 172.866 346.848 168.937 347.979 168.461 L 347.979 168.461 L 347.979 168.461 C 349.515 167.994 350.975 167.76 352.361 167.76 L 352.361 167.76 L 352.361 167.76 C 353.746 167.76 355.158 168.086 356.599 168.735 L 356.599 168.735 L 356.599 168.735 C 358.04 169.377 357.833 170.466 355.978 172.004 L 355.978 172.004 L 355.978 172.004 C 348.894 179.449 343.863 187.718 340.886 196.81 L 340.886 196.81 L 340.886 196.81 C 339.755 200.354 339.191 203.339 339.191 205.766 L 339.191 205.766 L 339.191 205.766 C 339.191 208.183 339.732 209.745 340.815 210.449 L 340.815 210.449 L 340.815 210.449 C 341.889 211.164 342.94 211.521 343.967 211.521 L 343.967 211.521 L 343.967 211.521 C 346.435 211.521 349.797 209.543 354.056 205.587 L 354.056 205.587 L 354.056 205.587 C 358.315 201.631 364.193 193.39 371.691 180.864 L 371.691 180.864 L 371.691 180.864 C 372.718 179.096 374.518 175.644 377.088 170.507 L 377.088 170.507 L 377.088 170.507 C 379.652 165.361 381.192 162.317 381.709 161.373 L 381.709 161.373 L 381.709 161.373 C 383.348 161.373 385.271 161.817 387.476 162.706 L 387.476 162.706 L 387.476 162.706 C 389.689 163.594 390.434 164.743 389.709 166.153 L 389.709 166.153 L 389.709 166.153 C 384.781 175.603 381.319 182.576 379.321 187.072 L 379.321 187.072 L 379.321 187.072 C 377.315 191.559 375.954 196.814 375.238 202.84 L 375.238 202.84 L 375.238 202.84 C 375.134 203.902 375.082 205.257 375.082 206.906 L 375.082 206.906 L 375.082 206.906 C 375.082 208.564 375.492 209.923 376.312 210.985 L 376.312 210.985 L 376.312 210.985 C 377.856 212.881 379.986 212.973 382.7 211.26 L 382.7 211.26 L 382.7 211.26 C 385.422 209.539 389.148 206.229 393.876 201.329 L 393.876 201.329 L 393.876 201.329 C 398.596 196.43 402.393 191.618 405.267 186.893 L 405.267 186.893 L 405.267 186.893 C 405.681 186.299 406.171 186.152 406.735 186.454 L 406.735 186.454 L 406.735 186.454 C 407.3 186.746 407.583 187.04 407.583 187.333 L 407.583 187.333 L 407.583 187.333 C 407.583 187.626 407.479 187.951 407.273 188.308 L 407.273 188.308 Z M 463.025 166.332 L 463.025 166.332 L 463.025 166.332 C 463.025 167.751 461.847 168.461 459.491 168.461 L 459.491 168.461 L 459.491 168.461 C 454.15 170.823 449.27 174.188 444.853 178.556 L 444.853 178.556 L 433.76 188.487 L 433.76 188.487 C 433.76 191.911 435.662 197.579 439.468 205.491 L 439.468 205.491 L 439.468 205.491 C 441.211 209.392 443.444 211.342 446.166 211.342 L 446.166 211.342 L 446.166 211.342 C 448.888 211.342 452.097 209.158 455.79 204.79 L 455.79 204.79 L 455.79 204.79 C 457.533 202.666 461.744 196.7 468.422 186.893 L 468.422 186.893 L 468.422 186.893 C 468.932 186.179 469.417 186.001 469.879 186.358 L 469.879 186.358 L 469.879 186.358 C 470.341 186.715 470.571 187.068 470.571 187.415 L 470.571 187.415 L 470.571 187.415 C 470.571 187.772 470.472 188.189 470.273 188.665 L 470.273 188.665 L 470.273 188.665 C 465.545 196.934 460.82 203.664 456.1 208.856 L 456.1 208.856 L 456.1 208.856 C 451.276 213.938 446.807 216.479 442.691 216.479 L 442.691 216.479 L 442.691 216.479 C 441.871 216.479 441.052 216.36 440.232 216.122 L 440.232 216.122 L 440.232 216.122 C 435.098 214.821 430.736 207.973 427.146 195.574 L 427.146 195.574 L 427.146 195.574 C 406.194 220.023 395.513 237.27 395.099 247.315 L 395.099 247.315 L 395.099 247.315 C 395.099 248.734 394.74 249.444 394.024 249.444 L 394.024 249.444 L 393.26 249.087 L 393.26 249.087 C 392.845 248.61 392.639 248.019 392.639 247.315 L 392.639 247.315 L 392.639 247.315 C 392.639 240.932 395.361 233.222 400.806 224.185 L 400.806 224.185 L 400.806 224.185 C 406.242 215.147 411.683 207.322 417.128 200.711 L 417.128 200.711 L 417.128 200.711 C 422.573 194.1 425.295 190.616 425.295 190.259 L 425.295 190.259 L 425.295 190.259 C 425.295 187.419 424.575 184.554 423.134 181.66 L 423.134 181.66 L 423.134 181.66 C 421.701 178.766 420.522 177.114 419.599 176.702 L 419.599 176.702 L 419.599 176.702 C 418.668 176.29 417.689 176.437 416.662 177.141 L 416.662 177.141 L 416.662 177.141 C 415.023 178.323 413.355 180.187 411.659 182.732 L 411.659 182.732 L 411.659 182.732 C 409.964 185.269 408.988 186.715 408.734 187.072 L 408.734 187.072 L 408.734 187.072 C 408.48 187.419 408.145 187.892 407.731 188.487 L 407.731 188.487 L 407.731 188.487 C 407.325 189.073 406.863 189.691 406.346 190.341 L 406.346 190.341 L 406.346 190.341 C 405.836 190.991 405.299 191.289 404.734 191.234 L 404.734 191.234 L 404.734 191.234 C 404.169 191.169 403.886 190.845 403.886 190.259 L 403.886 190.259 L 403.886 190.259 C 403.886 189.664 404.089 189.04 404.495 188.391 L 404.495 188.391 L 404.495 188.391 C 404.91 187.741 406.116 185.881 408.113 182.814 L 408.113 182.814 L 408.113 182.814 C 410.119 179.747 411.815 177.178 413.2 175.109 L 413.2 175.109 L 413.2 175.109 C 414.585 173.039 416.229 171.061 418.131 169.175 L 418.131 169.175 L 418.131 169.175 C 420.033 167.279 421.701 166.332 423.134 166.332 L 423.134 166.332 L 423.134 166.332 C 424.575 166.332 425.912 166.922 427.146 168.104 L 427.146 168.104 L 427.146 168.104 C 428.372 169.285 429.191 170.466 429.605 171.647 L 429.605 171.647 L 429.605 171.647 C 430.019 172.829 430.608 174.926 431.372 177.938 L 431.372 177.938 L 431.372 177.938 C 432.145 180.95 432.686 182.988 432.996 184.05 L 432.996 184.05 L 432.996 184.05 C 440.694 175.315 448.395 168.168 456.1 162.609 L 456.1 162.609 L 456.1 162.609 C 456.92 162.262 457.688 162.088 458.404 162.088 L 458.404 162.088 L 460.721 162.609 L 460.721 162.609 C 462.257 163.443 463.025 164.684 463.025 166.332 Z" style="white-space: pre; fill: rgb(97, 12, 57);"/>
</svg>