<?xml version="1.0" encoding="utf-8"?>
<svg viewBox="144.14414978027344 119.36935424804688 82.20713806152344 37.16218566894531" xmlns="http://www.w3.org/2000/svg">
  <path d="M 150.679 125.485 L 150.679 125.485 L 150.679 125.485 C 151.463 124.329 152.855 123.54 154.847 123.115 L 154.847 123.115 L 154.847 123.115 C 155.712 122.95 156.597 122.869 157.504 122.869 L 157.504 122.869 L 157.504 122.869 C 158.408 122.869 159.343 122.962 160.308 123.15 L 160.308 123.15 L 160.308 123.15 C 160.834 122.467 161.369 122.125 161.911 122.125 L 161.911 122.125 L 161.911 122.125 C 162.05 122.125 162.146 122.166 162.197 122.247 L 162.197 122.247 L 162.197 122.247 C 162.249 122.33 162.244 122.419 162.183 122.515 L 162.183 122.515 L 162.183 122.515 C 162.12 122.607 161.985 122.696 161.775 122.78 L 161.775 122.78 L 161.775 122.78 C 161.564 122.863 161.317 123.046 161.035 123.329 L 161.035 123.329 L 161.035 123.329 C 161.72 123.564 162.194 123.755 162.454 123.909 L 162.454 123.909 L 162.454 123.909 C 162.716 124.064 162.912 124.258 163.043 124.495 L 163.043 124.495 L 163.043 124.495 C 163.174 124.73 163.239 124.896 163.239 124.99 L 163.239 124.99 L 163.239 124.99 C 163.239 125.203 162.964 125.203 162.409 124.99 L 162.409 124.99 L 162.409 124.99 C 161.854 124.778 161.206 124.614 160.462 124.495 L 160.462 124.495 L 160.462 124.495 C 160.098 125.509 159.719 126.901 159.317 128.67 L 159.317 128.67 L 159.317 128.67 C 158.913 130.44 158.67 131.5 158.59 131.854 L 158.59 131.854 L 158.59 131.854 C 159.678 131.548 160.407 131.395 160.778 131.395 L 160.778 131.395 L 160.778 131.395 C 161.15 131.395 161.376 131.425 161.46 131.483 L 161.46 131.483 L 161.46 131.483 C 161.536 131.543 161.584 131.619 161.596 131.714 L 161.596 131.714 L 161.596 131.714 C 161.604 131.808 161.589 131.883 161.549 131.945 L 161.549 131.945 L 161.549 131.945 C 161.507 132.002 161.443 132.008 161.351 131.96 L 161.351 131.96 L 161.351 131.96 C 161.261 131.914 161.094 131.889 160.856 131.889 L 160.856 131.889 L 160.856 131.889 C 160.615 131.889 160.161 131.99 159.495 132.191 L 159.495 132.191 L 159.495 132.191 C 158.831 132.392 158.438 132.693 158.32 133.093 L 158.32 133.093 L 158.32 133.093 C 156.466 139.062 154.11 143.214 151.253 145.549 L 151.253 145.549 L 151.253 145.549 C 149.986 146.609 148.83 147.139 147.783 147.139 L 147.783 147.139 L 147.783 147.139 C 147.4 147.139 147.037 147.069 146.693 146.928 L 146.693 146.928 L 146.693 146.928 C 145.67 146.528 145.156 145.638 145.156 144.257 L 145.156 144.257 L 145.156 144.257 C 145.156 142.876 145.77 141.361 146.998 139.709 L 146.998 139.709 L 146.998 139.709 C 149.474 136.383 152.814 133.941 157.019 132.385 L 157.019 132.385 L 157.019 132.385 C 157.08 132.174 157.269 131.479 157.593 130.298 L 157.593 130.298 L 157.593 130.298 C 158.296 127.608 158.954 125.649 159.555 124.423 L 159.555 124.423 L 159.555 124.423 C 159.314 124.423 158.952 124.423 158.468 124.423 L 158.468 124.423 L 158.468 124.423 C 157.986 124.423 157.303 124.483 156.416 124.601 L 156.416 124.601 L 156.416 124.601 C 154.143 124.909 152.524 125.581 151.555 126.618 L 151.555 126.618 L 151.555 126.618 C 151.053 127.185 150.8 127.833 150.8 128.565 L 150.8 128.565 L 150.8 128.565 C 150.8 128.918 150.886 129.236 151.059 129.52 L 151.059 129.52 L 151.059 129.52 C 151.229 129.803 151.393 130.003 151.555 130.121 L 151.555 130.121 L 151.555 130.121 C 151.818 130.332 152.169 130.568 152.611 130.829 L 152.611 130.829 L 152.611 130.829 C 152.855 131.04 152.903 131.171 152.763 131.217 L 152.763 131.217 L 152.763 131.217 C 152.703 131.217 152.633 131.206 152.554 131.182 L 152.554 131.182 L 152.554 131.182 C 152.068 131.065 151.555 130.723 151.012 130.156 L 151.012 130.156 L 151.012 130.156 C 150.469 129.591 150.188 128.942 150.167 128.212 L 150.167 128.212 L 150.167 128.212 C 150.105 127.951 150.074 127.738 150.074 127.573 L 150.074 127.573 L 150.074 127.573 C 150.074 126.794 150.276 126.099 150.679 125.485 Z M 146.723 143.991 L 146.723 143.991 L 146.723 143.991 C 146.723 144.251 146.744 144.51 146.785 144.77 L 146.785 144.77 L 146.785 144.77 C 146.987 145.666 147.488 146.114 148.295 146.114 L 148.295 146.114 L 148.295 146.114 C 149.48 146.114 150.729 145.182 152.04 143.32 L 152.04 143.32 L 152.04 143.32 C 153.97 140.559 155.57 137.139 156.838 133.058 L 156.838 133.058 L 156.838 133.058 C 153.317 134.401 150.529 136.583 148.477 139.603 L 148.477 139.603 L 148.477 139.603 C 147.309 141.278 146.723 142.74 146.723 143.991 Z M 162.604 141.053 L 162.604 141.053 L 164.628 141.267 L 164.628 141.267 C 165.07 141.267 165.41 141.215 165.641 141.108 L 165.641 141.108 L 165.641 141.108 C 165.869 141.002 166.042 140.972 166.152 141.018 L 166.152 141.018 L 166.152 141.018 C 166.262 141.066 166.238 141.154 166.079 141.284 L 166.079 141.284 L 166.079 141.284 C 165.917 141.412 165.65 141.514 165.276 141.585 L 165.276 141.585 L 165.276 141.585 C 164.903 141.658 164.679 141.715 164.598 141.76 L 164.598 141.76 L 164.598 141.76 C 164.919 141.903 165.273 142.105 165.653 142.363 L 165.653 142.363 L 167.254 143.531 L 167.254 143.531 C 167.735 142.21 168.079 141.172 168.28 140.418 L 168.28 140.418 L 168.28 140.418 C 168.16 140.488 167.997 140.541 167.797 140.576 L 167.797 140.576 L 167.797 140.576 C 167.595 140.612 167.496 140.547 167.496 140.381 L 167.496 140.381 L 167.496 140.381 C 167.496 140.217 167.616 140.087 167.857 139.992 L 167.857 139.992 L 168.523 139.78 L 168.523 139.78 C 168.844 138.696 169.201 137.382 169.595 135.836 L 169.595 135.836 L 169.595 135.836 C 169.985 134.291 170.183 133.507 170.183 133.484 L 170.183 133.484 L 170.183 133.484 C 171.39 128.953 172.435 126.099 173.322 124.92 L 173.322 124.92 L 173.322 124.92 C 174.209 123.741 175.023 122.974 175.769 122.622 L 175.769 122.622 L 175.769 122.622 C 176.514 122.266 177.077 122.089 177.458 122.089 L 177.458 122.089 L 177.458 122.089 C 178.526 122.089 179.371 122.584 179.996 123.576 L 179.996 123.576 L 179.996 123.576 C 180.417 124.259 180.63 125.121 180.63 126.159 L 180.63 126.159 L 180.63 126.159 C 180.63 128.116 180.061 130.062 178.924 131.997 L 178.924 131.997 L 178.924 131.997 C 177.786 133.93 176.411 135.566 174.803 136.897 L 174.803 136.897 L 174.803 136.897 C 173.193 138.228 171.52 139.249 169.788 139.958 L 169.788 139.958 L 169.788 139.958 C 169.187 141.632 168.613 143.011 168.069 144.099 L 168.069 144.099 L 168.069 144.099 C 171.149 146.41 173.333 147.813 174.619 148.308 L 174.619 148.308 L 174.619 148.308 C 176.111 148.897 177.528 149.191 178.877 149.191 L 178.877 149.191 L 178.877 149.191 C 180.347 149.191 181.563 148.72 182.528 147.776 L 182.528 147.776 L 182.528 147.776 C 183.035 147.304 183.287 146.809 183.287 146.292 L 183.287 146.292 L 183.287 146.292 C 183.287 145.773 183.198 145.313 183.03 144.913 L 183.03 144.913 L 183.03 144.913 C 182.857 144.51 182.872 144.291 183.074 144.257 L 183.074 144.257 L 183.074 144.257 C 183.274 144.222 183.435 144.345 183.556 144.627 L 183.556 144.627 L 183.556 144.627 C 183.856 145.406 184.009 146.21 184.009 147.035 L 184.009 147.035 L 184.009 147.035 C 184.009 147.176 184.009 147.318 184.009 147.458 L 184.009 147.458 L 184.009 147.458 C 183.989 148.356 183.635 149.147 182.955 149.831 L 182.955 149.831 L 182.955 149.831 C 182.15 150.631 180.912 151.032 179.238 151.032 L 179.238 151.032 L 179.238 151.032 C 178.114 151.032 177.122 150.856 176.265 150.503 L 176.265 150.503 L 176.265 150.503 C 175.41 150.148 174.736 149.859 174.242 149.636 L 174.242 149.636 L 174.242 149.636 C 173.749 149.411 173.134 149.021 172.401 148.468 L 172.401 148.468 L 172.401 148.468 C 171.665 147.913 171.149 147.518 170.847 147.282 L 170.847 147.282 L 170.847 147.282 C 170.243 146.811 169.216 145.937 167.766 144.664 L 167.766 144.664 L 167.766 144.664 C 166.722 146.786 165.793 147.848 164.989 147.848 L 164.989 147.848 L 164.989 147.848 C 164.788 147.848 164.668 147.806 164.628 147.724 L 164.628 147.724 L 164.628 147.724 C 164.586 147.641 164.593 147.564 164.643 147.493 L 164.643 147.493 L 164.643 147.493 C 164.693 147.423 164.749 147.389 164.808 147.389 L 164.808 147.389 L 164.808 147.389 C 165.473 147.318 166.218 146.221 167.044 144.099 L 167.044 144.099 L 167.044 144.099 C 165.917 143.225 164.971 142.634 164.205 142.329 L 164.205 142.329 L 164.205 142.329 C 163.521 142.658 163.047 142.823 162.785 142.823 L 162.785 142.823 L 162.785 142.823 C 162.524 142.823 162.354 142.81 162.273 142.788 L 162.273 142.788 L 162.273 142.788 C 161.931 142.647 161.76 142.399 161.76 142.046 L 161.76 142.046 L 161.76 142.046 C 161.76 141.551 162.021 141.221 162.544 141.053 L 162.544 141.053 L 162.544 141.053 C 162.544 141.053 162.564 141.053 162.604 141.053 Z M 179.391 125.485 L 179.391 125.485 L 179.391 125.485 C 179.391 123.692 178.817 122.796 177.668 122.796 L 177.668 122.796 L 177.668 122.796 C 176.641 122.796 175.768 123.41 175.043 124.637 L 175.043 124.637 L 175.043 124.637 C 174.238 125.957 173.654 127.189 173.292 128.335 L 173.292 128.335 L 173.292 128.335 C 172.931 129.478 172.668 130.32 172.507 130.864 L 172.507 130.864 L 172.507 130.864 C 172.104 132.186 171.793 133.389 171.572 134.473 L 171.572 134.473 L 171.572 134.473 C 170.906 136.643 170.423 138.141 170.121 138.965 L 170.121 138.965 L 170.121 138.965 C 172.435 137.739 174.435 136.075 176.114 133.977 L 176.114 133.977 L 176.114 133.977 C 177.796 131.878 178.847 129.506 179.268 126.864 L 179.268 126.864 L 179.268 126.864 C 179.351 126.371 179.391 125.911 179.391 125.485 Z M 181.082 133.165 L 181.082 133.165 L 181.082 133.165 C 181.582 133.165 181.886 133.353 181.986 133.73 L 181.986 133.73 L 181.986 133.73 C 182.027 133.941 182.001 134.149 181.91 134.35 L 181.91 134.35 L 181.91 134.35 C 181.822 134.549 181.754 134.707 181.715 134.827 L 181.715 134.827 L 181.715 134.827 C 181.675 134.944 181.646 135.038 181.626 135.109 L 181.626 135.109 L 181.626 135.109 C 181.523 135.345 181.423 135.569 181.323 135.781 L 181.323 135.781 L 181.323 135.781 C 180.176 138.471 179.571 140.182 179.513 140.913 L 179.513 140.913 L 179.513 140.913 C 179.491 141.124 179.482 141.397 179.482 141.726 L 179.482 141.726 L 179.482 141.726 C 179.482 142.056 179.561 142.329 179.723 142.54 L 179.723 142.54 L 179.723 142.54 C 180.002 142.918 180.406 142.943 180.93 142.611 L 180.93 142.611 L 180.93 142.611 C 181.453 142.28 182.182 141.62 183.118 140.631 L 183.118 140.631 L 183.118 140.631 C 184.055 139.639 184.814 138.673 185.397 137.729 L 185.397 137.729 L 185.397 137.729 C 185.478 137.611 185.569 137.58 185.669 137.641 L 185.669 137.641 L 185.669 137.641 C 185.77 137.7 185.823 137.758 185.823 137.817 L 185.823 137.817 L 185.823 137.817 C 185.823 137.876 185.801 137.94 185.761 138.011 L 185.761 138.011 L 185.761 138.011 C 185.458 138.648 184.914 139.462 184.131 140.452 L 184.131 140.452 L 184.131 140.452 C 182.842 142.08 181.766 143.083 180.901 143.461 L 180.901 143.461 L 180.901 143.461 C 180.396 143.674 179.972 143.779 179.63 143.779 L 179.63 143.779 L 179.63 143.779 C 178.827 143.779 178.293 143.33 178.032 142.432 L 178.032 142.432 L 178.032 142.432 C 177.993 142.269 177.974 142.068 177.974 141.832 L 177.974 141.832 L 177.974 141.832 C 177.974 141.007 178.293 139.759 178.935 138.082 L 178.935 138.082 L 178.935 138.082 C 178.837 138.342 178.444 138.933 177.759 139.853 L 177.759 139.853 L 177.759 139.853 C 177.577 140.088 177.438 140.088 177.338 139.853 L 177.338 139.853 L 177.338 139.853 C 177.318 139.804 177.307 139.739 177.307 139.657 L 177.307 139.657 L 177.307 139.657 C 177.307 139.576 177.347 139.474 177.428 139.355 L 177.428 139.355 L 177.428 139.355 C 178.416 137.917 179.189 136.701 179.753 135.71 L 179.753 135.71 L 179.753 135.71 C 179.711 135.593 179.735 135.441 179.815 135.252 L 179.815 135.252 L 179.815 135.252 C 180.216 133.93 180.569 133.234 180.87 133.165 L 180.87 133.165 L 180.87 133.165 C 180.93 133.165 181 133.165 181.082 133.165 Z M 183.465 128.459 L 183.465 128.459 L 183.224 129.591 L 183.224 129.591 C 183.224 129.803 183.095 130.146 182.833 130.616 L 182.833 130.616 L 182.833 130.616 C 182.571 131.088 182.37 131.325 182.23 131.325 L 182.23 131.325 L 182.23 131.325 C 181.364 131.325 180.93 131.077 180.93 130.58 L 180.93 130.58 L 180.93 130.58 C 180.93 130.486 181.364 130.049 182.23 129.272 L 182.23 129.272 L 182.742 128.811 L 182.742 128.811 C 183.064 128.48 183.265 128.316 183.345 128.316 L 183.345 128.316 L 183.345 128.316 C 183.425 128.316 183.465 128.362 183.465 128.459 Z M 193.399 132.915 L 193.399 132.915 L 193.399 132.915 C 193.861 132.915 194.092 133.205 194.092 133.782 L 194.092 133.782 L 194.092 133.782 C 194.092 134.361 193.861 135.157 193.399 136.171 L 193.399 136.171 L 193.399 136.171 C 192.934 137.186 192.591 138.011 192.371 138.648 L 192.371 138.648 L 192.371 138.648 C 191.991 139.734 191.798 140.601 191.798 141.249 L 191.798 141.249 L 191.798 141.249 C 191.798 141.897 191.88 142.329 192.041 142.54 L 192.041 142.54 L 192.041 142.54 C 192.341 142.918 192.755 142.937 193.279 142.594 L 193.279 142.594 L 193.279 142.594 C 193.802 142.252 194.53 141.59 195.465 140.611 L 195.465 140.611 L 195.465 140.611 C 196.405 139.634 197.153 138.673 197.716 137.729 L 197.716 137.729 L 197.716 137.729 C 197.797 137.611 197.891 137.58 198.003 137.641 L 198.003 137.641 L 198.003 137.641 C 198.113 137.7 198.166 137.758 198.166 137.817 L 198.166 137.817 L 198.166 137.817 C 198.166 137.876 198.148 137.94 198.108 138.011 L 198.108 138.011 L 198.108 138.011 C 197.807 138.648 197.263 139.462 196.479 140.452 L 196.479 140.452 L 196.479 140.452 C 195.694 141.443 194.94 142.24 194.213 142.841 L 194.213 142.841 L 194.213 142.841 C 193.49 143.442 192.774 143.743 192.071 143.743 L 192.071 143.743 L 192.071 143.743 C 191.384 143.72 190.902 143.538 190.621 143.196 L 190.621 143.196 L 190.621 143.196 C 190.339 142.853 190.199 142.423 190.199 141.903 L 190.199 141.903 L 190.199 141.903 C 190.199 141.384 190.239 140.884 190.318 140.4 L 190.318 140.4 L 190.318 140.4 C 190.399 139.916 190.551 139.355 190.772 138.719 L 190.772 138.719 L 190.772 138.719 C 191.134 137.704 191.451 136.914 191.722 136.35 L 191.722 136.35 L 191.722 136.35 C 191.993 135.782 192.13 135.412 192.13 135.232 L 192.13 135.232 L 192.13 135.232 C 192.13 135.057 192.051 134.969 191.889 134.969 L 191.889 134.969 L 191.889 134.969 C 191.567 134.969 190.954 135.429 190.047 136.35 L 190.047 136.35 L 190.047 136.35 C 189.422 137.034 188.503 138.323 187.286 140.222 L 187.286 140.222 L 187.286 140.222 C 186.067 142.122 185.379 143.131 185.216 143.247 L 185.216 143.247 L 185.216 143.247 C 184.493 143.672 184.039 143.884 183.856 143.884 L 183.856 143.884 L 183.856 143.884 C 183.676 143.884 183.589 143.848 183.589 143.779 L 183.589 143.779 L 183.589 143.779 C 183.589 143.708 183.606 143.607 183.646 143.479 L 183.646 143.479 L 183.646 143.479 C 183.686 143.348 183.883 142.706 184.237 141.549 L 184.237 141.549 L 184.237 141.549 C 184.586 140.395 184.971 139.125 185.383 137.745 L 185.383 137.745 L 185.383 137.745 C 185.794 136.366 186.049 135.535 186.137 135.252 L 186.137 135.252 L 186.137 135.252 C 186.23 134.969 186.288 134.727 186.318 134.524 L 186.318 134.524 L 186.318 134.524 C 186.348 134.326 186.383 134.156 186.423 134.012 L 186.423 134.012 L 186.423 134.012 C 186.463 133.873 186.54 133.713 186.65 133.535 L 186.65 133.535 L 186.65 133.535 C 186.761 133.359 186.907 133.263 187.089 133.253 L 187.089 133.253 L 187.089 133.253 C 187.268 133.24 187.503 133.263 187.783 133.324 L 187.783 133.324 L 187.783 133.324 C 188.063 133.382 188.205 133.53 188.205 133.767 L 188.205 133.767 L 188.205 133.767 C 188.205 133.93 188.093 134.29 187.872 134.844 L 187.872 134.844 L 187.872 134.844 C 187.653 135.4 187.019 137.305 185.971 140.559 L 185.971 140.559 L 185.971 140.559 C 186.696 139.521 187.612 138.322 188.72 136.966 L 188.72 136.966 L 188.72 136.966 C 189.828 135.612 190.761 134.58 191.525 133.873 L 191.525 133.873 L 191.525 133.873 C 192.291 133.234 192.916 132.915 193.399 132.915 Z M 211.542 138.011 L 211.542 138.011 C 211.243 138.648 210.696 139.462 209.912 140.452 L 209.912 140.452 L 209.912 140.452 C 209.128 141.443 208.423 142.211 207.799 142.754 L 207.799 142.754 L 207.799 142.754 C 206.994 143.437 206.119 143.779 205.174 143.779 L 205.174 143.779 L 205.174 143.779 C 204.992 143.779 204.755 143.679 204.463 143.479 L 204.463 143.479 L 204.463 143.479 C 204.171 143.277 203.974 142.988 203.876 142.611 L 203.876 142.611 L 203.876 142.611 C 203.773 142.234 203.722 141.869 203.722 141.514 L 203.722 141.514 L 203.722 141.514 C 203.722 140.287 203.925 139.072 204.327 137.869 L 204.327 137.869 L 204.327 137.869 C 204.266 137.917 203.991 138.419 203.496 139.374 L 203.496 139.374 L 203.496 139.374 C 203.004 140.328 202.399 141.231 201.686 142.079 L 201.686 142.079 L 201.686 142.079 C 200.971 142.928 200.253 143.354 199.527 143.354 L 199.527 143.354 L 199.527 143.354 C 199.188 143.354 198.793 143.248 198.35 143.037 L 198.35 143.037 L 198.35 143.037 C 197.544 142.612 197.142 141.834 197.142 140.699 L 197.142 140.699 L 197.142 140.699 C 197.142 139.308 197.549 137.876 198.363 136.401 L 198.363 136.401 L 198.363 136.401 C 199.181 134.928 199.699 134.143 199.921 134.048 L 199.921 134.048 L 199.921 134.048 C 200.222 133.954 200.508 133.908 200.779 133.908 L 200.779 133.908 L 200.779 133.908 C 201.052 133.908 201.327 133.973 201.61 134.104 L 201.61 134.104 L 201.61 134.104 C 201.89 134.231 201.851 134.449 201.488 134.755 L 201.488 134.755 L 201.488 134.755 C 200.1 136.241 199.113 137.894 198.529 139.709 L 198.529 139.709 L 198.529 139.709 C 198.308 140.418 198.199 141.013 198.199 141.498 L 198.199 141.498 L 198.199 141.498 C 198.199 141.98 198.304 142.292 198.514 142.432 L 198.514 142.432 L 198.514 142.432 C 198.727 142.575 198.933 142.647 199.134 142.647 L 199.134 142.647 L 199.134 142.647 C 199.618 142.647 200.277 142.252 201.111 141.462 L 201.111 141.462 L 201.111 141.462 C 201.946 140.672 203.099 139.027 204.568 136.524 L 204.568 136.524 L 204.568 136.524 C 204.77 136.172 205.122 135.482 205.625 134.456 L 205.625 134.456 L 205.625 134.456 C 206.129 133.428 206.431 132.82 206.533 132.633 L 206.533 132.633 L 206.533 132.633 C 206.854 132.633 207.231 132.72 207.663 132.899 L 207.663 132.899 L 207.663 132.899 C 208.096 133.076 208.241 133.305 208.101 133.587 L 208.101 133.587 L 208.101 133.587 C 207.134 135.474 206.455 136.867 206.065 137.764 L 206.065 137.764 L 206.065 137.764 C 205.67 138.661 205.404 139.71 205.264 140.913 L 205.264 140.913 L 205.264 140.913 C 205.244 141.124 205.231 141.397 205.231 141.726 L 205.231 141.726 L 205.231 141.726 C 205.231 142.056 205.313 142.329 205.474 142.54 L 205.474 142.54 L 205.474 142.54 C 205.777 142.918 206.195 142.937 206.725 142.594 L 206.725 142.594 L 206.725 142.594 C 207.26 142.252 207.991 141.59 208.918 140.611 L 208.918 140.611 L 208.918 140.611 C 209.844 139.634 210.584 138.673 211.151 137.729 L 211.151 137.729 L 211.151 137.729 C 211.23 137.611 211.327 137.58 211.437 137.641 L 211.437 137.641 L 211.437 137.641 C 211.547 137.7 211.603 137.758 211.603 137.817 L 211.603 137.817 L 211.603 137.817 C 211.603 137.876 211.582 137.94 211.542 138.011 L 211.542 138.011 Z M 222.47 133.622 L 222.47 133.622 L 222.47 133.622 C 222.47 133.906 222.239 134.048 221.778 134.048 L 221.778 134.048 L 221.778 134.048 C 220.731 134.519 219.775 135.192 218.91 136.063 L 218.91 136.063 L 216.735 138.047 L 216.735 138.047 C 216.735 138.73 217.107 139.862 217.854 141.443 L 217.854 141.443 L 217.854 141.443 C 218.193 142.222 218.632 142.611 219.166 142.611 L 219.166 142.611 L 219.166 142.611 C 219.699 142.611 220.328 142.175 221.051 141.303 L 221.051 141.303 L 221.051 141.303 C 221.394 140.879 222.22 139.687 223.528 137.729 L 223.528 137.729 L 223.528 137.729 C 223.628 137.586 223.722 137.551 223.815 137.622 L 223.815 137.622 L 223.815 137.622 C 223.904 137.694 223.951 137.764 223.951 137.833 L 223.951 137.833 L 223.951 137.833 C 223.951 137.905 223.93 137.988 223.891 138.082 L 223.891 138.082 L 223.891 138.082 C 222.963 139.734 222.038 141.079 221.112 142.115 L 221.112 142.115 L 221.112 142.115 C 220.168 143.129 219.29 143.637 218.485 143.637 L 218.485 143.637 L 218.485 143.637 C 218.323 143.637 218.165 143.614 218.001 143.565 L 218.001 143.565 L 218.001 143.565 C 216.997 143.306 216.141 141.939 215.436 139.462 L 215.436 139.462 L 215.436 139.462 C 211.332 144.345 209.238 147.789 209.157 149.795 L 209.157 149.795 L 209.157 149.795 C 209.157 150.079 209.087 150.22 208.945 150.22 L 208.945 150.22 L 208.796 150.149 L 208.796 150.149 C 208.714 150.053 208.674 149.935 208.674 149.795 L 208.674 149.795 L 208.674 149.795 C 208.674 148.52 209.21 146.981 210.277 145.176 L 210.277 145.176 L 210.277 145.176 C 211.343 143.371 212.408 141.809 213.474 140.488 L 213.474 140.488 L 213.474 140.488 C 214.541 139.168 215.075 138.472 215.075 138.4 L 215.075 138.4 L 215.075 138.4 C 215.075 137.834 214.935 137.263 214.651 136.683 L 214.651 136.683 L 214.651 136.683 C 214.37 136.106 214.14 135.776 213.959 135.695 L 213.959 135.695 L 213.959 135.695 C 213.775 135.612 213.584 135.641 213.383 135.781 L 213.383 135.781 L 213.383 135.781 C 213.062 136.017 212.735 136.389 212.402 136.897 L 212.402 136.897 L 212.402 136.897 C 212.071 137.404 211.878 137.694 211.83 137.764 L 211.83 137.764 L 211.83 137.764 C 211.779 137.834 211.714 137.928 211.631 138.047 L 211.631 138.047 L 211.631 138.047 C 211.553 138.164 211.462 138.288 211.36 138.419 L 211.36 138.419 L 211.36 138.419 C 211.262 138.548 211.157 138.606 211.047 138.595 L 211.047 138.595 L 211.047 138.595 C 210.934 138.582 210.879 138.518 210.879 138.4 L 210.879 138.4 L 210.879 138.4 C 210.879 138.282 210.918 138.157 210.998 138.028 L 210.998 138.028 L 210.998 138.028 C 211.081 137.898 211.315 137.526 211.707 136.914 L 211.707 136.914 L 211.707 136.914 C 212.101 136.302 212.433 135.789 212.704 135.376 L 212.704 135.376 L 212.704 135.376 C 212.976 134.962 213.297 134.567 213.672 134.191 L 213.672 134.191 L 213.672 134.191 C 214.042 133.812 214.37 133.622 214.651 133.622 L 214.651 133.622 L 214.651 133.622 C 214.935 133.622 215.196 133.741 215.436 133.977 L 215.436 133.977 L 215.436 133.977 C 215.678 134.213 215.838 134.449 215.92 134.684 L 215.92 134.684 L 215.92 134.684 C 216.001 134.921 216.117 135.34 216.265 135.941 L 216.265 135.941 L 216.265 135.941 C 216.419 136.542 216.524 136.949 216.585 137.161 L 216.585 137.161 L 216.585 137.161 C 218.094 135.416 219.603 133.99 221.112 132.879 L 221.112 132.879 L 221.112 132.879 C 221.274 132.81 221.425 132.775 221.565 132.775 L 221.565 132.775 L 222.02 132.879 L 222.02 132.879 C 222.319 133.047 222.47 133.294 222.47 133.622 Z" style="white-space: pre; fill: rgb(97, 12, 57);"/>
</svg>